<?xml version="1.0" encoding="UTF-8" standalone="no"?>
<!-- Generator: Adobe Illustrator 19.0.0, SVG Export Plug-In . SVG Version: 6.00 Build 0)  -->

<svg
   xmlns:dc="http://purl.org/dc/elements/1.1/"
   xmlns:cc="http://creativecommons.org/ns#"
   xmlns:rdf="http://www.w3.org/1999/02/22-rdf-syntax-ns#"
   xmlns:svg="http://www.w3.org/2000/svg"
   xmlns="http://www.w3.org/2000/svg"
   xmlns:sodipodi="http://sodipodi.sourceforge.net/DTD/sodipodi-0.dtd"
   xmlns:inkscape="http://www.inkscape.org/namespaces/inkscape"
   version="1.1"
   id="Layer_1"
   x="0px"
   y="0px"
   viewBox="0 0 511.999 511.999"
   style="enable-background:new 0 0 511.999 511.999;"
   xml:space="preserve"
   sodipodi:docname="hotel.svg"
   inkscape:version="0.92.1 r15371"><metadata
   id="metadata4538"><rdf:RDF><cc:Work
       rdf:about=""><dc:format>image/svg+xml</dc:format><dc:type
         rdf:resource="http://purl.org/dc/dcmitype/StillImage" /><dc:title></dc:title></cc:Work></rdf:RDF></metadata><defs
   id="defs4536" /><sodipodi:namedview
   pagecolor="#ffffff"
   bordercolor="#666666"
   borderopacity="1"
   objecttolerance="10"
   gridtolerance="10"
   guidetolerance="10"
   inkscape:pageopacity="0"
   inkscape:pageshadow="2"
   inkscape:window-width="1366"
   inkscape:window-height="705"
   id="namedview4534"
   showgrid="false"
   inkscape:zoom="1.0195333"
   inkscape:cx="232.94976"
   inkscape:cy="259.26519"
   inkscape:window-x="-8"
   inkscape:window-y="-8"
   inkscape:window-maximized="1"
   inkscape:current-layer="Layer_1" />
<circle
   style="fill:#e8c769;fill-opacity:1;stroke:none;stroke-width:1.24585783"
   id="path4542"
   cx="256"
   cy="255.99899"
   r="256" />


<g
   id="g4503">
</g>
<g
   id="g4505">
</g>
<g
   id="g4507">
</g>
<g
   id="g4509">
</g>
<g
   id="g4511">
</g>
<g
   id="g4513">
</g>
<g
   id="g4515">
</g>
<g
   id="g4517">
</g>
<g
   id="g4519">
</g>
<g
   id="g4521">
</g>
<g
   id="g4523">
</g>
<g
   id="g4525">
</g>
<g
   id="g4527">
</g>
<g
   id="g4529">
</g>
<g
   id="g4531">
</g>
<g
   id="g5496"
   transform="matrix(1.0877369,0,0,1.0877369,51.943872,35.587387)"
   style="fill:#811414;fill-opacity:1"><g
     id="g5437"
     style="fill:#811414;fill-opacity:1">
	<path
   id="path5429"
   d="M 303.838,353.36 V 106.867 h 7.697 V 64.12 H 68.465 v 42.747 h 7.697 V 353.36 H 61.759 V 380 H 318.241 V 353.36 Z M 145.162,336.865 h -40.424 v -40.424 h 40.424 z m 0,-58.545 h -40.424 v -40.424 h 40.424 z m 0,-58.545 h -40.424 v -40.424 h 40.424 z m 0,-58.545 h -40.424 v -40.424 h 40.424 z m 65.051,192.13 h -40.426 v -56.919 h 40.426 z m 0,-75.04 h -40.426 v -40.424 h 40.426 z m 0,-58.545 h -40.426 v -40.424 h 40.426 z m 0,-58.545 h -40.426 v -40.424 h 40.426 z m 65.049,175.635 h -40.424 v -40.424 h 40.424 z m 0,-58.545 h -40.424 v -40.424 h 40.424 z m 0,-58.545 h -40.424 v -40.424 h 40.424 z m 0,-58.545 h -40.424 v -40.424 h 40.424 z"
   inkscape:connector-curvature="0"
   style="fill:#811414;fill-opacity:1" />
	<polygon
   id="polygon5431"
   points="120.43,18.354 100.176,21.297 114.832,35.584 111.373,55.757 129.489,46.232 147.606,55.757 144.146,35.584 158.803,21.297 138.548,18.354 129.489,0 "
   transform="matrix(0.73602112,0,0,0.73602112,49.838033,11.081671)"
   style="fill:#811414;fill-opacity:1" />
	<polygon
   id="polygon5433"
   points="180.941,18.354 160.687,21.297 175.344,35.584 171.883,55.757 190,46.232 208.117,55.757 204.656,35.584 219.313,21.297 199.059,18.354 190,0 "
   transform="matrix(0.73602112,0,0,0.73602112,49.838033,11.081671)"
   style="fill:#811414;fill-opacity:1" />
	<polygon
   id="polygon5435"
   points="241.452,18.354 221.197,21.297 235.854,35.584 232.394,55.757 250.511,46.232 268.627,55.757 265.168,35.584 279.824,21.297 259.57,18.354 250.511,0 "
   transform="matrix(0.73602112,0,0,0.73602112,49.838033,11.081671)"
   style="fill:#811414;fill-opacity:1" />
</g><g
     id="g5439"
     style="fill:#811414;fill-opacity:1">
</g><g
     id="g5441"
     style="fill:#811414;fill-opacity:1">
</g><g
     id="g5443"
     style="fill:#811414;fill-opacity:1">
</g><g
     id="g5445"
     style="fill:#811414;fill-opacity:1">
</g><g
     id="g5447"
     style="fill:#811414;fill-opacity:1">
</g><g
     id="g5449"
     style="fill:#811414;fill-opacity:1">
</g><g
     id="g5451"
     style="fill:#811414;fill-opacity:1">
</g><g
     id="g5453"
     style="fill:#811414;fill-opacity:1">
</g><g
     id="g5455"
     style="fill:#811414;fill-opacity:1">
</g><g
     id="g5457"
     style="fill:#811414;fill-opacity:1">
</g><g
     id="g5459"
     style="fill:#811414;fill-opacity:1">
</g><g
     id="g5461"
     style="fill:#811414;fill-opacity:1">
</g><g
     id="g5463"
     style="fill:#811414;fill-opacity:1">
</g><g
     id="g5465"
     style="fill:#811414;fill-opacity:1">
</g><g
     id="g5467"
     style="fill:#811414;fill-opacity:1">
</g></g><polygon
   transform="matrix(0.80059733,0,0,0.80059733,57.616725,47.641329)"
   id="polygon5431-4"
   points="158.803,21.297 138.548,18.354 129.489,0 120.43,18.354 100.176,21.297 114.832,35.584 111.373,55.757 129.489,46.232 147.606,55.757 144.146,35.584 "
   style="fill:#811414;fill-opacity:1" /><polygon
   transform="matrix(0.80059733,0,0,0.80059733,251.58143,47.641329)"
   id="polygon5431-2"
   points="144.146,35.584 158.803,21.297 138.548,18.354 129.489,0 120.43,18.354 100.176,21.297 114.832,35.584 111.373,55.757 129.489,46.232 147.606,55.757 "
   style="fill:#811414;fill-opacity:1" /></svg>