<?xml version="1.0" encoding="UTF-8" standalone="no"?>
<!-- Generator: Adobe Illustrator 19.0.0, SVG Export Plug-In . SVG Version: 6.00 Build 0)  -->

<svg
   xmlns:dc="http://purl.org/dc/elements/1.1/"
   xmlns:cc="http://creativecommons.org/ns#"
   xmlns:rdf="http://www.w3.org/1999/02/22-rdf-syntax-ns#"
   xmlns:svg="http://www.w3.org/2000/svg"
   xmlns="http://www.w3.org/2000/svg"
   xmlns:sodipodi="http://sodipodi.sourceforge.net/DTD/sodipodi-0.dtd"
   xmlns:inkscape="http://www.inkscape.org/namespaces/inkscape"
   version="1.1"
   id="Layer_1"
   x="0px"
   y="0px"
   viewBox="0 0 511.999 511.999"
   style="enable-background:new 0 0 511.999 511.999;"
   xml:space="preserve"
   sodipodi:docname="serv-no-smoking-sign.svg"
   inkscape:version="0.92.1 r15371"><metadata
   id="metadata4538"><rdf:RDF><cc:Work
       rdf:about=""><dc:format>image/svg+xml</dc:format><dc:type
         rdf:resource="http://purl.org/dc/dcmitype/StillImage" /><dc:title></dc:title></cc:Work></rdf:RDF></metadata><defs
   id="defs4536" /><sodipodi:namedview
   pagecolor="#ffffff"
   bordercolor="#666666"
   borderopacity="1"
   objecttolerance="10"
   gridtolerance="10"
   guidetolerance="10"
   inkscape:pageopacity="0"
   inkscape:pageshadow="2"
   inkscape:window-width="1366"
   inkscape:window-height="705"
   id="namedview4534"
   showgrid="false"
   inkscape:zoom="1.0195333"
   inkscape:cx="255.9995"
   inkscape:cy="259.26519"
   inkscape:window-x="-8"
   inkscape:window-y="-8"
   inkscape:window-maximized="1"
   inkscape:current-layer="Layer_1" />
<circle
   style="fill:#e8c769;fill-opacity:1;stroke:none;stroke-width:1.24585783"
   id="path4542"
   cx="256"
   cy="255.99899"
   r="256" />


<g
   id="g4503">
</g>
<g
   id="g4505">
</g>
<g
   id="g4507">
</g>
<g
   id="g4509">
</g>
<g
   id="g4511">
</g>
<g
   id="g4513">
</g>
<g
   id="g4515">
</g>
<g
   id="g4517">
</g>
<g
   id="g4519">
</g>
<g
   id="g4521">
</g>
<g
   id="g4523">
</g>
<g
   id="g4525">
</g>
<g
   id="g4527">
</g>
<g
   id="g4529">
</g>
<g
   id="g4531">
</g>
<g
   id="g6303"
   transform="matrix(7.5316457,0,0,7.4653346,36.133341,37.114186)"
   style="fill:#811414;fill-opacity:1"><g
     id="g6242"
     style="fill:#811414;fill-opacity:1">
	<g
   id="g6240"
   style="fill:#811414;fill-opacity:1">
		<path
   id="path6230"
   d="m 29.583,59.166 c 16.338,0 29.583,-13.245 29.583,-29.583 C 59.166,13.245 45.921,0 29.583,0 13.245,-0.001 0,13.244 0,29.583 0,45.921 13.245,59.166 29.583,59.166 Z m 0,-54.167 c 13.556,0 24.583,11.028 24.583,24.583 0,5.674 -1.938,10.902 -5.18,15.066 L 37.98,33.677 h 5.687 V 25.112 H 29.39 L 14.457,10.225 C 18.632,6.956 23.882,4.999 29.583,4.999 Z M 10.216,14.47 20.891,25.112 H 8 v 8.565 h 21.483 l 15.274,15.228 c -4.182,3.292 -9.45,5.263 -15.173,5.263 C 16.028,54.166 5,43.139 5,29.583 5,23.887 6.952,18.642 10.216,14.47 Z"
   inkscape:connector-curvature="0"
   style="fill:#811414;fill-opacity:1" />
		<rect
   id="rect6232"
   height="8.5649996"
   width="2.6670001"
   y="25.112"
   x="45"
   style="fill:#811414;fill-opacity:1" />
		<rect
   id="rect6234"
   height="8.5649996"
   width="2.6670001"
   y="25.112"
   x="49"
   style="fill:#811414;fill-opacity:1" />
		<path
   id="path6236"
   d="m 37.494,16.204 c 0,0 10.006,-0.041 12.173,6.36 0,0 -0.5,-10.059 -12.833,-9.874 -12.333,0.185 -11.5,-5.733 -11.5,-5.733 0,0 -3.346,7.582 12.16,9.247 z"
   inkscape:connector-curvature="0"
   style="fill:#811414;fill-opacity:1" />
		<path
   id="path6238"
   d="m 46.833,24.298 c 0,0 -0.409,-7.038 -10.489,-6.908 -10.081,0.129 -9.399,-4.011 -9.399,-4.011 0,0 -2.734,5.305 9.94,6.47 -10e-4,-0.001 8.177,-0.029 9.948,4.449 z"
   inkscape:connector-curvature="0"
   style="fill:#811414;fill-opacity:1" />
	</g>
</g><g
     id="g6244"
     style="fill:#811414;fill-opacity:1">
</g><g
     id="g6246"
     style="fill:#811414;fill-opacity:1">
</g><g
     id="g6248"
     style="fill:#811414;fill-opacity:1">
</g><g
     id="g6250"
     style="fill:#811414;fill-opacity:1">
</g><g
     id="g6252"
     style="fill:#811414;fill-opacity:1">
</g><g
     id="g6254"
     style="fill:#811414;fill-opacity:1">
</g><g
     id="g6256"
     style="fill:#811414;fill-opacity:1">
</g><g
     id="g6258"
     style="fill:#811414;fill-opacity:1">
</g><g
     id="g6260"
     style="fill:#811414;fill-opacity:1">
</g><g
     id="g6262"
     style="fill:#811414;fill-opacity:1">
</g><g
     id="g6264"
     style="fill:#811414;fill-opacity:1">
</g><g
     id="g6266"
     style="fill:#811414;fill-opacity:1">
</g><g
     id="g6268"
     style="fill:#811414;fill-opacity:1">
</g><g
     id="g6270"
     style="fill:#811414;fill-opacity:1">
</g><g
     id="g6272"
     style="fill:#811414;fill-opacity:1">
</g></g></svg>