<?xml version="1.0" encoding="UTF-8" standalone="no"?>
<!-- Generator: Adobe Illustrator 19.0.0, SVG Export Plug-In . SVG Version: 6.00 Build 0)  -->

<svg
   xmlns:dc="http://purl.org/dc/elements/1.1/"
   xmlns:cc="http://creativecommons.org/ns#"
   xmlns:rdf="http://www.w3.org/1999/02/22-rdf-syntax-ns#"
   xmlns:svg="http://www.w3.org/2000/svg"
   xmlns="http://www.w3.org/2000/svg"
   xmlns:sodipodi="http://sodipodi.sourceforge.net/DTD/sodipodi-0.dtd"
   xmlns:inkscape="http://www.inkscape.org/namespaces/inkscape"
   version="1.1"
   id="Layer_1"
   x="0px"
   y="0px"
   viewBox="0 0 511.999 511.999"
   style="enable-background:new 0 0 511.999 511.999;"
   xml:space="preserve"
   sodipodi:docname="serv-bathrobe.svg"
   inkscape:version="0.92.1 r15371"><metadata
   id="metadata4538"><rdf:RDF><cc:Work
       rdf:about=""><dc:format>image/svg+xml</dc:format><dc:type
         rdf:resource="http://purl.org/dc/dcmitype/StillImage" /><dc:title></dc:title></cc:Work></rdf:RDF></metadata><defs
   id="defs4536" /><sodipodi:namedview
   pagecolor="#ffffff"
   bordercolor="#666666"
   borderopacity="1"
   objecttolerance="10"
   gridtolerance="10"
   guidetolerance="10"
   inkscape:pageopacity="0"
   inkscape:pageshadow="2"
   inkscape:window-width="1366"
   inkscape:window-height="705"
   id="namedview4534"
   showgrid="false"
   inkscape:zoom="1.0195333"
   inkscape:cx="255.9995"
   inkscape:cy="259.26519"
   inkscape:window-x="-8"
   inkscape:window-y="-8"
   inkscape:window-maximized="1"
   inkscape:current-layer="Layer_1" />
<circle
   style="fill:#e8c769;fill-opacity:1;stroke:none;stroke-width:1.24585783"
   id="path4542"
   cx="256"
   cy="255.99899"
   r="256" />


<g
   id="g4503">
</g>
<g
   id="g4505">
</g>
<g
   id="g4507">
</g>
<g
   id="g4509">
</g>
<g
   id="g4511">
</g>
<g
   id="g4513">
</g>
<g
   id="g4515">
</g>
<g
   id="g4517">
</g>
<g
   id="g4519">
</g>
<g
   id="g4521">
</g>
<g
   id="g4523">
</g>
<g
   id="g4525">
</g>
<g
   id="g4527">
</g>
<g
   id="g4529">
</g>
<g
   id="g4531">
</g>
<g
   id="g5998"
   transform="matrix(0.73886335,0,0,0.69348779,65.869639,76.504593)"
   style="fill:#811414;fill-opacity:1"><g
     id="g5939"
     style="fill:#811414;fill-opacity:1">
	<g
   id="g5937"
   style="fill:#811414;fill-opacity:1">
		<g
   id="g5935"
   style="fill:#811414;fill-opacity:1">
			<path
   id="path5931"
   d="M 293.408,0.068 C 292.7,0.06 292,0 291.292,0 h -70.588 c -1.203,0 -2.406,0.094 -3.618,0.119 l 38.784,145.357 z"
   inkscape:connector-curvature="0"
   style="fill:#811414;fill-opacity:1" />
			<path
   id="path5933"
   d="M 488.047,296.568 443.46,125.858 c -0.879,-3.379 -1.69,-6.767 -2.5,-10.129 C 437.453,101.188 433.826,86.161 425.421,72.354 401.741,33.647 358.093,7.031 310.733,1.22 L 264.329,180.932 249.335,256 H 231.936 L 247.245,179.354 199.765,1.399 C 152.977,7.586 110.003,34.056 86.579,72.354 78.174,86.161 74.547,101.188 71.04,115.729 c -0.811,3.362 -1.621,6.75 -2.5,10.112 L 23.953,296.576 c -3.541,13.568 4.608,27.554 18.15,31.181 l 33.22,8.909 c 13.44,3.618 27.546,-4.395 31.292,-17.877 l 36.164,-130.193 c 0.307,-1.135 2.287,-0.853 2.287,0.307 V 256 c -9.412,0 -17.067,7.654 -17.067,17.067 v 17.067 c 0,9.412 7.654,17.067 17.067,17.067 v 179.2 c 0,14.114 11.486,25.6 25.6,25.6 h 170.667 c 14.114,0 25.6,-11.486 25.6,-25.6 V 307.2 c 9.412,0 17.067,-7.654 17.067,-17.067 v -17.067 c 0,-9.412 -7.654,-17.067 -17.067,-17.067 v -67.098 c 0,-1.161 1.988,-1.434 2.287,-0.316 l 36.164,130.202 c 3.14,11.298 13.5,18.748 24.704,18.748 2.176,0 4.395,-0.282 6.588,-0.87 l 33.22,-8.909 c 13.543,-3.626 21.692,-17.612 18.151,-31.188 z M 213.333,290.133 H 153.6 145.067 v -17.067 h 8.533 59.733 z m 34.134,42.667 v 25.6 H 230.4 v -59.733 -25.6 h 8.542 8.525 z M 281.6,298.667 v 25.6 h -17.067 v -51.2 H 281.6 Z m 85.333,-8.534 H 358.4 298.667 v -17.067 h 59.733 8.533 z"
   inkscape:connector-curvature="0"
   style="fill:#811414;fill-opacity:1" />
		</g>
	</g>
</g><g
     id="g5941"
     style="fill:#811414;fill-opacity:1">
</g><g
     id="g5943"
     style="fill:#811414;fill-opacity:1">
</g><g
     id="g5945"
     style="fill:#811414;fill-opacity:1">
</g><g
     id="g5947"
     style="fill:#811414;fill-opacity:1">
</g><g
     id="g5949"
     style="fill:#811414;fill-opacity:1">
</g><g
     id="g5951"
     style="fill:#811414;fill-opacity:1">
</g><g
     id="g5953"
     style="fill:#811414;fill-opacity:1">
</g><g
     id="g5955"
     style="fill:#811414;fill-opacity:1">
</g><g
     id="g5957"
     style="fill:#811414;fill-opacity:1">
</g><g
     id="g5959"
     style="fill:#811414;fill-opacity:1">
</g><g
     id="g5961"
     style="fill:#811414;fill-opacity:1">
</g><g
     id="g5963"
     style="fill:#811414;fill-opacity:1">
</g><g
     id="g5965"
     style="fill:#811414;fill-opacity:1">
</g><g
     id="g5967"
     style="fill:#811414;fill-opacity:1">
</g><g
     id="g5969"
     style="fill:#811414;fill-opacity:1">
</g></g></svg>