<?xml version="1.0" encoding="UTF-8" standalone="no"?>
<!-- Generator: Adobe Illustrator 19.0.0, SVG Export Plug-In . SVG Version: 6.00 Build 0)  -->

<svg
   xmlns:dc="http://purl.org/dc/elements/1.1/"
   xmlns:cc="http://creativecommons.org/ns#"
   xmlns:rdf="http://www.w3.org/1999/02/22-rdf-syntax-ns#"
   xmlns:svg="http://www.w3.org/2000/svg"
   xmlns="http://www.w3.org/2000/svg"
   xmlns:sodipodi="http://sodipodi.sourceforge.net/DTD/sodipodi-0.dtd"
   xmlns:inkscape="http://www.inkscape.org/namespaces/inkscape"
   version="1.1"
   id="Layer_1"
   x="0px"
   y="0px"
   viewBox="0 0 511.999 511.999"
   style="enable-background:new 0 0 511.999 511.999;"
   xml:space="preserve"
   sodipodi:docname="serv-air-conditioner.svg"
   inkscape:version="0.92.1 r15371"><metadata
   id="metadata4538"><rdf:RDF><cc:Work
       rdf:about=""><dc:format>image/svg+xml</dc:format><dc:type
         rdf:resource="http://purl.org/dc/dcmitype/StillImage" /><dc:title></dc:title></cc:Work></rdf:RDF></metadata><defs
   id="defs4536" /><sodipodi:namedview
   pagecolor="#ffffff"
   bordercolor="#666666"
   borderopacity="1"
   objecttolerance="10"
   gridtolerance="10"
   guidetolerance="10"
   inkscape:pageopacity="0"
   inkscape:pageshadow="2"
   inkscape:window-width="1366"
   inkscape:window-height="705"
   id="namedview4534"
   showgrid="false"
   inkscape:zoom="1.0195333"
   inkscape:cx="255.9995"
   inkscape:cy="259.26519"
   inkscape:window-x="-8"
   inkscape:window-y="-8"
   inkscape:window-maximized="1"
   inkscape:current-layer="Layer_1" />
<circle
   style="fill:#e8c769;fill-opacity:1;stroke:none;stroke-width:1.24585783"
   id="path4542"
   cx="256"
   cy="255.99899"
   r="256" />


<g
   id="g4503">
</g>
<g
   id="g4505">
</g>
<g
   id="g4507">
</g>
<g
   id="g4509">
</g>
<g
   id="g4511">
</g>
<g
   id="g4513">
</g>
<g
   id="g4515">
</g>
<g
   id="g4517">
</g>
<g
   id="g4519">
</g>
<g
   id="g4521">
</g>
<g
   id="g4523">
</g>
<g
   id="g4525">
</g>
<g
   id="g4527">
</g>
<g
   id="g4529">
</g>
<g
   id="g4531">
</g>
<g
   id="g6010"
   transform="matrix(1.5860163,0,0,1.5240935,56.212769,63.109554)"
   style="fill:#811414;fill-opacity:1"><path
     id="path6000"
     d="M 236.961,44.858 H 17.447 C 7.827,44.858 0,52.685 0,62.306 v 63.946 c 0,15.997 13.015,29.012 29.012,29.012 h 196.385 c 15.997,0 29.012,-13.015 29.012,-29.012 V 62.306 c -0.001,-9.621 -7.827,-17.448 -17.448,-17.448 z m -199.137,14 h 178.76 V 75.34 c 0,6.48 -5.272,11.753 -11.752,11.753 H 49.577 c -6.48,0 -11.752,-5.272 -11.752,-11.753 V 58.858 Z m 202.583,67.394 c 0,8.277 -6.734,15.012 -15.012,15.012 H 29.011 c -8.277,0 -15.012,-6.734 -15.012,-15.012 V 62.306 c 0,-1.901 1.546,-3.448 3.447,-3.448 h 6.377 V 75.34 c 0,14.2 11.553,25.753 25.752,25.753 H 204.83 c 14.2,0 25.752,-11.553 25.752,-25.753 V 58.858 h 6.377 c 1.901,0 3.447,1.547 3.447,3.448 v 63.946 z"
     inkscape:connector-curvature="0"
     style="fill:#811414;fill-opacity:1" /><path
     id="path6002"
     d="M 223.584,119.248 H 30.824 c -3.866,0 -7,3.134 -7,7 0,3.866 3.134,7 7,7 h 192.76 c 3.866,0 7,-3.134 7,-7 0,-3.866 -3.134,-7 -7,-7 z"
     inkscape:connector-curvature="0"
     style="fill:#811414;fill-opacity:1" /><path
     id="path6004"
     d="m 84.187,177.358 c -0.234,-0.131 -0.452,-0.258 -0.655,-0.38 3.296,-1.417 5.021,-5.144 3.878,-8.616 -1.209,-3.672 -5.165,-5.67 -8.837,-4.461 -1.739,0.572 -10.453,3.821 -11.208,11.591 -0.518,5.334 2.836,10.069 9.969,14.074 2.307,1.295 2.858,2.267 2.871,2.438 0.072,0.973 -1.828,3.536 -3.662,4.959 -3.085,2.33 -3.698,6.719 -1.369,9.804 1.376,1.823 3.471,2.783 5.592,2.783 1.469,0 2.95,-0.461 4.212,-1.414 1.008,-0.761 9.828,-7.705 9.194,-17.076 -0.26,-3.84 -2.204,-9.334 -9.985,-13.702 z"
     inkscape:connector-curvature="0"
     style="fill:#811414;fill-opacity:1" /><path
     id="path6006"
     d="m 130.631,177.358 c -0.234,-0.131 -0.452,-0.258 -0.655,-0.38 3.296,-1.417 5.021,-5.144 3.878,-8.616 -1.209,-3.672 -5.163,-5.67 -8.837,-4.461 -1.739,0.572 -10.453,3.821 -11.208,11.591 -0.518,5.334 2.836,10.069 9.969,14.074 2.307,1.295 2.858,2.267 2.871,2.438 0.072,0.973 -1.828,3.536 -3.662,4.959 -3.085,2.33 -3.698,6.719 -1.369,9.804 1.376,1.823 3.471,2.783 5.592,2.783 1.469,0 2.95,-0.461 4.212,-1.414 1.008,-0.761 9.828,-7.705 9.194,-17.076 -0.26,-3.84 -2.203,-9.334 -9.985,-13.702 z"
     inkscape:connector-curvature="0"
     style="fill:#811414;fill-opacity:1" /><path
     id="path6008"
     d="m 177.075,177.358 c -0.234,-0.131 -0.452,-0.258 -0.655,-0.38 3.296,-1.417 5.021,-5.144 3.878,-8.616 -1.209,-3.672 -5.164,-5.67 -8.837,-4.461 -1.739,0.572 -10.453,3.821 -11.208,11.591 -0.518,5.334 2.836,10.069 9.969,14.074 2.307,1.295 2.858,2.267 2.871,2.438 0.072,0.973 -1.828,3.536 -3.662,4.959 -3.085,2.33 -3.698,6.719 -1.369,9.804 1.376,1.823 3.471,2.783 5.592,2.783 1.469,0 2.95,-0.461 4.212,-1.414 1.008,-0.761 9.828,-7.705 9.194,-17.076 -0.26,-3.84 -2.203,-9.334 -9.985,-13.702 z"
     inkscape:connector-curvature="0"
     style="fill:#811414;fill-opacity:1" /></g></svg>