<?xml version="1.0" encoding="UTF-8" standalone="no"?>
<!-- Generator: Adobe Illustrator 19.0.0, SVG Export Plug-In . SVG Version: 6.00 Build 0)  -->

<svg
   xmlns:dc="http://purl.org/dc/elements/1.1/"
   xmlns:cc="http://creativecommons.org/ns#"
   xmlns:rdf="http://www.w3.org/1999/02/22-rdf-syntax-ns#"
   xmlns:svg="http://www.w3.org/2000/svg"
   xmlns="http://www.w3.org/2000/svg"
   xmlns:sodipodi="http://sodipodi.sourceforge.net/DTD/sodipodi-0.dtd"
   xmlns:inkscape="http://www.inkscape.org/namespaces/inkscape"
   version="1.1"
   id="Layer_1"
   x="0px"
   y="0px"
   viewBox="0 0 511.999 511.999"
   style="enable-background:new 0 0 511.999 511.999;"
   xml:space="preserve"
   sodipodi:docname="serv-hair-dryer.svg"
   inkscape:version="0.92.1 r15371"><metadata
   id="metadata4538"><rdf:RDF><cc:Work
       rdf:about=""><dc:format>image/svg+xml</dc:format><dc:type
         rdf:resource="http://purl.org/dc/dcmitype/StillImage" /><dc:title></dc:title></cc:Work></rdf:RDF></metadata><defs
   id="defs4536" /><sodipodi:namedview
   pagecolor="#ffffff"
   bordercolor="#666666"
   borderopacity="1"
   objecttolerance="10"
   gridtolerance="10"
   guidetolerance="10"
   inkscape:pageopacity="0"
   inkscape:pageshadow="2"
   inkscape:window-width="1366"
   inkscape:window-height="705"
   id="namedview4534"
   showgrid="false"
   inkscape:zoom="1.0195333"
   inkscape:cx="255.9995"
   inkscape:cy="259.26519"
   inkscape:window-x="-8"
   inkscape:window-y="-8"
   inkscape:window-maximized="1"
   inkscape:current-layer="Layer_1" />
<circle
   style="fill:#e8c769;fill-opacity:1;stroke:none;stroke-width:1.24585783"
   id="path4542"
   cx="256"
   cy="255.99899"
   r="256" />


<g
   id="g4503">
</g>
<g
   id="g4505">
</g>
<g
   id="g4507">
</g>
<g
   id="g4509">
</g>
<g
   id="g4511">
</g>
<g
   id="g4513">
</g>
<g
   id="g4515">
</g>
<g
   id="g4517">
</g>
<g
   id="g4519">
</g>
<g
   id="g4521">
</g>
<g
   id="g4523">
</g>
<g
   id="g4525">
</g>
<g
   id="g4527">
</g>
<g
   id="g4529">
</g>
<g
   id="g4531">
</g>
<g
   id="g5779"
   transform="matrix(5.3409426,0,0,5.6938296,90.822815,76.642685)"
   style="fill:#811414;fill-opacity:1"><g
     id="g5720"
     style="fill:#811414;fill-opacity:1">
	<g
   id="g5718"
   style="fill:#811414;fill-opacity:1">
		<path
   id="path5712"
   d="m 60.959,55.425 c -0.08,-0.518 -0.398,-0.967 -0.861,-1.215 -1.681,-0.896 -3.854,-0.959 -6.402,-0.107 -3.465,1.16 -12.13,7.855 -13.823,2.479 1.588,-0.104 2.646,-0.523 2.646,-0.523 4.131,-13.061 4.303,-29.288 4.255,-34.131 -0.206,0.018 -0.412,0.044 -0.622,0.044 L 46.106,21.971 34.838,21.072 c -0.104,0.707 -0.201,1.423 -0.287,2.147 0.624,0.044 1.145,0.203 1.537,0.484 0.501,0.355 0.773,0.856 0.753,1.372 l -0.258,7.164 c -0.033,0.957 -1.063,1.707 -2.341,1.707 L 34.131,33.944 C 34.016,33.94 33.907,33.921 33.8,33.907 c -0.34,11.299 0.559,21.463 0.559,21.463 0.656,0.365 1.303,0.623 1.935,0.813 -0.063,0.258 1.392,7.754 10.16,5.104 2.875,-0.869 5.377,-2.672 8.192,-3.725 1.533,-0.568 2.677,-0.648 3.529,-0.268 0.788,0.35 1.711,0.176 2.315,-0.439 0.003,-0.004 0.007,-0.006 0.01,-0.01 0.368,-0.375 0.538,-0.9 0.459,-1.42 z"
   style="fill:#811414;fill-opacity:1"
   inkscape:connector-curvature="0" />
		<path
   id="path5714"
   d="m 54.637,10.693 v -0.61 C 54.637,6.022 51.075,0 46.153,0 L 2.708,3.471 C 1.696,3.551 0.875,4.442 0.875,5.454 v 9.866 c 0,1.013 0.822,1.902 1.833,1.984 l 43.467,3.47 c 4.91,-0.019 8.462,-6.028 8.462,-10.081 z"
   style="fill:#811414;fill-opacity:1"
   inkscape:connector-curvature="0" />
		<path
   id="path5716"
   d="m 34.243,32.745 c 0.679,0 1.141,-0.334 1.146,-0.553 l 0.261,-7.164 c 0.004,-0.106 -0.089,-0.24 -0.253,-0.354 -0.234,-0.168 -0.572,-0.272 -0.922,-0.285 -0.001,0 -0.002,0 -0.003,0 -0.743,0 -1.201,0.333 -1.21,0.554 l -0.26,7.161 c -0.009,0.242 0.479,0.615 1.172,0.641 z"
   style="fill:#811414;fill-opacity:1"
   inkscape:connector-curvature="0" />
	</g>
</g><g
     id="g5722"
     style="fill:#811414;fill-opacity:1">
</g><g
     id="g5724"
     style="fill:#811414;fill-opacity:1">
</g><g
     id="g5726"
     style="fill:#811414;fill-opacity:1">
</g><g
     id="g5728"
     style="fill:#811414;fill-opacity:1">
</g><g
     id="g5730"
     style="fill:#811414;fill-opacity:1">
</g><g
     id="g5732"
     style="fill:#811414;fill-opacity:1">
</g><g
     id="g5734"
     style="fill:#811414;fill-opacity:1">
</g><g
     id="g5736"
     style="fill:#811414;fill-opacity:1">
</g><g
     id="g5738"
     style="fill:#811414;fill-opacity:1">
</g><g
     id="g5740"
     style="fill:#811414;fill-opacity:1">
</g><g
     id="g5742"
     style="fill:#811414;fill-opacity:1">
</g><g
     id="g5744"
     style="fill:#811414;fill-opacity:1">
</g><g
     id="g5746"
     style="fill:#811414;fill-opacity:1">
</g><g
     id="g5748"
     style="fill:#811414;fill-opacity:1">
</g><g
     id="g5750"
     style="fill:#811414;fill-opacity:1">
</g></g></svg>