<?xml version="1.0" encoding="UTF-8" standalone="no"?>
<!-- Generator: Adobe Illustrator 19.0.0, SVG Export Plug-In . SVG Version: 6.00 Build 0)  -->

<svg
   xmlns:dc="http://purl.org/dc/elements/1.1/"
   xmlns:cc="http://creativecommons.org/ns#"
   xmlns:rdf="http://www.w3.org/1999/02/22-rdf-syntax-ns#"
   xmlns:svg="http://www.w3.org/2000/svg"
   xmlns="http://www.w3.org/2000/svg"
   xmlns:sodipodi="http://sodipodi.sourceforge.net/DTD/sodipodi-0.dtd"
   xmlns:inkscape="http://www.inkscape.org/namespaces/inkscape"
   version="1.1"
   id="Layer_1"
   x="0px"
   y="0px"
   viewBox="0 0 511.999 511.999"
   style="enable-background:new 0 0 511.999 511.999;"
   xml:space="preserve"
   sodipodi:docname="serv-cream.svg"
   inkscape:version="0.92.1 r15371"><metadata
   id="metadata4538"><rdf:RDF><cc:Work
       rdf:about=""><dc:format>image/svg+xml</dc:format><dc:type
         rdf:resource="http://purl.org/dc/dcmitype/StillImage" /><dc:title></dc:title></cc:Work></rdf:RDF></metadata><defs
   id="defs4536" /><sodipodi:namedview
   pagecolor="#ffffff"
   bordercolor="#666666"
   borderopacity="1"
   objecttolerance="10"
   gridtolerance="10"
   guidetolerance="10"
   inkscape:pageopacity="0"
   inkscape:pageshadow="2"
   inkscape:window-width="1366"
   inkscape:window-height="705"
   id="namedview4534"
   showgrid="false"
   inkscape:zoom="1.0195333"
   inkscape:cx="255.9995"
   inkscape:cy="259.26519"
   inkscape:window-x="-8"
   inkscape:window-y="-8"
   inkscape:window-maximized="1"
   inkscape:current-layer="Layer_1" />
<circle
   style="fill:#e8c769;fill-opacity:1;stroke:none;stroke-width:1.24585783"
   id="path4542"
   cx="256"
   cy="255.99899"
   r="256" />


<g
   id="g4503">
</g>
<g
   id="g4505">
</g>
<g
   id="g4507">
</g>
<g
   id="g4509">
</g>
<g
   id="g4511">
</g>
<g
   id="g4513">
</g>
<g
   id="g4515">
</g>
<g
   id="g4517">
</g>
<g
   id="g4519">
</g>
<g
   id="g4521">
</g>
<g
   id="g4523">
</g>
<g
   id="g4525">
</g>
<g
   id="g4527">
</g>
<g
   id="g4529">
</g>
<g
   id="g4531">
</g>
<g
   id="g5860"
   transform="matrix(0.67475019,0,0,0.58076958,96.50818,110.9878)"
   style="fill:#811414;fill-opacity:1"><g
     id="g5797"
     style="fill:#811414;fill-opacity:1">
	<g
   id="g5795"
   style="fill:#811414;fill-opacity:1">
		<g
   id="g5793"
   style="fill:#811414;fill-opacity:1">
			<rect
   id="rect5781"
   height="16"
   width="80"
   y="400"
   x="115.732"
   style="fill:#811414;fill-opacity:1" />
			<path
   id="path5783"
   d="M 492.268,72 H 315.196 l 3.128,48 H 283.732 V 88 h 16 V 48 40 24 c 0,-13.232 -10.768,-24 -24,-24 h -48 c -13.232,0 -24,10.768 -24,24 v 16 h -168 v 48 h 184 v 32 h -56 c -26.472,0 -48,21.528 -48,48 v 104 h -40 c -17.648,0 -32,14.352 -32,32 v 16 h -16 c -13.232,0 -24,10.768 -24,24 v 128 c 0,13.232 10.768,24 24,24 h 248 8 80 80 c 17.648,0 32,-14.352 32,-32 0,-7.864 -2.96,-14.984 -7.688,-20.56 z M 470.5,160 H 336.964 l -2.608,-40 h 138.752 z m 4.696,-72 -1.04,16 h -140.84 l -1.04,-16 z M 219.732,24 c 0,-4.408 3.592,-8 8,-8 h 48 c 4.408,0 8,3.592 8,8 v 16 h -64 V 24 Z m -168,48 V 56 h 232 v 16 z m 216,16 v 32 h -32 V 88 Z m -136,80 c 0,-17.648 14.352,-32 32,-32 h 155.632 l 3.648,56 h -191.28 z m -72,136 c 0,-8.824 7.176,-16 16,-16 h 160 c 8.824,0 16,7.176 16,16 v 16 h -192 z m 232,168 c 0,4.408 -3.592,8 -8,8 h -8 -248 c -4.408,0 -8,-3.592 -8,-8 v -8 h 272 z m 0,-24 h -272 v -80 h 272 z m 0,-96 h -272 v -8 c 0,-4.408 3.592,-8 8,-8 h 16 224 16 c 4.408,0 8,3.592 8,8 z m -8,-32 h -16 v -16 c 0,-17.648 -14.352,-32 -32,-32 h -104 V 208 H 324.06 l 8.872,136 h -25.2 c 0,-13.232 -10.768,-24 -24,-24 z m 52.448,160 h -29.928 c 0.904,-2.512 1.48,-5.184 1.48,-8 V 360 h 26.24 l 5.44,83.44 c -4.72,5.576 -7.68,12.696 -7.68,20.56 0,5.856 1.696,11.272 4.448,16 z m 107.552,0 h -80 c -8.824,0 -16,-7.176 -16,-16 0,-8.824 7.176,-16 16,-16 h 80 c 8.824,0 16,7.176 16,16 0,8.824 -7.176,16 -16,16 z M 347.924,328 H 459.54 l -6.872,105.424 C 449.812,432.592 446.852,432 443.732,432 h -80 c -3.12,0 -6.08,0.592 -8.936,1.424 z M 460.58,312 H 346.884 l -8.872,-136 h 131.44 z"
   inkscape:connector-curvature="0"
   style="fill:#811414;fill-opacity:1" />
			<rect
   id="rect5785"
   height="16"
   width="96"
   y="224"
   x="355.73199"
   style="fill:#811414;fill-opacity:1" />
			<path
   id="path5787"
   d="m 35.732,192 c 17.648,0 32,-14.352 32,-32 0,-6.88 -2.272,-13.704 -6.4,-19.2 l -25.6,-34.136 -25.6,34.136 c -4.128,5.496 -6.4,12.32 -6.4,19.2 0,17.648 14.352,32 32,32 z m -12.8,-41.6 12.8,-17.064 12.8,17.072 c 2.064,2.744 3.2,6.152 3.2,9.592 0,8.824 -7.176,16 -16,16 -8.824,0 -16,-7.176 -16,-16 0,-3.44 1.136,-6.848 3.2,-9.6 z"
   inkscape:connector-curvature="0"
   style="fill:#811414;fill-opacity:1" />
			<rect
   id="rect5789"
   height="16"
   width="16"
   y="256"
   x="435.73199"
   style="fill:#811414;fill-opacity:1" />
			<rect
   id="rect5791"
   height="16"
   width="64"
   y="256"
   x="355.73199"
   style="fill:#811414;fill-opacity:1" />
		</g>
	</g>
</g><g
     id="g5799"
     style="fill:#811414;fill-opacity:1">
</g><g
     id="g5801"
     style="fill:#811414;fill-opacity:1">
</g><g
     id="g5803"
     style="fill:#811414;fill-opacity:1">
</g><g
     id="g5805"
     style="fill:#811414;fill-opacity:1">
</g><g
     id="g5807"
     style="fill:#811414;fill-opacity:1">
</g><g
     id="g5809"
     style="fill:#811414;fill-opacity:1">
</g><g
     id="g5811"
     style="fill:#811414;fill-opacity:1">
</g><g
     id="g5813"
     style="fill:#811414;fill-opacity:1">
</g><g
     id="g5815"
     style="fill:#811414;fill-opacity:1">
</g><g
     id="g5817"
     style="fill:#811414;fill-opacity:1">
</g><g
     id="g5819"
     style="fill:#811414;fill-opacity:1">
</g><g
     id="g5821"
     style="fill:#811414;fill-opacity:1">
</g><g
     id="g5823"
     style="fill:#811414;fill-opacity:1">
</g><g
     id="g5825"
     style="fill:#811414;fill-opacity:1">
</g><g
     id="g5827"
     style="fill:#811414;fill-opacity:1">
</g></g></svg>