<?xml version="1.0" encoding="UTF-8" standalone="no"?>
<!-- Generator: Adobe Illustrator 19.0.0, SVG Export Plug-In . SVG Version: 6.00 Build 0)  -->

<svg
   xmlns:dc="http://purl.org/dc/elements/1.1/"
   xmlns:cc="http://creativecommons.org/ns#"
   xmlns:rdf="http://www.w3.org/1999/02/22-rdf-syntax-ns#"
   xmlns:svg="http://www.w3.org/2000/svg"
   xmlns="http://www.w3.org/2000/svg"
   xmlns:sodipodi="http://sodipodi.sourceforge.net/DTD/sodipodi-0.dtd"
   xmlns:inkscape="http://www.inkscape.org/namespaces/inkscape"
   version="1.1"
   id="Layer_1"
   x="0px"
   y="0px"
   viewBox="0 0 511.999 511.999"
   style="enable-background:new 0 0 511.999 511.999;"
   xml:space="preserve"
   sodipodi:docname="serv-kettle.svg"
   inkscape:version="0.92.1 r15371"><metadata
   id="metadata4538"><rdf:RDF><cc:Work
       rdf:about=""><dc:format>image/svg+xml</dc:format><dc:type
         rdf:resource="http://purl.org/dc/dcmitype/StillImage" /><dc:title></dc:title></cc:Work></rdf:RDF></metadata><defs
   id="defs4536" /><sodipodi:namedview
   pagecolor="#ffffff"
   bordercolor="#666666"
   borderopacity="1"
   objecttolerance="10"
   gridtolerance="10"
   guidetolerance="10"
   inkscape:pageopacity="0"
   inkscape:pageshadow="2"
   inkscape:window-width="1366"
   inkscape:window-height="705"
   id="namedview4534"
   showgrid="false"
   inkscape:zoom="1.0195333"
   inkscape:cx="255.9995"
   inkscape:cy="259.26519"
   inkscape:window-x="-8"
   inkscape:window-y="-8"
   inkscape:window-maximized="1"
   inkscape:current-layer="Layer_1" />
<circle
   style="fill:#e8c769;fill-opacity:1;stroke:none;stroke-width:1.24585783"
   id="path4542"
   cx="256"
   cy="255.99899"
   r="256" /><g
   id="g4489"
   style="fill:#811414;fill-opacity:1"
   transform="matrix(0.96934091,0,0,0.97149655,7.5931133,6.6678529)">
	<g
   id="g4487"
   style="fill:#811414;fill-opacity:1">
		<path
   d="m 349.74026,141.86028 c -1.63004,-3.27123 -3.30735,-6.42953 -5.02073,-9.49348 H 174.40032 c -1.71258,3.06395 -3.38909,6.22145 -5.01993,9.49267 -2.20864,4.43179 -4.31309,9.0136 -6.31978,13.72202 l -31.68226,8.1e-4 c -41.722113,0 -75.66671,34.1599 -75.66671,76.14942 0,41.98952 33.94299,76.15103 75.66671,76.15103 h 3.86592 V 440.39861 H 383.87639 V 306.46248 c -8e-4,-61.97252 -12.12427,-120.43025 -34.13613,-164.6022 z M 135.81084,283.35667 h -4.4333 c -28.28435,0 -51.296343,-23.15824 -51.296343,-51.62576 0,-28.46429 23.010383,-51.62333 51.296343,-51.62333 h 22.53277 c -10.0695,31.01126 -16.27469,66.22768 -18.09947,103.24909 z"
   id="path4485"
   inkscape:connector-curvature="0"
   style="fill:#811414;fill-opacity:1;stroke-width:0.80394924" />
	</g>
</g>
<g
   id="g4495"
   transform="matrix(0.80139283,0,0,0.80651379,42.506289,27.463548)"
   style="fill:#811414;fill-opacity:1">
	<g
   id="g4493"
   style="fill:#811414;fill-opacity:1">
		<path
   d="m 306.30297,65.425416 c 2.81401,-5.467582 4.41245,-11.660872 4.41245,-18.224302 0.002,-22.002453 -17.86011,-39.9042196 -39.81569,-39.9042196 -21.95459,0 -39.81567,17.9017666 -39.81567,39.9042196 0,6.41382 1.52574,12.473043 4.22051,17.847361 -17.30273,7.558244 -33.57506,20.738537 -48.22277,39.067765 H 353.69794 C 339.2848,86.080403 323.29747,73.039035 306.30297,65.425416 Z"
   id="path4491"
   inkscape:connector-curvature="0"
   style="fill:#811414;fill-opacity:1;stroke-width:0.97041816" />
	</g>
</g>
<g
   id="g4501"
   transform="matrix(0.77682287,0,0,0.78352533,48.796198,33.348594)"
   style="fill:#811414;fill-opacity:1">
	<g
   id="g4499"
   style="fill:#811414;fill-opacity:1">
		<path
   d="m 411.47,130.07 c 11.916,24.141 21.626,51.303 28.929,80.534 l 55.123,-80.534 z"
   id="path4497"
   inkscape:connector-curvature="0"
   style="fill:#811414;fill-opacity:1" />
	</g>
</g>
<g
   id="g4503">
</g>
<g
   id="g4505">
</g>
<g
   id="g4507">
</g>
<g
   id="g4509">
</g>
<g
   id="g4511">
</g>
<g
   id="g4513">
</g>
<g
   id="g4515">
</g>
<g
   id="g4517">
</g>
<g
   id="g4519">
</g>
<g
   id="g4521">
</g>
<g
   id="g4523">
</g>
<g
   id="g4525">
</g>
<g
   id="g4527">
</g>
<g
   id="g4529">
</g>
<g
   id="g4531">
</g>
</svg>