<?xml version="1.0" encoding="UTF-8" standalone="no"?>
<!-- Generator: Adobe Illustrator 18.0.0, SVG Export Plug-In . SVG Version: 6.00 Build 0)  -->

<svg
   xmlns:dc="http://purl.org/dc/elements/1.1/"
   xmlns:cc="http://creativecommons.org/ns#"
   xmlns:rdf="http://www.w3.org/1999/02/22-rdf-syntax-ns#"
   xmlns:svg="http://www.w3.org/2000/svg"
   xmlns="http://www.w3.org/2000/svg"
   xmlns:sodipodi="http://sodipodi.sourceforge.net/DTD/sodipodi-0.dtd"
   xmlns:inkscape="http://www.inkscape.org/namespaces/inkscape"
   version="1.1"
   id="Capa_1"
   x="0px"
   y="0px"
   viewBox="0 0 54 54"
   style="enable-background:new 0 0 54 54;"
   xml:space="preserve"
   sodipodi:docname="up-arrow.svg"
   inkscape:version="0.92.1 r15371"><metadata
   id="metadata17"><rdf:RDF><cc:Work
       rdf:about=""><dc:format>image/svg+xml</dc:format><dc:type
         rdf:resource="http://purl.org/dc/dcmitype/StillImage" /><dc:title></dc:title></cc:Work></rdf:RDF></metadata><defs
   id="defs15" /><sodipodi:namedview
   pagecolor="#ffffff"
   bordercolor="#666666"
   borderopacity="1"
   objecttolerance="10"
   gridtolerance="10"
   guidetolerance="10"
   inkscape:pageopacity="0"
   inkscape:pageshadow="2"
   inkscape:window-width="1366"
   inkscape:window-height="705"
   id="namedview13"
   showgrid="false"
   inkscape:pagecheckerboard="true"
   inkscape:zoom="4.3703704"
   inkscape:cx="27"
   inkscape:cy="27"
   inkscape:window-x="-8"
   inkscape:window-y="-8"
   inkscape:window-maximized="1"
   inkscape:current-layer="Capa_1" />
<g
   id="g10">
	<g
   id="g6">
		<path
   style="fill:#e8c769;"
   d="M 27 1 C 12.641 1 1 12.641 1 27 C 1 41.359 12.641 53 27 53 C 41.359 53 53 41.359 53 27 C 53 12.641 41.359 1 27 1 z M 27 19.001953 C 27.438 19.001953 27.875984 19.168953 28.208984 19.501953 L 39.707031 30.998047 C 40.098031 31.389047 40.098031 32.021109 39.707031 32.412109 C 39.512031 32.607109 39.256 32.705078 39 32.705078 C 38.744 32.705078 38.487969 32.607109 38.292969 32.412109 L 27 21.119141 L 15.707031 32.412109 C 15.316031 32.803109 14.683969 32.803109 14.292969 32.412109 C 13.901969 32.021109 13.901969 31.389047 14.292969 30.998047 L 25.791016 19.501953 C 26.124016 19.168953 26.562 19.001953 27 19.001953 z "
   id="path2" />
		<path
   style="fill:#e8c769;"
   d="M27,54C12.112,54,0,41.888,0,27S12.112,0,27,0s27,12.112,27,27S41.888,54,27,54z M27,2    C13.215,2,2,13.215,2,27s11.215,25,25,25s25-11.215,25-25S40.785,2,27,2z"
   id="path4" />
	</g>
	
</g>
</svg>