<?xml version="1.0" encoding="UTF-8" standalone="no"?>
<!-- Generator: Adobe Illustrator 19.0.0, SVG Export Plug-In . SVG Version: 6.00 Build 0)  -->

<svg
   xmlns:dc="http://purl.org/dc/elements/1.1/"
   xmlns:cc="http://creativecommons.org/ns#"
   xmlns:rdf="http://www.w3.org/1999/02/22-rdf-syntax-ns#"
   xmlns:svg="http://www.w3.org/2000/svg"
   xmlns="http://www.w3.org/2000/svg"
   xmlns:sodipodi="http://sodipodi.sourceforge.net/DTD/sodipodi-0.dtd"
   xmlns:inkscape="http://www.inkscape.org/namespaces/inkscape"
   version="1.1"
   id="Layer_1"
   x="0px"
   y="0px"
   viewBox="0 0 511.999 511.999"
   style="enable-background:new 0 0 511.999 511.999;"
   xml:space="preserve"
   sodipodi:docname="serv-shower.svg"
   inkscape:version="0.92.1 r15371"><metadata
   id="metadata4538"><rdf:RDF><cc:Work
       rdf:about=""><dc:format>image/svg+xml</dc:format><dc:type
         rdf:resource="http://purl.org/dc/dcmitype/StillImage" /><dc:title></dc:title></cc:Work></rdf:RDF></metadata><defs
   id="defs4536" /><sodipodi:namedview
   pagecolor="#ffffff"
   bordercolor="#666666"
   borderopacity="1"
   objecttolerance="10"
   gridtolerance="10"
   guidetolerance="10"
   inkscape:pageopacity="0"
   inkscape:pageshadow="2"
   inkscape:window-width="1366"
   inkscape:window-height="705"
   id="namedview4534"
   showgrid="false"
   inkscape:zoom="1.0195333"
   inkscape:cx="255.9995"
   inkscape:cy="259.26519"
   inkscape:window-x="-8"
   inkscape:window-y="-8"
   inkscape:window-maximized="1"
   inkscape:current-layer="Layer_1" />
<circle
   style="fill:#e8c769;fill-opacity:1;stroke:none;stroke-width:1.24585783"
   id="path4542"
   cx="256"
   cy="255.99899"
   r="256" />


<g
   id="g4503">
</g>
<g
   id="g4505">
</g>
<g
   id="g4507">
</g>
<g
   id="g4509">
</g>
<g
   id="g4511">
</g>
<g
   id="g4513">
</g>
<g
   id="g4515">
</g>
<g
   id="g4517">
</g>
<g
   id="g4519">
</g>
<g
   id="g4521">
</g>
<g
   id="g4523">
</g>
<g
   id="g4525">
</g>
<g
   id="g4527">
</g>
<g
   id="g4529">
</g>
<g
   id="g4531">
</g>
<g
   id="g6228"
   transform="matrix(0.70496149,-0.0012974,0.00121743,0.75126423,79.572808,53.555847)"
   style="fill:#811414;fill-opacity:1"><g
     id="g6147"
     style="fill:#811414;fill-opacity:1">
	<g
   id="g6145"
   style="fill:#811414;fill-opacity:1">
		<g
   id="g6143"
   style="fill:#811414;fill-opacity:1">
			<path
   id="path6095"
   d="m 110.935,392.533 c 4.713,0 8.533,-3.82 8.533,-8.533 v -25.6 c 0,-4.713 -3.82,-8.533 -8.533,-8.533 -4.713,0 -8.533,3.82 -8.533,8.533 V 384 c 0,4.713 3.82,8.533 8.533,8.533 z"
   inkscape:connector-curvature="0"
   style="fill:#811414;fill-opacity:1" />
			<path
   id="path6097"
   d="m 145.068,392.533 c 4.713,0 8.533,-3.82 8.533,-8.533 v -25.6 c 0,-4.713 -3.821,-8.533 -8.533,-8.533 -4.712,0 -8.533,3.82 -8.533,8.533 V 384 c 0,4.713 3.82,8.533 8.533,8.533 z"
   inkscape:connector-curvature="0"
   style="fill:#811414;fill-opacity:1" />
			<path
   id="path6099"
   d="m 179.201,392.533 c 4.713,0 8.533,-3.82 8.533,-8.533 v -25.6 c 0,-4.713 -3.82,-8.533 -8.533,-8.533 -4.713,0 -8.533,3.82 -8.533,8.533 V 384 c 0,4.713 3.821,8.533 8.533,8.533 z"
   inkscape:connector-curvature="0"
   style="fill:#811414;fill-opacity:1" />
			<path
   id="path6101"
   d="m 213.335,392.533 c 4.713,0 8.533,-3.82 8.533,-8.533 v -25.6 c 0,-4.713 -3.821,-8.533 -8.533,-8.533 -4.713,0 -8.533,3.82 -8.533,8.533 V 384 c -0.001,4.713 3.82,8.533 8.533,8.533 z"
   inkscape:connector-curvature="0"
   style="fill:#811414;fill-opacity:1" />
			<path
   id="path6103"
   d="m 247.468,392.533 c 4.713,0 8.533,-3.82 8.533,-8.533 v -25.6 c 0,-4.713 -3.821,-8.533 -8.533,-8.533 -4.712,0 -8.533,3.82 -8.533,8.533 V 384 c 0,4.713 3.82,8.533 8.533,8.533 z"
   inkscape:connector-curvature="0"
   style="fill:#811414;fill-opacity:1" />
			<path
   id="path6105"
   d="m 281.602,392.533 c 4.713,0 8.533,-3.82 8.533,-8.533 v -25.6 c 0,-4.713 -3.82,-8.533 -8.533,-8.533 -4.713,0 -8.533,3.82 -8.533,8.533 V 384 c -0.001,4.713 3.82,8.533 8.533,8.533 z"
   inkscape:connector-curvature="0"
   style="fill:#811414;fill-opacity:1" />
			<path
   id="path6107"
   d="m 102.402,418.133 c 0,-4.713 -3.821,-8.533 -8.533,-8.533 -4.713,0 -8.533,3.82 -8.533,8.533 v 25.6 c 0,4.713 3.821,8.533 8.533,8.533 4.713,0 8.533,-3.82 8.533,-8.533 z"
   inkscape:connector-curvature="0"
   style="fill:#811414;fill-opacity:1" />
			<path
   id="path6109"
   d="m 136.535,418.133 c 0,-4.713 -3.82,-8.533 -8.533,-8.533 -4.713,0 -8.533,3.82 -8.533,8.533 v 25.6 c 0,4.713 3.82,8.533 8.533,8.533 4.713,0 8.533,-3.82 8.533,-8.533 z"
   inkscape:connector-curvature="0"
   style="fill:#811414;fill-opacity:1" />
			<path
   id="path6111"
   d="m 170.668,418.133 c 0,-4.713 -3.82,-8.533 -8.533,-8.533 -4.713,0 -8.533,3.82 -8.533,8.533 v 25.6 c 0,4.713 3.82,8.533 8.533,8.533 4.713,0 8.533,-3.82 8.533,-8.533 z"
   inkscape:connector-curvature="0"
   style="fill:#811414;fill-opacity:1" />
			<path
   id="path6113"
   d="m 204.801,418.133 c 0,-4.713 -3.82,-8.533 -8.533,-8.533 -4.713,0 -8.533,3.82 -8.533,8.533 v 25.6 c 0,4.713 3.82,8.533 8.533,8.533 4.713,0 8.533,-3.82 8.533,-8.533 z"
   inkscape:connector-curvature="0"
   style="fill:#811414;fill-opacity:1" />
			<path
   id="path6115"
   d="m 238.935,418.133 c 0,-4.713 -3.82,-8.533 -8.533,-8.533 -4.713,0 -8.533,3.82 -8.533,8.533 v 25.6 c 0,4.713 3.82,8.533 8.533,8.533 4.713,0 8.533,-3.82 8.533,-8.533 z"
   inkscape:connector-curvature="0"
   style="fill:#811414;fill-opacity:1" />
			<path
   id="path6117"
   d="m 273.068,418.133 c 0,-4.713 -3.82,-8.533 -8.533,-8.533 -4.713,0 -8.533,3.82 -8.533,8.533 v 25.6 c 0,4.713 3.82,8.533 8.533,8.533 4.713,0 8.533,-3.82 8.533,-8.533 z"
   inkscape:connector-curvature="0"
   style="fill:#811414;fill-opacity:1" />
			<path
   id="path6119"
   d="m 307.202,418.133 c 0,-4.713 -3.82,-8.533 -8.533,-8.533 -4.713,0 -8.533,3.82 -8.533,8.533 v 25.6 c 0,4.713 3.82,8.533 8.533,8.533 4.713,0 8.533,-3.82 8.533,-8.533 z"
   inkscape:connector-curvature="0"
   style="fill:#811414;fill-opacity:1" />
			<path
   id="path6121"
   d="m 76.801,469.333 c -4.713,0 -8.533,3.82 -8.533,8.533 v 25.6 c 0,4.713 3.82,8.533 8.533,8.533 4.713,0 8.533,-3.82 8.533,-8.533 v -25.6 c 10e-4,-4.712 -3.82,-8.533 -8.533,-8.533 z"
   inkscape:connector-curvature="0"
   style="fill:#811414;fill-opacity:1" />
			<path
   id="path6123"
   d="m 110.935,469.333 c -4.713,0 -8.533,3.82 -8.533,8.533 v 25.6 c 0,4.713 3.82,8.533 8.533,8.533 4.713,0 8.533,-3.82 8.533,-8.533 v -25.6 c 0,-4.712 -3.82,-8.533 -8.533,-8.533 z"
   inkscape:connector-curvature="0"
   style="fill:#811414;fill-opacity:1" />
			<path
   id="path6125"
   d="m 145.068,469.333 c -4.713,0 -8.533,3.82 -8.533,8.533 v 25.6 c 0,4.713 3.82,8.533 8.533,8.533 4.713,0 8.533,-3.82 8.533,-8.533 v -25.6 c 0.001,-4.712 -3.82,-8.533 -8.533,-8.533 z"
   inkscape:connector-curvature="0"
   style="fill:#811414;fill-opacity:1" />
			<path
   id="path6127"
   d="m 179.201,469.333 c -4.713,0 -8.533,3.82 -8.533,8.533 v 25.6 c 0,4.713 3.82,8.533 8.533,8.533 4.713,0 8.533,-3.82 8.533,-8.533 v -25.6 c 0.001,-4.712 -3.82,-8.533 -8.533,-8.533 z"
   inkscape:connector-curvature="0"
   style="fill:#811414;fill-opacity:1" />
			<path
   id="path6129"
   d="m 213.335,469.333 c -4.713,0 -8.533,3.82 -8.533,8.533 v 25.6 c 0,4.713 3.821,8.533 8.533,8.533 4.713,0 8.533,-3.82 8.533,-8.533 v -25.6 c 0,-4.712 -3.82,-8.533 -8.533,-8.533 z"
   inkscape:connector-curvature="0"
   style="fill:#811414;fill-opacity:1" />
			<path
   id="path6131"
   d="m 247.468,469.333 c -4.713,0 -8.533,3.82 -8.533,8.533 v 25.6 c 0,4.713 3.82,8.533 8.533,8.533 4.713,0 8.533,-3.82 8.533,-8.533 v -25.6 c 0,-4.712 -3.82,-8.533 -8.533,-8.533 z"
   inkscape:connector-curvature="0"
   style="fill:#811414;fill-opacity:1" />
			<path
   id="path6133"
   d="m 281.602,469.333 c -4.713,0 -8.533,3.82 -8.533,8.533 v 25.6 c 0,4.713 3.821,8.533 8.533,8.533 4.712,0 8.533,-3.82 8.533,-8.533 v -25.6 c 0,-4.712 -3.821,-8.533 -8.533,-8.533 z"
   inkscape:connector-curvature="0"
   style="fill:#811414;fill-opacity:1" />
			<path
   id="path6135"
   d="m 315.735,469.333 c -4.713,0 -8.533,3.82 -8.533,8.533 v 25.6 c 0,4.713 3.82,8.533 8.533,8.533 4.713,0 8.533,-3.82 8.533,-8.533 v -25.6 c 0,-4.712 -3.82,-8.533 -8.533,-8.533 z"
   inkscape:connector-curvature="0"
   style="fill:#811414;fill-opacity:1" />
			<path
   id="path6137"
   d="M 315.735,281.6 H 76.801 c -10.444,4.172 -17.232,14.354 -17.067,25.6 0,14.138 11.461,25.6 25.6,25.6 h 221.867 c 14.138,0 25.6,-11.461 25.6,-25.6 0.166,-11.245 -6.622,-21.428 -17.066,-25.6 z"
   inkscape:connector-curvature="0"
   style="fill:#811414;fill-opacity:1" />
			<path
   id="path6139"
   d="M 379.735,59.733 H 221.868 c -28.277,0 -51.2,22.923 -51.2,51.2 v 34.133 c -10.601,7.949 -16.907,20.372 -17.067,33.621 -36.013,13.432 -63.317,43.438 -73.301,80.555 -0.566,2.288 0.83,4.6 3.118,5.166 0.348,0.086 0.705,0.128 1.064,0.125 H 307.97 c 2.356,0.022 4.284,-1.871 4.306,-4.227 0.003,-0.358 -0.039,-0.716 -0.125,-1.064 -9.967,-37.098 -37.236,-67.1 -73.216,-80.555 -0.16,-13.249 -6.466,-25.672 -17.067,-33.621 v -25.6 c 0,-4.713 3.82,-8.533 8.533,-8.533 h 149.333 c 2.356,0 4.267,-1.91 4.267,-4.267 V 64 c 0,-2.356 -1.91,-4.267 -4.266,-4.267 z"
   inkscape:connector-curvature="0"
   style="fill:#811414;fill-opacity:1" />
			<path
   id="path6141"
   d="M 443.735,0 C 420.171,0 401.068,19.103 401.068,42.667 V 128 c 0,23.564 19.102,42.667 42.667,42.667 4.713,0 8.533,-3.82 8.533,-8.533 V 8.533 C 452.268,3.82 448.448,0 443.735,0 Z"
   inkscape:connector-curvature="0"
   style="fill:#811414;fill-opacity:1" />
		</g>
	</g>
</g><g
     id="g6149"
     style="fill:#811414;fill-opacity:1">
</g><g
     id="g6151"
     style="fill:#811414;fill-opacity:1">
</g><g
     id="g6153"
     style="fill:#811414;fill-opacity:1">
</g><g
     id="g6155"
     style="fill:#811414;fill-opacity:1">
</g><g
     id="g6157"
     style="fill:#811414;fill-opacity:1">
</g><g
     id="g6159"
     style="fill:#811414;fill-opacity:1">
</g><g
     id="g6161"
     style="fill:#811414;fill-opacity:1">
</g><g
     id="g6163"
     style="fill:#811414;fill-opacity:1">
</g><g
     id="g6165"
     style="fill:#811414;fill-opacity:1">
</g><g
     id="g6167"
     style="fill:#811414;fill-opacity:1">
</g><g
     id="g6169"
     style="fill:#811414;fill-opacity:1">
</g><g
     id="g6171"
     style="fill:#811414;fill-opacity:1">
</g><g
     id="g6173"
     style="fill:#811414;fill-opacity:1">
</g><g
     id="g6175"
     style="fill:#811414;fill-opacity:1">
</g><g
     id="g6177"
     style="fill:#811414;fill-opacity:1">
</g></g></svg>