<?xml version="1.0" encoding="UTF-8" standalone="no"?>
<!-- Generator: Adobe Illustrator 19.0.0, SVG Export Plug-In . SVG Version: 6.00 Build 0)  -->

<svg
   xmlns:dc="http://purl.org/dc/elements/1.1/"
   xmlns:cc="http://creativecommons.org/ns#"
   xmlns:rdf="http://www.w3.org/1999/02/22-rdf-syntax-ns#"
   xmlns:svg="http://www.w3.org/2000/svg"
   xmlns="http://www.w3.org/2000/svg"
   xmlns:sodipodi="http://sodipodi.sourceforge.net/DTD/sodipodi-0.dtd"
   xmlns:inkscape="http://www.inkscape.org/namespaces/inkscape"
   version="1.1"
   id="Layer_1"
   x="0px"
   y="0px"
   viewBox="0 0 511.999 511.999"
   style="enable-background:new 0 0 511.999 511.999;"
   xml:space="preserve"
   sodipodi:docname="serv-flip-flops.svg"
   inkscape:version="0.92.1 r15371"><metadata
   id="metadata4538"><rdf:RDF><cc:Work
       rdf:about=""><dc:format>image/svg+xml</dc:format><dc:type
         rdf:resource="http://purl.org/dc/dcmitype/StillImage" /><dc:title></dc:title></cc:Work></rdf:RDF></metadata><defs
   id="defs4536" /><sodipodi:namedview
   pagecolor="#ffffff"
   bordercolor="#666666"
   borderopacity="1"
   objecttolerance="10"
   gridtolerance="10"
   guidetolerance="10"
   inkscape:pageopacity="0"
   inkscape:pageshadow="2"
   inkscape:window-width="1366"
   inkscape:window-height="705"
   id="namedview4534"
   showgrid="false"
   inkscape:zoom="1.0195333"
   inkscape:cx="255.9995"
   inkscape:cy="259.26519"
   inkscape:window-x="-8"
   inkscape:window-y="-8"
   inkscape:window-maximized="1"
   inkscape:current-layer="Layer_1" />
<circle
   style="fill:#e8c769;fill-opacity:1;stroke:none;stroke-width:1.24585783"
   id="path4542"
   cx="256"
   cy="255.99899"
   r="256" />


<g
   id="g4503">
</g>
<g
   id="g4505">
</g>
<g
   id="g4507">
</g>
<g
   id="g4509">
</g>
<g
   id="g4511">
</g>
<g
   id="g4513">
</g>
<g
   id="g4515">
</g>
<g
   id="g4517">
</g>
<g
   id="g4519">
</g>
<g
   id="g4521">
</g>
<g
   id="g4523">
</g>
<g
   id="g4525">
</g>
<g
   id="g4527">
</g>
<g
   id="g4529">
</g>
<g
   id="g4531">
</g>
<g
   id="g5929"
   transform="matrix(0.72710034,0,0,0.7909022,97.898001,74.852829)"
   style="fill:#811414;fill-opacity:1"><g
     id="g5870"
     style="fill:#811414;fill-opacity:1">
	<path
   id="path5862"
   d="M 388.615,36.313 309.896,13.924 c -31.382,-8.926 -57.059,10.466 -57.059,43.093 0,36.63 2.88,61.959 7.159,82.576 16.102,-21.278 39.907,-34.019 53.457,-39.981 V 80.323 h 30 v 19.514 c 12.387,5.596 34.726,17.026 57.175,35.21 17.395,14.09 31.581,29.623 42.439,46.295 1.043,-24.491 1.938,-48.285 2.607,-69.479 -10e-4,-32.627 -25.677,-66.625 -57.059,-75.55 z"
   inkscape:connector-curvature="0"
   style="fill:#811414;fill-opacity:1" />
	<path
   id="path5864"
   d="m 328.265,125.932 c -14.033,5.828 -53.719,25.404 -55.013,60.75 11.357,35.308 23.223,74.63 23.223,173.095 0,44.765 27.399,72.937 64.353,74.104 36.954,1.167 66.366,-21.258 71.033,-65.723 2.248,-21.414 4.749,-58.771 7.059,-101.047 0,-87.674 -88.5,-131.57 -110.655,-141.179 z"
   inkscape:connector-curvature="0"
   style="fill:#811414;fill-opacity:1" />
	<path
   id="path5866"
   d="M 135.778,13.923 57.059,36.313 C 25.676,45.238 0,79.236 0,111.863 c 0.669,21.195 1.564,44.988 2.607,69.479 10.858,-16.672 25.044,-32.204 42.439,-46.295 22.448,-18.184 44.788,-29.614 57.175,-35.21 V 80.323 h 30 v 19.289 c 13.55,5.961 37.355,18.702 53.457,39.981 4.279,-20.618 7.159,-45.946 7.159,-82.576 0,-32.627 -25.677,-52.019 -57.059,-43.094 z"
   inkscape:connector-curvature="0"
   style="fill:#811414;fill-opacity:1" />
	<path
   id="path5868"
   d="m 117.439,125.921 c -9.677,4.195 -32.11,14.958 -54.166,32.971 -37.504,30.63 -56.52,67.04 -56.52,108.218 2.31,42.276 4.812,79.633 7.059,101.047 4.667,44.465 34.079,66.89 71.033,65.723 36.954,-1.167 64.353,-29.339 64.353,-74.104 0,-98.466 11.867,-137.788 23.224,-173.096 -1.286,-35.566 -40.921,-54.98 -54.983,-60.759 z"
   inkscape:connector-curvature="0"
   style="fill:#811414;fill-opacity:1" />
</g><g
     id="g5872"
     style="fill:#811414;fill-opacity:1">
</g><g
     id="g5874"
     style="fill:#811414;fill-opacity:1">
</g><g
     id="g5876"
     style="fill:#811414;fill-opacity:1">
</g><g
     id="g5878"
     style="fill:#811414;fill-opacity:1">
</g><g
     id="g5880"
     style="fill:#811414;fill-opacity:1">
</g><g
     id="g5882"
     style="fill:#811414;fill-opacity:1">
</g><g
     id="g5884"
     style="fill:#811414;fill-opacity:1">
</g><g
     id="g5886"
     style="fill:#811414;fill-opacity:1">
</g><g
     id="g5888"
     style="fill:#811414;fill-opacity:1">
</g><g
     id="g5890"
     style="fill:#811414;fill-opacity:1">
</g><g
     id="g5892"
     style="fill:#811414;fill-opacity:1">
</g><g
     id="g5894"
     style="fill:#811414;fill-opacity:1">
</g><g
     id="g5896"
     style="fill:#811414;fill-opacity:1">
</g><g
     id="g5898"
     style="fill:#811414;fill-opacity:1">
</g><g
     id="g5900"
     style="fill:#811414;fill-opacity:1">
</g></g></svg>