<?xml version="1.0" encoding="UTF-8" standalone="no"?>
<!-- Generator: Adobe Illustrator 19.0.0, SVG Export Plug-In . SVG Version: 6.00 Build 0)  -->

<svg
   xmlns:dc="http://purl.org/dc/elements/1.1/"
   xmlns:cc="http://creativecommons.org/ns#"
   xmlns:rdf="http://www.w3.org/1999/02/22-rdf-syntax-ns#"
   xmlns:svg="http://www.w3.org/2000/svg"
   xmlns="http://www.w3.org/2000/svg"
   xmlns:sodipodi="http://sodipodi.sourceforge.net/DTD/sodipodi-0.dtd"
   xmlns:inkscape="http://www.inkscape.org/namespaces/inkscape"
   version="1.1"
   id="Layer_1"
   x="0px"
   y="0px"
   viewBox="0 0 511.999 511.999"
   style="enable-background:new 0 0 511.999 511.999;"
   xml:space="preserve"
   sodipodi:docname="serv-fridge.svg"
   inkscape:version="0.92.1 r15371"><metadata
   id="metadata4538"><rdf:RDF><cc:Work
       rdf:about=""><dc:format>image/svg+xml</dc:format><dc:type
         rdf:resource="http://purl.org/dc/dcmitype/StillImage" /><dc:title></dc:title></cc:Work></rdf:RDF></metadata><defs
   id="defs4536" /><sodipodi:namedview
   pagecolor="#ffffff"
   bordercolor="#666666"
   borderopacity="1"
   objecttolerance="10"
   gridtolerance="10"
   guidetolerance="10"
   inkscape:pageopacity="0"
   inkscape:pageshadow="2"
   inkscape:window-width="1366"
   inkscape:window-height="705"
   id="namedview4534"
   showgrid="false"
   inkscape:zoom="1.0195333"
   inkscape:cx="255.9995"
   inkscape:cy="259.26519"
   inkscape:window-x="-8"
   inkscape:window-y="-8"
   inkscape:window-maximized="1"
   inkscape:current-layer="Layer_1" />
<circle
   style="fill:#e8c769;fill-opacity:1;stroke:none;stroke-width:1.24585783"
   id="path4542"
   cx="256"
   cy="255.99899"
   r="256" />


<g
   id="g4503">
</g>
<g
   id="g4505">
</g>
<g
   id="g4507">
</g>
<g
   id="g4509">
</g>
<g
   id="g4511">
</g>
<g
   id="g4513">
</g>
<g
   id="g4515">
</g>
<g
   id="g4517">
</g>
<g
   id="g4519">
</g>
<g
   id="g4521">
</g>
<g
   id="g4523">
</g>
<g
   id="g4525">
</g>
<g
   id="g4527">
</g>
<g
   id="g4529">
</g>
<g
   id="g4531">
</g>
<g
   id="g6093"
   transform="matrix(0.70689856,0,0,0.76245304,76.994792,58.849455)"
   style="fill:#811414;fill-opacity:1"><g
     id="g6034"
     style="fill:#811414;fill-opacity:1">
	<g
   id="g6032"
   style="fill:#811414;fill-opacity:1">
		<g
   id="g6030"
   style="fill:#811414;fill-opacity:1">
			<path
   id="path6026"
   d="M 384,0 H 128 C 104.469,0 85.333,19.135 85.333,42.667 v 96 c 0,5.896 4.771,10.667 10.667,10.667 h 320 c 5.896,0 10.667,-4.771 10.667,-10.667 v -96 C 426.667,19.135 407.531,0 384,0 Z M 202.667,106.667 h -64 c -4.313,0 -8.208,-2.594 -9.854,-6.583 -1.656,-3.99 -0.74,-8.573 2.313,-11.625 l 10.667,-10.667 c 4.167,-4.167 10.917,-4.167 15.083,0 2.083,2.083 3.125,4.813 3.125,7.542 h 42.667 c 5.896,0 10.667,4.771 10.667,10.667 0,5.896 -4.772,10.666 -10.668,10.666 z"
   inkscape:connector-curvature="0"
   style="fill:#811414;fill-opacity:1" />
			<path
   id="path6028"
   d="M 416,170.667 H 96 c -5.896,0 -10.667,4.771 -10.667,10.667 V 448 c 0,23.531 19.135,42.667 42.667,42.667 v 10.667 c 0,5.896 4.771,10.667 10.667,10.667 H 160 c 5.896,0 10.667,-4.771 10.667,-10.667 v -10.667 h 170.667 v 10.667 c 0,5.896 4.771,10.667 10.667,10.667 h 21.333 c 5.896,0 10.667,-4.771 10.667,-10.667 v -10.667 c 23.531,0 42.667,-19.135 42.667,-42.667 V 181.333 C 426.667,175.438 421.896,170.667 416,170.667 Z m -213.333,64 h -64 c -4.313,0 -8.208,-2.594 -9.854,-6.583 -1.656,-3.99 -0.74,-8.573 2.313,-11.625 l 10.667,-10.667 c 4.167,-4.167 10.917,-4.167 15.083,0 2.083,2.083 3.125,4.813 3.125,7.542 h 42.667 c 5.896,0 10.667,4.771 10.667,10.667 0,5.896 -4.772,10.666 -10.668,10.666 z"
   inkscape:connector-curvature="0"
   style="fill:#811414;fill-opacity:1" />
		</g>
	</g>
</g><g
     id="g6036"
     style="fill:#811414;fill-opacity:1">
</g><g
     id="g6038"
     style="fill:#811414;fill-opacity:1">
</g><g
     id="g6040"
     style="fill:#811414;fill-opacity:1">
</g><g
     id="g6042"
     style="fill:#811414;fill-opacity:1">
</g><g
     id="g6044"
     style="fill:#811414;fill-opacity:1">
</g><g
     id="g6046"
     style="fill:#811414;fill-opacity:1">
</g><g
     id="g6048"
     style="fill:#811414;fill-opacity:1">
</g><g
     id="g6050"
     style="fill:#811414;fill-opacity:1">
</g><g
     id="g6052"
     style="fill:#811414;fill-opacity:1">
</g><g
     id="g6054"
     style="fill:#811414;fill-opacity:1">
</g><g
     id="g6056"
     style="fill:#811414;fill-opacity:1">
</g><g
     id="g6058"
     style="fill:#811414;fill-opacity:1">
</g><g
     id="g6060"
     style="fill:#811414;fill-opacity:1">
</g><g
     id="g6062"
     style="fill:#811414;fill-opacity:1">
</g><g
     id="g6064"
     style="fill:#811414;fill-opacity:1">
</g></g></svg>