<?xml version="1.0" encoding="UTF-8" standalone="no"?>
<!-- Generator: Adobe Illustrator 19.0.0, SVG Export Plug-In . SVG Version: 6.00 Build 0)  -->

<svg
   xmlns:dc="http://purl.org/dc/elements/1.1/"
   xmlns:cc="http://creativecommons.org/ns#"
   xmlns:rdf="http://www.w3.org/1999/02/22-rdf-syntax-ns#"
   xmlns:svg="http://www.w3.org/2000/svg"
   xmlns="http://www.w3.org/2000/svg"
   xmlns:sodipodi="http://sodipodi.sourceforge.net/DTD/sodipodi-0.dtd"
   xmlns:inkscape="http://www.inkscape.org/namespaces/inkscape"
   version="1.1"
   id="Capa_1"
   x="0px"
   y="0px"
   viewBox="0 0 54.757 54.757"
   style="enable-background:new 0 0 54.757 54.757;"
   xml:space="preserve"
   width="512px"
   height="512px"
   sodipodi:docname="placeholder.svg"
   inkscape:version="0.92.1 unknown"><metadata
     id="metadata39"><rdf:RDF><cc:Work
         rdf:about=""><dc:format>image/svg+xml</dc:format><dc:type
           rdf:resource="http://purl.org/dc/dcmitype/StillImage" /></cc:Work></rdf:RDF></metadata><defs
     id="defs37" /><sodipodi:namedview
     pagecolor="#ffffff"
     bordercolor="#666666"
     borderopacity="1"
     objecttolerance="10"
     gridtolerance="10"
     guidetolerance="10"
     inkscape:pageopacity="0"
     inkscape:pageshadow="2"
     inkscape:window-width="1327"
     inkscape:window-height="747"
     id="namedview35"
     showgrid="false"
     inkscape:zoom="0.4609375"
     inkscape:cx="-3.0563221"
     inkscape:cy="117.17358"
     inkscape:window-x="39"
     inkscape:window-y="21"
     inkscape:window-maximized="1"
     inkscape:current-layer="layer2" /><g
     id="g4" /><g
     id="g6" /><g
     id="g8" /><g
     id="g10" /><g
     id="g12" /><g
     id="g14" /><g
     id="g16" /><g
     id="g18" /><g
     id="g20" /><g
     id="g22" /><g
     id="g24" /><g
     id="g26" /><g
     id="g28" /><g
     id="g30" /><g
     id="g32" /><g
     inkscape:groupmode="layer"
     id="layer2"
     inkscape:label="Layer 2"
     style="display:inline"><path
       style="fill:#413b36;fill-opacity:1;stroke:#413b36;stroke-width:0.12510096;stroke-opacity:0.94117647"
       id="path4516"
       sodipodi:type="arc"
       sodipodi:cx="27.530195"
       sodipodi:cy="27.481432"
       sodipodi:rx="27.099751"
       sodipodi:ry="27.42518"
       sodipodi:start="0"
       sodipodi:end="6.2819112"
       d="M 54.629946,27.481432 A 27.099751,27.42518 0 0 1 27.538827,54.906611 27.099751,27.42518 0 0 1 0.43045022,27.498903 27.099751,27.42518 0 0 1 27.504299,0.05626405 27.099751,27.42518 0 0 1 54.629924,27.446489 l -27.099729,0.03494 z" /></g><g
     inkscape:groupmode="layer"
     id="layer1"
     inkscape:label="Layer 1"
     style="display:inline"><path
       d="M 38.842907,10.578602 C 35.825202,7.60774 31.812703,5.9713868 27.545258,5.9713868 c -4.268278,0 -8.279943,1.6363532 -11.297648,4.6072152 -5.584672,5.497161 -6.2786935,15.840226 -1.50302,22.10676 L 27.545258,50.884561 40.326764,32.710789 C 45.121599,26.418828 44.427576,16.075763 38.842907,10.578602 Z M 27.692728,27.297291 c -3.215165,0 -5.83212,-2.576332 -5.83212,-5.74159 0,-3.165256 2.616955,-5.741589 5.83212,-5.741589 3.215165,0 5.832118,2.576333 5.832118,5.741589 0,3.165258 -2.616953,5.74159 -5.832118,5.74159 z"
       id="path2"
       style="fill:#fffbff;fill-opacity:1;stroke-width:0.82666826"
       inkscape:connector-curvature="0" /></g></svg>