<?xml version="1.0" encoding="UTF-8" standalone="no"?>
<!-- Created with Inkscape (http://www.inkscape.org/) -->

<svg
   xmlns:dc="http://purl.org/dc/elements/1.1/"
   xmlns:cc="http://creativecommons.org/ns#"
   xmlns:rdf="http://www.w3.org/1999/02/22-rdf-syntax-ns#"
   xmlns:svg="http://www.w3.org/2000/svg"
   xmlns="http://www.w3.org/2000/svg"
   xmlns:sodipodi="http://sodipodi.sourceforge.net/DTD/sodipodi-0.dtd"
   xmlns:inkscape="http://www.inkscape.org/namespaces/inkscape"
   width="300"
   height="255.257"
   viewBox="0 0 79.374998 67.536751"
   version="1.1"
   id="svg4807"
   inkscape:version="0.92.1 r15371"
   sodipodi:docname="almaz_old.svg">
  <defs
     id="defs4801" />
  <sodipodi:namedview
     id="base"
     pagecolor="#ffffff"
     bordercolor="#666666"
     borderopacity="1.0"
     inkscape:pageopacity="0.0"
     inkscape:pageshadow="2"
     inkscape:zoom="0.35"
     inkscape:cx="-87.142857"
     inkscape:cy="560"
     inkscape:document-units="mm"
     inkscape:current-layer="layer1"
     showgrid="false"
     units="px"
     inkscape:window-width="1366"
     inkscape:window-height="706"
     inkscape:window-x="-8"
     inkscape:window-y="-8"
     inkscape:window-maximized="1" />
  <metadata
     id="metadata4804">
    <rdf:RDF>
      <cc:Work
         rdf:about="">
        <dc:format>image/svg+xml</dc:format>
        <dc:type
           rdf:resource="http://purl.org/dc/dcmitype/StillImage" />
        <dc:title></dc:title>
      </cc:Work>
    </rdf:RDF>
  </metadata>
  <g
     inkscape:label="Layer 1"
     inkscape:groupmode="layer"
     id="layer1"
     transform="translate(0,-229.46323)">
    <g
       transform="matrix(0.25340302,0,0,0.25340302,2.2070136,213.68564)"
       id="Layer1004">
      <g
         id="Layer1005">
        <path
           d="m 9.0127,328.782 2.2901,-5.6571 56.1946,-138.7437 0.4949,-1.2164 1.2895,-0.2421 18.5507,-3.499 2.4035,-0.4513 0.4119,2.4103 12.3693,72.0589 0.4575,2.6567 -2.689,0.1525 -19.0902,1.0749 -2.3023,0.1264 -0.2267,-2.2955 -1.2666,-12.8631 -4.8509,7.0059 -2.3468,3.3868 -1.794,-3.7105 -3.026,-6.2536 -22.9099,69.4171 -0.3249,0.9873 -0.9439,0.4383 -27.1576,12.6394 z M 75.1682,214.5716 v 0 l -4.6123,13.9821 5.9673,-0.2401 z"
           style="fill:#1b1918;fill-rule:evenodd"
           id="path52"
           inkscape:connector-curvature="0" />
        <path
           d="m 122.6652,254.1699 -0.2126,-2.543 -3.3528,-40.2591 -11.874,34.3891 -4.6449,-0.3915 -5.1103,-30.9205 -0.1057,-0.641 0.2321,-0.6071 12.369,-32.5338 0.4762,-1.2612 1.3312,-0.2463 18.8209,-3.496 2.3805,-0.4402 0.4264,2.3817 12.6371,70.7153 0.436,2.4483 -2.4648,0.3563 -18.822,2.6861 z"
           style="fill:#1b1918;fill-rule:evenodd"
           id="path54"
           inkscape:connector-curvature="0" />
        <path
           d="m 155.3048,251.4098 h -1.9542 -2.4191 -1.9894 l -0.3727,-1.95 -7.2576,-37.9111 -0.0972,-0.5003 0.1145,-0.4918 7.7961,-33.8809 0.4198,-1.8127 1.8584,-0.0516 19.6288,-0.536 2.0602,-0.0567 0.3685,2.0307 4.7665,26.2191 9.4096,-28.4276 0.5034,-1.525 1.6047,-0.1188 18.5508,-1.3442 2.3641,-0.1709 0.2049,2.361 6.1861,71.2528 0.2038,2.3621 -2.3576,0.2398 -18.8243,1.8825 -2.5506,0.2562 -0.0938,-2.5619 -1.1217,-31.4589 -10.5846,32.9119 -0.4804,1.5013 -1.5687,0.1559 -10.7535,1.0768 -2.3174,0.2291 -0.3087,-2.3046 -4.058,-30.4517 -6.5316,31.1658 z"
           style="fill:#1b1918;fill-rule:evenodd"
           id="path56"
           inkscape:connector-curvature="0" />
        <path
           d="m 226.4867,247.6471 h -1.8817 -2.4199 -2.1702 l -0.2234,-2.1549 -4.5694,-43.8282 -0.0612,-0.5885 0.2168,-0.5527 11.5645,-29.0367 0.4972,-1.2527 1.3286,-0.229 18.8218,-3.2264 2.1322,-0.36 0.5887,2.0778 20.7012,73.1342 0.7903,2.7958 -2.8931,0.2562 -21.5112,1.8783 -2.2184,0.1938 -0.364,-2.1974 -2.1407,-13.0118 -4.4297,7.6433 -2.2805,3.9308 -1.9667,-4.0966 -3.5566,-7.4058 -3.5045,14.2035 z m 7.5365,-30.0844 v 0 h 7.1081 l -3.1073,-18.9845 z"
           style="fill:#1b1918;fill-rule:evenodd"
           id="path58"
           inkscape:connector-curvature="0" />
        <path
           d="m 274.5677,246.9529 h -1.8085 l -0.5035,-1.7357 -5.8983,-20.3743 -0.9037,-3.1088 3.2417,0.0372 c 3.3772,0 10.3218,-0.7413 13.0275,-3.5504 0.7869,-0.8187 1.1313,-1.7311 1.0899,-2.8647 -0.0437,-1.1378 -0.1417,-3.8033 -6.0489,-3.8033 -2.9015,0 -5.6049,0.7042 -5.6301,0.7121 l -3.0192,0.7923 -0.003,-3.1187 v -12.2695 -2.5965 l 2.5965,0.2015 c 0.0445,0.002 0.421,0.0295 1.0018,0.0295 3.5013,0 6.4182,-0.8458 7.7984,-2.264 0.7781,-0.798 1.1401,-1.838 1.1029,-3.1799 -0.0215,-0.8915 -0.0827,-3.2624 -5.4643,-3.2624 -3.9918,0 -7.9651,1.4105 -8.6193,1.8978 l -4.0385,3.5906 0.0663,-5.4283 0.119,-16.7825 0.008,-1.6285 1.5174,-0.5964 c 0.3444,-0.1333 8.5601,-3.3118 17.445,-3.3118 11.6725,0 19.1196,5.4134 21.5353,15.6478 0.0414,0.1647 2.8321,13.2889 -9.9371,21.3784 6.0588,4.248 13.0459,12.4058 10.8811,23.5037 -3.2593,16.6879 -21.3237,22.0848 -29.5557,22.0848 z"
           style="fill:#1b1918;fill-rule:evenodd"
           id="path60"
           inkscape:connector-curvature="0" />
        <path
           d="m 39.7054,208.1738 -5.9834,-4.3504 -10.482,-7.6172 -10.4853,7.6172 -5.9854,4.3504 2.2882,-7.0396 4.0036,-12.323 -10.4819,-7.615 -5.9888,-4.3507 h 7.4013 12.9585 l 4.0028,-12.3219 2.287,-7.0361 2.285,7.0361 4.0048,12.3219 h 12.9575 7.3993 l -5.9865,4.3507 -10.4831,7.615 4.0025,12.323 z"
           style="fill:#1b1918;fill-rule:evenodd"
           id="path62"
           inkscape:connector-curvature="0" />
        <path
           d="m 234.8682,141.7883 -1.1611,-3.876 -5.6563,-18.8485 -18.8285,-3.7649 -3.6584,-0.7314 3.3945,-1.5434 19.6166,-8.9071 6.8621,-29.5514 1.3994,-6.0279 0.957,6.1118 4.5902,29.2603 20.4156,3.0558 3.9833,0.5984 -3.6573,1.6829 -21.6124,9.9544 -5.5015,18.7022 z"
           style="fill:#1b1918;fill-rule:evenodd"
           id="path64"
           inkscape:connector-curvature="0" />
        <path
           d="m 269.4301,146.1072 -0.4512,-1.5012 -2.1889,-7.2944 -7.2902,-1.4576 -1.4128,-0.282 1.3125,-0.5976 7.5943,-3.4478 2.6521,-11.4403 0.5431,-2.3315 0.3693,2.3655 1.7802,11.3256 7.8996,1.1837 1.5415,0.229 -1.4151,0.654 -8.3628,3.8511 -2.1291,7.2392 z"
           style="fill:#1b1918;fill-rule:evenodd"
           id="path66"
           inkscape:connector-curvature="0" />
        <path
           d="m 47.4218,175.3185 0.2302,-1.4082 4.6905,-28.5412 0.1514,-0.9275 0.9374,-0.0732 19.4085,-1.563 1.355,-0.11 -0.0556,1.3612 -0.1635,3.8645 -0.0457,1.0497 -1.0497,0.0935 -10.917,0.9856 -4.0419,24.1688 -0.1679,0.993 -1.004,0.01 -7.8973,0.0816 z"
           style="fill:#1b1918;fill-rule:evenodd"
           id="path68"
           inkscape:connector-curvature="0" />
        <path
           d="m 83.5355,173.2986 c -0.0034,0 -0.0034,0 -0.0054,0 -1.1347,0 -2.3165,-0.0763 -3.5067,-0.2234 -3.3259,-0.4122 -5.7708,-1.8323 -7.2664,-4.2143 -3.2451,-5.1755 -0.6582,-12.9892 -0.5451,-13.3172 0.2464,-0.6528 5.8907,-14.8521 20.49,-15.5398 0.3912,-0.0187 0.7727,-0.0249 1.1455,-0.0249 6.4649,0 9.5434,2.7697 10.9876,5.0913 2.6425,4.2471 1.8644,10.2042 0.0199,13.9388 -3.2145,6.5174 -9.5239,14.2895 -21.3194,14.2895 z m 6.8717,-27.6024 v 0 l -0.0873,0.001 c -4.6391,0.1168 -7.7011,8.1723 -8.486,11.268 -0.2452,0.8861 -0.7586,5.7597 0.9516,8.195 0.5462,0.7792 1.2361,1.1761 2.1659,1.2458 0.1222,0.008 0.2421,0.0142 0.3597,0.0142 4.9269,0 7.6096,-7.9311 7.8441,-8.6531 0.4294,-2.3998 1.0706,-8.8543 -0.908,-11.2328 -0.4742,-0.5754 -1.0596,-0.8382 -1.84,-0.8382 z"
           style="fill:#1b1918;fill-rule:evenodd"
           id="path70"
           inkscape:connector-curvature="0" />
        <path
           d="m 112.4526,169.3961 0.2321,-1.4136 3.8914,-23.8604 -7.6314,0.4995 -1.3856,0.0893 0.1092,-1.3833 0.3259,-4.1894 0.0794,-1.0343 1.0358,-0.0709 25.6238,-1.794 1.3901,-0.0984 -0.1092,1.3898 -0.3251,4.1905 -0.0782,1.0301 -1.0313,0.0717 -7.9041,0.5854 -3.5623,24.8283 -0.1468,1.0191 -1.027,0.0111 -8.0524,0.108 z"
           style="fill:#1b1918;fill-rule:evenodd"
           id="path72"
           inkscape:connector-curvature="0" />
        <path
           d="m 134.8947,169.3034 0.1982,-1.5041 4.1335,-31.0654 0.1287,-0.9507 0.9547,-0.0893 20.1849,-1.8488 1.3635,-0.1233 -0.0522,1.368 -0.1627,4.1905 -0.0414,1.0462 -1.044,0.1015 -11.3369,1.1044 -0.7956,6.5304 10.5769,-0.6704 1.4085,-0.0895 -0.1355,1.4031 -0.3781,3.9699 -0.097,1.0061 -1.0063,0.0762 -11.3593,0.9006 -0.7095,6.3431 12.8189,-0.883 1.3997,-0.0939 -0.1222,1.3995 -0.3781,4.3526 -0.0873,0.9933 -0.9941,0.098 -22.9578,2.2856 z"
           style="fill:#1b1918;fill-rule:evenodd"
           id="path74"
           inkscape:connector-curvature="0" />
        <path
           d="m 158.926,165.3717 0.9167,-1.951 14.2504,-30.3582 0.3106,-0.6597 0.7303,-0.0283 10.1213,-0.436 0.8816,-0.0382 0.3019,0.8308 10.3864,28.8898 0.5483,1.5217 -1.6124,0.0881 -12.187,0.652 -0.9164,0.0479 -0.29,-0.8654 -5.955,-17.731 -8.6811,18.4581 -0.2858,0.6038 -0.6658,0.0785 -5.7152,0.6528 z"
           style="fill:#1b1918;fill-rule:evenodd"
           id="path76"
           inkscape:connector-curvature="0" />
        <path
           d="m 198.9736,162.5898 0.0904,-1.4028 1.961,-30.03 0.0686,-1.0324 1.029,-0.0881 7.7244,-0.6509 1.3451,-0.1165 -0.0403,1.3516 -0.3382,10.4459 8.1122,-0.4229 c 0.1792,-0.0215 0.665,-0.0774 1.3366,-0.0774 1.6146,0 4.6196,0.328 6.671,2.5107 1.5557,1.6523 2.2487,4.0113 2.0602,7.0013 -0.6332,10.0916 -9.2817,10.6704 -10.1613,10.6999 l -18.4592,1.6832 z m 11.3029,-13.932 v 0 l -0.6554,6.0163 c 1.7246,-0.2092 4.4169,-0.5309 5.1627,-0.637 1.7374,-0.2505 3.3364,-0.86 3.2636,-3.6232 -0.0238,-1.0519 -0.3249,-2.264 -2.42,-2.264 -0.3631,0 -0.6202,0.0436 -0.6225,0.0436 l -0.0445,0.009 -0.0547,0.006 z"
           style="fill:#1b1918;fill-rule:evenodd"
           id="path78"
           inkscape:connector-curvature="0" />
      </g>
      <g
         id="Layer1006">
        <path
           d="m 229.9333,135.5141 -1.1622,-3.8755 -5.6528,-18.8467 -18.8317,-3.7653 -3.6595,-0.7313 3.3944,-1.5423 19.6212,-8.909 6.8573,-29.5526 1.3997,-6.0282 0.9581,6.1141 4.5924,29.2583 20.4157,3.0575 3.9784,0.5964 -3.6535,1.6852 -21.6125,9.9521 -5.5015,18.7044 z"
           style="fill:#5f247f;fill-rule:evenodd"
           id="path81"
           inkscape:connector-curvature="0" />
        <path
           d="m 264.3309,140.695 -0.4501,-1.4987 -2.1878,-7.2938 -7.2904,-1.4595 -1.4171,-0.2812 1.3147,-0.5976 7.5943,-3.4478 2.6544,-11.4412 0.5417,-2.3303 0.3685,2.3663 1.779,11.3259 7.905,1.1837 1.5369,0.2291 -1.4159,0.6516 -8.3608,3.8515 -2.1288,7.2411 z"
           style="fill:#5f247f;fill-rule:evenodd"
           id="path83"
           inkscape:connector-curvature="0" />
        <path
           d="m 42.6585,170.8242 0.2333,-1.4136 4.6871,-28.5378 0.1525,-0.9278 0.9397,-0.0763 19.4074,-1.5619 1.3549,-0.1102 -0.0578,1.3603 -0.1636,3.8656 -0.0445,1.052 -1.0477,0.0927 -10.9201,0.9853 -4.042,24.1673 -0.1655,0.9933 -1.006,0.011 -7.8976,0.0828 z"
           style="fill:#5f247f;fill-rule:evenodd"
           id="path85"
           inkscape:connector-curvature="0" />
        <path
           d="m 78.7707,168.8 h -0.0011 c -1.1378,0 -2.3173,-0.0763 -3.5067,-0.2226 -3.3268,-0.4141 -5.7728,-1.8334 -7.2695,-4.2139 -3.2462,-5.1755 -0.6593,-12.9904 -0.5459,-13.3195 0.2505,-0.6531 5.8938,-14.8498 20.4896,-15.5344 0.3938,-0.0207 0.775,-0.0283 1.1469,-0.0283 6.4673,0 9.5454,2.7688 10.9885,5.0916 2.6425,4.2468 1.8632,10.203 0.021,13.9385 -3.2167,6.5185 -9.525,14.2886 -21.3228,14.2886 z m 6.8763,-27.6013 v 0 l -0.0893,0.004 c -4.6394,0.1134 -7.7014,8.17 -8.4875,11.2623 -0.2463,0.8884 -0.7585,5.7623 0.953,8.1973 0.5483,0.7795 1.2348,1.1752 2.1657,1.2449 0.1233,0.008 0.2421,0.0142 0.3597,0.0142 4.9283,0 7.6085,-7.9302 7.8429,-8.6528 0.4286,-2.3992 1.0718,-8.8568 -0.9068,-11.2331 -0.4742,-0.57 -1.0596,-0.8371 -1.8377,-0.8371 z"
           style="fill:#5f247f;fill-rule:evenodd"
           id="path87"
           inkscape:connector-curvature="0" />
        <path
           d="m 107.6923,164.8975 0.2299,-1.4136 3.8914,-23.8615 -7.6314,0.5003 -1.3867,0.0907 0.1083,-1.3836 0.3279,-4.1899 0.0806,-1.0323 1.0346,-0.072 25.6226,-1.7944 1.3913,-0.098 -0.1083,1.3901 -0.3246,4.1876 -0.0807,1.0292 -1.0299,0.0752 -7.9052,0.5842 -3.5615,24.8295 -0.1448,1.019 -1.0299,0.0134 -8.0515,0.1054 z"
           style="fill:#5f247f;fill-rule:evenodd"
           id="path89"
           inkscape:connector-curvature="0" />
        <path
           d="m 130.1323,164.8071 0.2004,-1.5075 4.1323,-31.0646 0.1287,-0.9516 0.9539,-0.0873 20.1835,-1.8484 1.3635,-0.1234 -0.0511,1.3692 -0.1624,4.187 -0.0417,1.0486 -1.042,0.0989 -11.3397,1.1047 -0.7945,6.5304 10.5777,-0.6684 1.4063,-0.0915 -0.1344,1.4051 -0.3793,3.9688 -0.0969,1.0063 -1.0071,0.0774 -11.3573,0.9002 -0.7076,6.342 12.8172,-0.8796 1.3994,-0.0961 -0.1199,1.3998 -0.3815,4.3514 -0.0882,0.9941 -0.9932,0.0984 -22.9567,2.2844 z"
           style="fill:#5f247f;fill-rule:evenodd"
           id="path91"
           inkscape:connector-curvature="0" />
        <path
           d="m 154.1658,160.8732 0.9133,-1.9514 14.2535,-30.3557 0.3095,-0.6618 0.7285,-0.0284 10.1211,-0.4371 0.8819,-0.036 0.3007,0.8317 10.3904,28.8879 0.5451,1.5213 -1.6123,0.0873 -12.1879,0.6531 -0.9156,0.0491 -0.2865,-0.8689 -5.9596,-17.7256 -8.678,18.4547 -0.2877,0.6061 -0.6659,0.0765 -5.712,0.654 z"
           style="fill:#5f247f;fill-rule:evenodd"
           id="path93"
           inkscape:connector-curvature="0" />
        <path
           d="m 194.2089,158.0912 0.0938,-1.402 1.9599,-30.0319 0.0666,-1.0324 1.0332,-0.0862 7.721,-0.6516 1.3484,-0.1134 -0.0425,1.3493 -0.3393,10.4451 8.1148,-0.4207 c 0.1766,-0.023 0.6624,-0.0797 1.3362,-0.0797 1.6124,0 4.6176,0.328 6.6691,2.5104 1.5554,1.6569 2.2496,4.0105 2.0602,7.0047 -0.6321,10.0916 -9.282,10.6693 -10.1616,10.7022 l -18.4592,1.681 z m 11.304,-13.9308 v 0 l -0.6551,6.0159 c 1.7243,-0.2091 4.4223,-0.5309 5.1624,-0.6366 1.7385,-0.2495 3.3398,-0.86 3.2681,-3.6233 -0.0284,-1.0519 -0.3294,-2.2651 -2.4234,-2.2651 -0.3639,0 -0.619,0.0456 -0.6236,0.0456 l -0.0425,0.006 -0.0556,0.009 z"
           style="fill:#5f247f;fill-rule:evenodd"
           id="path95"
           inkscape:connector-curvature="0" />
      </g>
      <g
         id="Layer1007">
        <path
           d="m 3.9233,323.0549 2.289,-5.6552 56.1969,-138.7423 0.4926,-1.2174 1.2895,-0.2432 18.5528,-3.4969 2.4037,-0.4515 0.4119,2.4103 12.369,72.0578 0.4555,2.6589 -2.6903,0.1471 -19.0891,1.078 -2.3,0.1265 -0.2277,-2.2921 -1.2656,-12.8659 -4.8518,7.0055 -2.3457,3.3888 -1.7943,-3.7082 -3.0271,-6.2589 -22.9096,69.4179 -0.3249,0.9887 -0.9442,0.4394 -27.1565,12.6391 z M 70.082,208.8464 v 0 l -4.6162,13.9822 5.9677,-0.2398 z"
           style="fill:#ffffff;fill-rule:evenodd"
           id="path98"
           inkscape:connector-curvature="0" />
        <path
           d="m 117.5759,248.445 -0.2117,-2.5432 -3.354,-40.2568 -11.8729,34.3879 -4.6457,-0.3903 -5.1092,-30.9226 -0.1088,-0.6378 0.2341,-0.6103 12.3679,-32.5349 0.4804,-1.2612 1.3278,-0.2452 18.8212,-3.4968 2.3794,-0.4405 0.4272,2.3817 12.6374,70.7162 0.4345,2.4494 -2.4644,0.3532 -18.8209,2.6915 z"
           style="fill:#ffffff;fill-rule:evenodd"
           id="path100"
           inkscape:connector-curvature="0" />
        <path
           d="m 150.2143,245.686 h -1.9514 -2.4208 -1.9885 l -0.3736,-1.9544 -7.2589,-37.9112 -0.0936,-0.4969 0.1111,-0.496 7.7984,-33.878 0.4196,-1.8105 1.8586,-0.0513 19.6263,-0.5386 2.0625,-0.0556 0.3693,2.0277 4.767,26.221 9.4094,-28.4264 0.5034,-1.527 1.6036,-0.1157 18.5519,-1.3461 2.3629,-0.1701 0.2061,2.3612 6.1849,71.2559 0.203,2.3599 -2.3567,0.2409 -18.8241,1.8803 -2.5531,0.2554 -0.0905,-2.5643 -1.1228,-31.4521 -10.5865,32.9108 -0.4819,1.4967 -1.5676,0.1591 -10.7532,1.076 -2.3187,0.2287 -0.3042,-2.3054 -4.0581,-30.4486 -6.5338,31.1638 z"
           style="fill:#ffffff;fill-rule:evenodd"
           id="path102"
           inkscape:connector-curvature="0" />
        <path
           d="m 221.3982,241.9219 h -1.8836 -2.4211 -2.1645 l -0.2282,-2.156 -4.5672,-43.8267 -0.0601,-0.5888 0.2157,-0.5516 11.5645,-29.039 0.495,-1.2504 1.3288,-0.2313 18.8238,-3.2218 2.1322,-0.3631 0.5865,2.0766 20.7045,73.1373 0.7872,2.7938 -2.8922,0.2551 -21.5098,1.878 -2.2181,0.1953 -0.3632,-2.1997 -2.1387,-13.0099 -4.4331,7.6425 -2.2805,3.9317 -1.9675,-4.0953 -3.5558,-7.4103 -3.5033,14.2047 z m 7.5345,-30.0844 v 0 h 7.1113 l -3.1074,-18.9853 z"
           style="fill:#ffffff;fill-rule:evenodd"
           id="path104"
           inkscape:connector-curvature="0" />
        <path
           d="m 269.4769,241.2266 h -1.8062 l -0.5035,-1.7354 -5.904,-20.372 -0.8991,-3.111 3.244,0.0391 c 3.3772,0 10.3229,-0.7433 13.0274,-3.5524 0.7869,-0.8175 1.1325,-1.7289 1.0891,-2.8647 -0.0439,-1.137 -0.1417,-3.8032 -6.0489,-3.8032 -2.9006,0 -5.6072,0.7041 -5.6344,0.7117 l -3.0141,0.7926 -0.006,-3.1167 v -12.2717 -2.5954 l 2.5968,0.2007 c 0.0414,0.002 0.4184,0.0306 1.0026,0.0306 3.5025,0 6.4193,-0.847 7.7995,-2.2655 0.7793,-0.7965 1.1379,-1.8377 1.1041,-3.1785 -0.0226,-0.8903 -0.0827,-3.2615 -5.4666,-3.2615 -3.9917,0 -7.9704,1.4085 -8.6201,1.8969 l -4.0397,3.5907 0.0697,-5.4309 0.1146,-16.7814 0.015,-1.6274 1.512,-0.5941 c 0.3467,-0.1361 8.5612,-3.3137 17.4464,-3.3137 11.6722,0 19.1174,5.4133 21.5308,15.6486 0.0414,0.1628 2.8318,13.2857 -9.9303,21.3795 6.0562,4.2457 13.0459,12.4036 10.8765,23.5049 -3.255,16.6833 -21.3171,22.0802 -29.556,22.0802 z"
           style="fill:#ffffff;fill-rule:evenodd"
           id="path106"
           inkscape:connector-curvature="0" />
        <path
           d="m 34.4034,203.72 -5.9825,-4.3504 -10.4828,-7.6152 -10.4831,7.6152 -5.9865,4.3504 2.2879,-7.0365 4.0048,-12.3261 -10.4831,-7.615 -5.9876,-4.3475 h 7.3984 12.9594 l 4.004,-12.3231 2.2858,-7.0373 2.2847,7.0373 4.0048,12.3231 h 12.9575 7.4015 l -5.9887,4.3475 -10.4843,7.615 4.004,12.3261 z"
           style="fill:#ffffff;fill-rule:evenodd"
           id="path108"
           inkscape:connector-curvature="0" />
        <path
           d="m 224.6793,98.6941 6.9917,-30.1315 4.7284,30.1315 21.2877,3.1873 -22.1094,10.1812 -5.6543,19.2296 -5.8643,-19.5395 -19.5392,-3.9055 z"
           style="fill:#ffffff;fill-rule:evenodd"
           id="path110"
           inkscape:connector-curvature="0" />
        <path
           d="m 262.2956,126.4436 2.7065,-11.6592 1.8315,11.6592 8.2378,1.235 -8.5581,3.9407 -2.1889,7.4438 -2.2675,-7.5639 -7.5625,-1.5118 z"
           style="fill:#ffffff;fill-rule:evenodd"
           id="path112"
           inkscape:connector-curvature="0" />
        <path
           d="m 44.0775,169.6022 4.6897,-28.5344 19.4082,-1.5642 -0.1655,3.8653 -11.8438,1.0704 -4.1921,25.0824 z"
           style="fill:#ffffff;fill-rule:evenodd"
           id="path114"
           inkscape:connector-curvature="0" />
        <path
           d="m 87.9927,136.7078 c -13.981,0.6594 -19.4074,14.722 -19.4074,14.722 0,0 -4.9051,14.4956 6.8258,15.9543 13.8983,1.7277 20.6425,-7.3996 23.6033,-13.4068 2.9616,-6.0018 2.9616,-17.9271 -11.0217,-17.2695 z m 1.5656,16.8596 v 0 c 0,0 -3.0493,10.0242 -9.4587,9.5389 -5.4283,-0.4105 -4.6054,-9.4569 -4.1947,-10.9363 0,0 3.0424,-12.0082 9.6234,-12.1737 6.5783,-0.1633 4.03,13.5711 4.03,13.5711 z"
           style="fill:#ffffff;fill-rule:evenodd"
           id="path116"
           inkscape:connector-curvature="0" />
        <path
           d="m 104.4297,134.7346 25.626,-1.7952 -0.3257,4.1899 -8.8699,0.652 -3.7009,25.7899 -8.0509,0.1054 4.1354,-25.3513 -9.1411,0.5972 z"
           style="fill:#ffffff;fill-rule:evenodd"
           id="path118"
           inkscape:connector-curvature="0" />
        <path
           d="m 135.6564,132.3955 20.1858,-1.8477 -0.1647,4.1845 -12.2936,1.1991 -1.0902,8.9235 12.0257,-0.7631 -0.3818,3.9722 -12.3488,0.9785 -0.9803,8.761 14.2549,-0.9822 -0.3815,4.3538 -22.9578,2.2847 z"
           style="fill:#ffffff;fill-rule:evenodd"
           id="path120"
           inkscape:connector-curvature="0" />
        <path
           d="m 156.1671,159.434 14.2526,-30.3568 10.1211,-0.4359 10.3912,28.8895 -12.1844,0.652 -6.912,-20.5651 -9.9556,21.1635 z"
           style="fill:#ffffff;fill-rule:evenodd"
           id="path122"
           inkscape:connector-curvature="0" />
        <path
           d="m 214.2725,137.3453 -9.4683,0.4893 0.3838,-11.7493 -7.7275,0.6525 -1.9599,30.0302 18.498,-1.6854 c 0,0 8.4328,0 9.0335,-9.5752 0.5987,-9.576 -8.7596,-8.1621 -8.7596,-8.1621 z m -4.0811,13.3835 v 0 c -1.1435,0.1639 -6.692,0.8155 -6.692,0.8155 l 0.9255,-8.4849 5.603,-0.5451 c 0,0 4.3526,-0.8175 4.4614,3.3738 0.108,4.1879 -3.1544,4.6786 -4.2979,4.8407 z"
           style="fill:#ffffff;fill-rule:evenodd"
           id="path124"
           inkscape:connector-curvature="0" />
      </g>
      <g
         id="Layer1008">
        <path
           d="M 95.5586,248.1213 83.1911,176.0632 64.6395,179.56 8.4437,318.2989 l 27.1577,-12.6357 24.7682,-75.0558 5.6138,11.6003 8.5787,-12.3894 1.9066,19.3787 z m -33.459,-22.7517 v 0 l 9.26,-28.067 2.7153,27.5905 z"
           style="fill:#e30016;fill-rule:evenodd"
           id="path127"
           inkscape:connector-curvature="0" />
        <path
           d="m 94.7564,208.3266 12.3668,-32.5338 18.8209,-3.4926 12.6368,70.7119 -18.8206,2.6901 -4.3024,-51.626 -15.5943,45.1729 z"
           style="fill:#e30016;fill-rule:evenodd"
           id="path129"
           inkscape:connector-curvature="0" />
        <path
           d="m 138.582,205.3703 7.7996,-33.8791 19.6254,-0.5395 6.453,35.4943 12.3687,-37.3748 18.5519,-1.3473 6.1838,71.254 -18.8186,1.8844 -1.6144,-45.1737 -14.7875,45.9808 -10.7569,1.0734 -5.9156,-44.3642 -9.4093,44.9025 h -2.42 z"
           style="fill:#e30016;fill-rule:evenodd"
           id="path131"
           inkscape:connector-curvature="0" />
        <path
           d="m 242.9089,163.4238 -18.8249,3.2286 -11.5599,29.0362 4.5694,43.8264 h 2.4211 l 5.1069,-20.702 6.4553,13.4456 7.7973,-13.4456 3.2241,19.6294 21.5099,-1.8825 z m -16.9401,50.8184 v 0 l 6.1829,-29.3083 1.8802,-0.2681 4.8422,29.5764 z"
           style="fill:#e30016;fill-rule:evenodd"
           id="path133"
           inkscape:connector-curvature="0" />
        <path
           d="m 259.9902,164.1662 c 0,0 30.4356,-11.9231 35.7571,10.6486 0,0 3.1286,13.7741 -12.494,20.7176 0,0 16.4316,7.7547 13.4206,23.1497 -3.0084,15.3927 -20.0188,20.141 -27.1936,20.141 l -5.9037,-20.3743 c 0,0 16.8948,0.2333 16.5504,-8.9113 -0.3467,-9.1423 -14.6974,-5.3229 -14.6974,-5.3229 v -12.2717 c 0,0 12.7287,1.0431 12.4977,-7.8693 -0.2291,-8.911 -15.9693,-4.9771 -18.057,-3.126 z"
           style="fill:#e30016;fill-rule:evenodd"
           id="path135"
           inkscape:connector-curvature="0" />
        <path
           d="m 17.9381,160.8119 4.5445,13.9856 h 14.7025 l -11.8956,8.642 4.5442,13.9842 -11.8956,-8.642 -11.897,8.642 4.5445,-13.9842 -11.8967,-8.642 h 14.7047 z"
           style="fill:#e30016;fill-rule:evenodd"
           id="path137"
           inkscape:connector-curvature="0" />
      </g>
    </g>
  </g>
</svg>
