<?xml version="1.0" encoding="UTF-8" standalone="no"?>
<!-- Created with Inkscape (http://www.inkscape.org/) -->

<svg
   xmlns:dc="http://purl.org/dc/elements/1.1/"
   xmlns:cc="http://creativecommons.org/ns#"
   xmlns:rdf="http://www.w3.org/1999/02/22-rdf-syntax-ns#"
   xmlns:svg="http://www.w3.org/2000/svg"
   xmlns="http://www.w3.org/2000/svg"
   xmlns:sodipodi="http://sodipodi.sourceforge.net/DTD/sodipodi-0.dtd"
   xmlns:inkscape="http://www.inkscape.org/namespaces/inkscape"
   width="300"
   height="157.758"
   viewBox="0 0 79.374998 41.740138"
   version="1.1"
   id="svg5456"
   inkscape:version="0.92.1 r15371"
   sodipodi:docname="almaz_plus_old.svg">
  <defs
     id="defs5450" />
  <sodipodi:namedview
     id="base"
     pagecolor="#ffffff"
     bordercolor="#666666"
     borderopacity="1.0"
     inkscape:pageopacity="0.0"
     inkscape:pageshadow="2"
     inkscape:zoom="0.35"
     inkscape:cx="-87.142857"
     inkscape:cy="560"
     inkscape:document-units="mm"
     inkscape:current-layer="layer1"
     showgrid="false"
     units="px"
     inkscape:window-width="1366"
     inkscape:window-height="706"
     inkscape:window-x="-8"
     inkscape:window-y="-8"
     inkscape:window-maximized="1" />
  <metadata
     id="metadata5453">
    <rdf:RDF>
      <cc:Work
         rdf:about="">
        <dc:format>image/svg+xml</dc:format>
        <dc:type
           rdf:resource="http://purl.org/dc/dcmitype/StillImage" />
        <dc:title></dc:title>
      </cc:Work>
    </rdf:RDF>
  </metadata>
  <g
     inkscape:label="Layer 1"
     inkscape:groupmode="layer"
     id="layer1"
     transform="translate(0,-255.25985)">
    <g
       transform="matrix(0.17715072,0,0,0.17715072,-63.238591,244.22997)"
       id="Layer1009">
      <path
         d="m 375.4382,297.8821 2.0251,-5.0003 49.6803,-122.6569 0.4357,-1.0777 1.1432,-0.2151 16.3976,-3.0921 2.1271,-0.3999 0.362,2.1311 10.9374,63.7075 0.4046,2.3459 -2.3803,0.1361 -16.8752,0.947 -2.0347,0.1149 -0.2001,-2.0308 -1.1214,-11.3692 -4.2883,6.1895 -2.0744,2.9968 -1.5879,-3.2797 -2.6754,-5.5282 -20.2521,61.3667 -0.2857,0.8737 -0.8343,0.3863 -24.0108,11.1733 z m 58.4881,-100.9724 v 0 l -4.081,12.3628 5.2787,-0.2095 z"
         style="fill:#1b1918;fill-rule:evenodd"
         id="path141"
         inkscape:connector-curvature="0" />
      <path
         d="m 475.9123,231.9207 -0.1851,-2.2481 -2.9628,-35.5907 -10.4995,30.4001 -4.1057,-0.3427 -4.5171,-27.3359 -0.0924,-0.5686 0.2038,-0.536 10.9378,-28.7592 0.4164,-1.1186 1.1758,-0.2177 16.6414,-3.0894 2.107,-0.389 0.3741,2.1065 11.1731,62.5124 0.3849,2.1668 -2.1798,0.3155 -16.6385,2.3735 z"
         style="fill:#1b1918;fill-rule:evenodd"
         id="path143"
         inkscape:connector-curvature="0" />
      <path
         d="m 504.7704,229.4846 h -1.7269 -2.1407 -1.7558 l -0.3334,-1.7283 -6.4125,-33.5165 -0.087,-0.4411 0.1006,-0.4328 6.8919,-29.9537 0.3713,-1.6059 1.6427,-0.0433 17.3531,-0.474 1.8221,-0.0487 0.3255,1.7963 4.2105,23.1763 8.3194,-25.1334 0.4491,-1.3419 1.4178,-0.1088 16.3965,-1.1895 2.0917,-0.1525 0.1814,2.0906 5.4694,62.9886 0.1795,2.0878 -2.0835,0.2151 -16.6414,1.6657 -2.2549,0.223 -0.0816,-2.2617 -0.9961,-27.8116 -9.3538,29.0937 -0.4246,1.3252 -1.3867,0.1417 -9.5074,0.9499 -2.0498,0.2044 -0.2747,-2.0361 -3.5846,-26.9244 -5.7745,27.5531 z"
         style="fill:#1b1918;fill-rule:evenodd"
         id="path145"
         inkscape:connector-curvature="0" />
      <path
         d="m 567.6981,226.1534 h -1.6614 -2.1396 -1.9176 l -0.1987,-1.9055 -4.0405,-38.7453 -0.0533,-0.5228 0.1922,-0.4872 10.2245,-25.6694 0.4383,-1.1078 1.1729,-0.2013 16.6414,-2.8553 1.8836,-0.3184 0.5213,1.8397 18.3027,64.6574 0.6957,2.4687 -2.5546,0.226 -19.0216,1.6602 -1.9599,0.1687 -0.3198,-1.9378 -1.8943,-11.5053 -3.9167,6.7584 -2.014,3.473 -1.7407,-3.6173 -3.1448,-6.5517 -3.0952,12.5586 z m 6.6631,-26.5981 v 0 h 6.2858 l -2.749,-16.7825 z"
         style="fill:#1b1918;fill-rule:evenodd"
         id="path147"
         inkscape:connector-curvature="0" />
      <path
         d="m 610.2064,225.5408 h -1.6004 l -0.4451,-1.535 -5.2151,-18.0133 -0.8003,-2.7462 2.8701,0.0326 c 2.9818,0 9.125,-0.6559 11.5189,-3.1411 0.6916,-0.7214 0.9989,-1.5295 0.9624,-2.5313 -0.0394,-1.0097 -0.1268,-3.3613 -5.3499,-3.3613 -2.5639,0 -4.9535,0.6233 -4.9756,0.6261 l -2.6717,0.7022 -8e-4,-2.7547 v -10.8465 -2.2998 l 2.2943,0.1823 c 0.0394,0 0.37,0.0218 0.8847,0.0218 3.0957,0 5.675,-0.7486 6.897,-2.0007 0.686,-0.7021 1.0043,-1.6248 0.976,-2.8116 -0.019,-0.7867 -0.0737,-2.8823 -4.8357,-2.8823 -3.526,0 -7.0412,1.2464 -7.6169,1.6792 l -3.5708,3.1683 0.0584,-4.7931 0.1048,-14.8368 0.005,-1.4426 1.3448,-0.5252 c 0.3033,-0.1171 7.5654,-2.9259 15.4244,-2.9259 10.3176,0 16.9016,4.7848 19.0367,13.8325 0.0397,0.144 2.5055,11.747 -8.7849,18.9002 5.3567,3.7534 11.5325,10.9662 9.6191,20.7757 -2.8825,14.7524 -18.8501,19.5265 -26.1295,19.5265 z"
         style="fill:#1b1918;fill-rule:evenodd"
         id="path149"
         inkscape:connector-curvature="0" />
      <path
         d="m 409.3962,162.212 0.2009,-1.2442 4.1468,-25.2311 0.1364,-0.8221 0.8286,-0.0626 17.1586,-1.3856 1.1962,-0.0978 -0.0476,1.2059 -0.1457,3.4129 -0.0394,0.9309 -0.9295,0.0844 -9.6516,0.8683 -3.5737,21.3693 -0.1474,0.8761 -0.8855,0.008 -6.9818,0.0732 z"
         style="fill:#1b1918;fill-rule:evenodd"
         id="path151"
         inkscape:connector-curvature="0" />
      <path
         d="m 441.3219,160.4264 c -0.004,0 -0.004,0 -0.004,0 -1.0058,0 -2.0498,-0.068 -3.1003,-0.1987 -2.9395,-0.3648 -5.1021,-1.6197 -6.4236,-3.7261 -2.8686,-4.5754 -0.5836,-11.4835 -0.4804,-11.7695 0.2165,-0.5825 5.2069,-13.1329 18.1114,-13.7423 0.3483,-0.0136 0.6831,-0.0165 1.0125,-0.0165 5.7169,0 8.4404,2.4441 9.7155,4.4966 2.3354,3.7559 1.6466,9.023 0.0164,12.3217 -2.8432,5.7622 -8.4186,12.6348 -18.8473,12.6348 z m 6.075,-24.4043 v 0 h -0.0777 c -4.1003,0.1035 -6.8074,7.2295 -7.4985,9.9649 -0.2205,0.7838 -0.6735,5.0899 0.8385,7.2425 0.4827,0.6917 1.0927,1.0455 1.9148,1.1053 0.1074,0.003 0.2123,0.008 0.3169,0.008 4.3563,0 6.7297,-7.0118 6.9352,-7.6459 0.3799,-2.1232 0.946,-7.8307 -0.8041,-9.9349 -0.4167,-0.5062 -0.938,-0.7404 -1.6251,-0.7404 z"
         style="fill:#1b1918;fill-rule:evenodd"
         id="path153"
         inkscape:connector-curvature="0" />
      <path
         d="m 466.885,156.975 0.2044,-1.2518 3.443,-21.0889 -6.7473,0.4354 -1.2235,0.0788 0.0953,-1.2195 0.2871,-3.7015 0.0735,-0.9201 0.9119,-0.0595 22.6539,-1.5871 1.2313,-0.0871 -0.0952,1.2274 -0.2911,3.7046 -0.0709,0.9145 -0.9102,0.0626 -6.9868,0.5199 -3.1507,21.9461 -0.1293,0.9037 -0.9079,0.008 -7.119,0.0953 z"
         style="fill:#1b1918;fill-rule:evenodd"
         id="path155"
         inkscape:connector-curvature="0" />
      <path
         d="m 486.7276,156.8933 0.1743,-1.3308 3.6553,-27.4635 0.1114,-0.841 0.8453,-0.0788 17.8443,-1.6334 1.2056,-0.1085 -0.0462,1.2084 -0.1426,3.7046 -0.0397,0.9224 -0.9201,0.0924 -10.0219,0.9774 -0.7061,5.7758 9.3524,-0.5964 1.2449,-0.0788 -0.1207,1.241 -0.3362,3.5088 -0.0831,0.8926 -0.89,0.0626 -10.0438,0.8028 -0.6287,5.6015 11.3338,-0.7784 1.2399,-0.0816 -0.1103,1.2388 -0.3337,3.8454 -0.0759,0.8768 -0.8779,0.0867 -20.2995,2.0225 z"
         style="fill:#1b1918;fill-rule:evenodd"
         id="path157"
         inkscape:connector-curvature="0" />
      <path
         d="m 507.9712,153.4149 0.8113,-1.7229 12.5966,-26.8373 0.275,-0.5853 0.6477,-0.0218 8.9467,-0.3867 0.777,-0.0297 0.2681,0.7293 9.182,25.5419 0.4862,1.3444 -1.425,0.0763 -10.7742,0.58 -0.8127,0.0408 -0.2531,-0.7676 -5.2654,-15.6722 -7.6757,16.3116 -0.2528,0.5364 -0.5854,0.0737 -5.0558,0.5768 z"
         style="fill:#1b1918;fill-rule:evenodd"
         id="path159"
         inkscape:connector-curvature="0" />
      <path
         d="m 543.3743,150.9598 0.0819,-1.2412 1.7348,-26.5488 0.0587,-0.9144 0.9105,-0.0766 6.8292,-0.574 1.188,-0.1009 -0.0369,1.1923 -0.2979,9.235 7.1691,-0.3754 c 0.1582,-0.0192 0.5936,-0.068 1.1869,-0.068 1.4261,0 4.0816,0.2886 5.898,2.221 1.3734,1.4589 1.9843,3.5438 1.817,6.192 -0.5592,8.9166 -8.2023,9.4311 -8.9807,9.4529 l -16.3216,1.4891 z m 9.9961,-12.319 v 0 l -0.58,5.3183 c 1.5259,-0.1876 3.9019,-0.468 4.5618,-0.5607 1.5381,-0.2202 2.9506,-0.7619 2.8854,-3.2062 -0.0204,-0.9309 -0.2872,-2.0007 -2.1368,-2.0007 -0.3237,0 -0.5499,0.0411 -0.5499,0.0411 l -0.042,0.005 -0.0504,0.008 z"
         style="fill:#1b1918;fill-rule:evenodd"
         id="path161"
         inkscape:connector-curvature="0" />
      <path
         d="m 405.1839,158.2378 0.2055,-1.2521 4.1454,-25.2258 0.1346,-0.822 0.8317,-0.068 17.1556,-1.3828 1.2004,-0.0924 -0.0544,1.203 -0.1443,3.4129 -0.0382,0.9309 -0.9267,0.0845 -9.6531,0.8711 -3.575,21.3664 -0.1455,0.8765 -0.8917,0.005 -6.9787,0.0734 z"
         style="fill:#5f247f;fill-rule:evenodd"
         id="path163"
         inkscape:connector-curvature="0" />
      <path
         d="m 437.1082,156.4497 c -1.0054,0 -2.048,-0.068 -3.0988,-0.1959 -2.9421,-0.3702 -5.1046,-1.6194 -6.4301,-3.7289 -2.8676,-4.5729 -0.5797,-11.4835 -0.4808,-11.7749 0.2234,-0.5768 5.2112,-13.1247 18.1143,-13.7341 0.3495,-0.0165 0.6845,-0.0219 1.0136,-0.0219 5.7201,0 8.4419,2.4469 9.7172,4.4992 2.3352,3.7562 1.6438,9.0176 0.0161,12.3245 -2.8414,5.7622 -8.42,12.632 -18.8515,12.632 z m 6.0806,-24.4066 v 0 l -0.0799,0.008 c -4.0992,0.098 -6.8088,7.2209 -7.5045,9.9566 -0.2137,0.7867 -0.6692,5.095 0.8439,7.2454 0.4845,0.6914 1.0914,1.0372 1.916,1.1024 0.1091,0.008 0.214,0.0108 0.3172,0.0108 4.3537,0 6.7243,-7.0112 6.9341,-7.6482 0.3781,-2.1231 0.9456,-7.8307 -0.8031,-9.9292 -0.4192,-0.5037 -0.9337,-0.7458 -1.6237,-0.7458 z"
         style="fill:#5f247f;fill-rule:evenodd"
         id="path165"
         inkscape:connector-curvature="0" />
      <path
         d="m 462.6759,152.9982 0.2069,-1.2517 3.439,-21.089 -6.7487,0.4357 -1.226,0.0817 0.0964,-1.2252 0.2897,-3.6986 0.0723,-0.9173 0.9144,-0.0626 22.6528,-1.5843 1.2288,-0.0899 -0.0941,1.2331 -0.2897,3.7017 -0.0666,0.9091 -0.9148,0.0652 -6.9868,0.5173 -3.1464,21.949 -0.1307,0.9062 -0.9119,0.008 -7.1161,0.0924 z"
         style="fill:#5f247f;fill-rule:evenodd"
         id="path167"
         inkscape:connector-curvature="0" />
      <path
         d="m 482.5181,152.9223 0.1755,-1.3366 3.653,-27.466 0.1128,-0.8385 0.845,-0.0759 17.8433,-1.6334 1.2055,-0.1085 -0.0448,1.2084 -0.1457,3.7015 -0.0354,0.9255 -0.9201,0.0873 -10.0256,0.9771 -0.7038,5.773 9.3509,-0.5907 1.2424,-0.0791 -0.1156,1.2438 -0.3331,3.5088 -0.0887,0.8844 -0.8915,0.0708 -10.0381,0.7974 -0.6273,5.6044 11.3324,-0.7758 1.2356,-0.0871 -0.106,1.2385 -0.3362,3.8489 -0.0791,0.8762 -0.879,0.0873 -20.2941,2.0222 z"
         style="fill:#5f247f;fill-rule:evenodd"
         id="path169"
         inkscape:connector-curvature="0" />
      <path
         d="m 503.7663,149.441 0.8039,-1.7257 12.5995,-26.8373 0.2738,-0.5851 0.6449,-0.0218 8.9495,-0.3866 0.7798,-0.0326 0.2654,0.7347 9.1862,25.539 0.4802,1.3422 -1.4233,0.0788 -10.7756,0.5769 -0.8102,0.0437 -0.2542,-0.7648 -5.2696,-15.6722 -7.67,16.3117 -0.2546,0.5363 -0.5907,0.068 -5.0502,0.5797 z"
         style="fill:#5f247f;fill-rule:evenodd"
         id="path171"
         inkscape:connector-curvature="0" />
      <path
         d="m 539.1648,146.9831 0.0817,-1.2413 1.7297,-26.5487 0.064,-0.9116 0.9119,-0.0788 6.8239,-0.5746 1.1948,-0.1006 -0.0397,1.1919 -0.3019,9.2353 7.1759,-0.3727 c 0.1582,-0.0165 0.5854,-0.0709 1.1829,-0.0709 1.4247,0 4.0799,0.2886 5.8941,2.2209 1.3731,1.4644 1.9882,3.5414 1.8221,6.1898 -0.5565,8.922 -8.206,9.4339 -8.9833,9.4609 l -16.3173,1.4862 z m 9.9921,-12.3191 v 0 l -0.5768,5.3187 c 1.5228,-0.1851 3.9081,-0.4658 4.5615,-0.5635 1.5378,-0.2206 2.9534,-0.7595 2.8894,-3.2035 -0.0261,-0.9283 -0.29,-2.0007 -2.1433,-2.0007 -0.3215,0 -0.546,0.0408 -0.5514,0.0408 l -0.034,0.005 -0.0516,0.0108 z"
         style="fill:#5f247f;fill-rule:evenodd"
         id="path173"
         inkscape:connector-curvature="0" />
      <path
         d="m 370.9377,292.8194 2.0265,-5.0029 49.6817,-122.6542 0.4354,-1.0749 1.1403,-0.218 16.4007,-3.0895 2.1272,-0.3997 0.3594,2.1337 10.9389,63.6993 0.4028,2.3541 -2.3789,0.1253 -16.8769,0.9581 -2.0333,0.1092 -0.2026,-2.0254 -1.1174,-11.3746 -4.2883,6.1923 -2.0738,2.9996 -1.5871,-3.2799 -2.6754,-5.5389 -20.2547,61.372 -0.2868,0.8737 -0.8345,0.392 -24.0078,11.173 z m 58.4912,-100.9695 v 0 l -4.0802,12.3653 5.275,-0.2123 z"
         style="fill:#ffffff;fill-rule:evenodd"
         id="path175"
         inkscape:connector-curvature="0" />
      <path
         d="m 471.4157,226.858 -0.1866,-2.2481 -2.965,-35.5881 -10.4995,30.4004 -4.102,-0.343 -4.5224,-27.3407 -0.095,-0.5635 0.2081,-0.5392 10.9335,-28.7614 0.4257,-1.1132 1.1747,-0.2205 16.6374,-3.0949 2.1039,-0.3864 0.377,2.1067 11.173,62.5179 0.3824,2.1639 -2.1761,0.313 -16.64,2.3817 z"
         style="fill:#ffffff;fill-rule:evenodd"
         id="path177"
         inkscape:connector-curvature="0" />
      <path
         d="m 500.2715,224.4169 h -1.7272 -2.1381 -1.7567 l -0.3336,-1.7258 -6.4179,-33.514 -0.0819,-0.4411 0.0966,-0.4408 6.8973,-29.9454 0.3716,-1.6033 1.641,-0.0437 17.3517,-0.4765 1.8213,-0.0516 0.3262,1.7935 4.2149,23.182 8.3194,-25.1308 0.4464,-1.347 1.4154,-0.1063 16.4029,-1.1892 2.0892,-0.1496 0.1822,2.0874 5.4641,62.9943 0.1837,2.0878 -2.0875,0.2123 -16.6413,1.6628 -2.2553,0.2259 -0.0802,-2.27 -0.9918,-27.8011 -9.358,29.0912 -0.4258,1.3226 -1.3895,0.1417 -9.5046,0.9499 -2.0495,0.2072 -0.2681,-2.0389 -3.5875,-26.919 -5.7785,27.5505 z"
         style="fill:#ffffff;fill-rule:evenodd"
         id="path179"
         inkscape:connector-curvature="0" />
      <path
         d="m 563.1989,221.0935 h -1.6659 -2.1367 -1.9163 l -0.2024,-1.9083 -4.0354,-38.7479 -0.053,-0.5145 0.1919,-0.4926 10.2221,-25.6723 0.4365,-1.1024 1.1747,-0.2041 16.641,-2.8499 1.8865,-0.3209 0.5184,1.8368 18.3031,64.6575 0.6981,2.4715 -2.5571,0.2259 -19.0188,1.6603 -1.9596,0.1686 -0.3214,-1.946 -1.8901,-11.4998 -3.9195,6.7583 -2.0171,3.4759 -1.7348,-3.6202 -3.1465,-6.5514 -3.0949,12.5586 z m 6.6614,-26.598 v 0 h 6.2864 l -2.7464,-16.7828 z"
         style="fill:#ffffff;fill-rule:evenodd"
         id="path181"
         inkscape:connector-curvature="0" />
      <path
         d="m 605.7059,220.4809 h -1.5965 l -0.449,-1.5377 -5.2163,-18.0105 -0.796,-2.7491 2.8672,0.0326 c 2.9883,0 9.1265,-0.6559 11.5189,-3.1354 0.6968,-0.7293 1.0026,-1.5352 0.9621,-2.537 -0.0354,-1.0069 -0.125,-3.361 -5.3473,-3.361 -2.5653,0 -4.9589,0.623 -4.9822,0.6284 l -2.6631,0.6996 -0.006,-2.7547 v -10.8465 -2.2972 l 2.2947,0.1797 c 0.0365,0 0.3702,0.0272 0.8872,0.0272 3.0935,0 5.6738,-0.7511 6.8958,-2.006 0.6886,-0.7047 1.0058,-1.622 0.9743,-2.8089 -0.019,-0.7863 -0.0731,-2.8825 -4.8314,-2.8825 -3.5285,0 -7.0452,1.2466 -7.6209,1.6769 l -3.5711,3.1737 0.0627,-4.8042 0.1006,-14.8339 0.0136,-1.4347 1.3365,-0.5252 c 0.3065,-0.1225 7.5694,-2.9313 15.4233,-2.9313 10.3199,0 16.9053,4.7823 19.0378,13.8379 0.0369,0.1358 2.503,11.7419 -8.7795,18.8977 5.3555,3.7534 11.5339,10.9636 9.6126,20.7785 -2.8757,14.7467 -18.8436,19.5236 -26.1283,19.5236 z"
         style="fill:#ffffff;fill-rule:evenodd"
         id="path183"
         inkscape:connector-curvature="0" />
      <g
         id="Layer1010">
        <path
           d="m 583.7541,132.5684 -1.029,-3.4268 -4.9997,-16.6629 -16.6457,-3.3265 -3.2317,-0.6502 2.999,-1.3612 17.341,-7.877 6.0684,-26.1241 1.237,-5.3294 0.845,5.4054 4.0584,25.8659 18.0485,2.7025 3.5209,0.531 -3.2324,1.4862 -19.1061,8.7996 -4.8636,16.5325 z"
           style="fill:#1b1918;fill-rule:evenodd"
           id="path185"
           inkscape:connector-curvature="0" />
        <path
           d="m 579.3899,127.0238 -1.029,-3.4296 -4.9947,-16.6601 -16.6481,-3.3287 -3.2361,-0.6455 2.9994,-1.366 17.3477,-7.8772 6.0628,-26.1215 1.237,-5.332 0.8479,5.4057 4.0595,25.8684 18.0473,2.7025 3.5178,0.5228 -3.2307,1.4941 -19.1043,8.797 -4.8668,16.5379 z"
           style="fill:#5f247f;fill-rule:evenodd"
           id="path187"
           inkscape:connector-curvature="0" />
        <path
           d="m 574.7476,94.4736 6.1784,-26.6414 4.1822,26.6414 18.8175,2.8142 -19.5469,9.0011 -4.9986,17.0008 -5.1823,-17.2757 -17.2743,-3.4537 z"
           style="fill:#ffffff;fill-rule:evenodd"
           id="path189"
           inkscape:connector-curvature="0" />
      </g>
      <g
         id="Layer1011">
        <path
           d="m 628.1812,140.3583 -0.3971,-1.3258 -1.9338,-6.4508 -6.4469,-1.2818 -1.2478,-0.2503 1.1608,-0.5281 6.7108,-3.0538 2.3462,-10.1092 0.4802,-2.063 0.3254,2.0902 1.5746,10.0165 6.9829,1.0452 1.3677,0.2043 -1.2549,0.5715 -7.395,3.4075 -1.8808,6.3993 z"
           style="fill:#1b1918;fill-rule:evenodd"
           id="path192"
           inkscape:connector-curvature="0" />
        <path
           d="m 623.6752,135.5785 -0.3985,-1.328 -1.9327,-6.4455 -6.4465,-1.2928 -1.2535,-0.2503 1.1608,-0.5253 6.7175,-3.0487 2.3437,-10.1114 0.4805,-2.0631 0.3263,2.0903 1.5706,10.0134 6.9897,1.0508 1.3581,0.1987 -1.2532,0.5768 -7.3885,3.4053 -1.8819,6.3989 z"
           style="fill:#5f247f;fill-rule:evenodd"
           id="path194"
           inkscape:connector-curvature="0" />
        <path
           d="m 621.8761,122.9791 2.3939,-10.3074 1.6154,10.3074 7.2836,1.0916 -7.5668,3.4812 -1.9349,6.5815 -2.0047,-6.6875 -6.6821,-1.3365 z"
           style="fill:#ffffff;fill-rule:evenodd"
           id="path196"
           inkscape:connector-curvature="0" />
      </g>
      <g
         id="Layer1012">
        <path
           d="m 784.7472,179.7703 -0.7407,-2.4604 -3.5926,-11.9872 -11.9761,-2.3924 -2.3216,-0.4626 2.1583,-0.9854 12.4741,-5.6613 4.3549,-18.7889 0.8926,-3.8353 0.6072,3.8872 2.9231,18.6063 12.975,1.9463 2.5396,0.3756 -2.3273,1.0698 -13.7398,6.328 -3.4945,11.8919 z"
           style="fill:#1b1918;fill-rule:evenodd"
           id="path199"
           inkscape:connector-curvature="0" />
        <path
           d="m 776.3773,170.8834 -0.7404,-2.4633 -3.598,-11.9815 -11.9764,-2.4003 -2.3244,-0.4604 2.1529,-0.9796 12.4824,-5.6639 4.3605,-18.7974 0.8901,-3.8242 0.6041,3.8871 2.9205,18.6035 12.9861,1.9409 2.5231,0.381 -2.3244,1.0698 -13.7344,6.3309 -3.4977,11.889 z"
           style="fill:#5f247f;fill-rule:evenodd"
           id="path201"
           inkscape:connector-curvature="0" />
        <path
           d="m 773.0268,147.4758 4.4504,-19.1588 3.0075,19.1588 13.5304,2.0251 -14.0588,6.4726 -3.5929,12.2289 -3.7284,-12.4251 -12.42,-2.4848 z"
           style="fill:#ffffff;fill-rule:evenodd"
           id="path203"
           inkscape:connector-curvature="0" />
      </g>
      <path
         d="m 406.4399,157.1572 4.1454,-25.226 17.1573,-1.3822 -0.1469,3.4154 -10.4697,0.9502 -3.7044,22.1749 z"
         style="fill:#ffffff;fill-rule:evenodd"
         id="path206"
         inkscape:connector-curvature="0" />
      <path
         d="m 445.2615,128.0746 c -12.3582,0.5879 -17.157,13.0187 -17.157,13.0187 0,0 -4.3373,12.8115 6.0356,14.1015 12.2865,1.527 18.2488,-6.5407 20.8644,-11.8508 2.6198,-5.3022 2.6198,-15.8494 -9.743,-15.2694 z m 1.3856,14.9074 v 0 c 0,0 -2.696,8.8625 -8.3616,8.4351 -4.7971,-0.3677 -4.0732,-8.3642 -3.7086,-9.671 0,0 2.6895,-10.6152 8.5087,-10.7592 5.8136,-0.1471 3.5615,11.9951 3.5615,11.9951 z"
         style="fill:#ffffff;fill-rule:evenodd"
         id="path208"
         inkscape:connector-curvature="0" />
      <path
         d="m 459.7933,126.3327 22.6525,-1.5871 -0.2871,3.7043 -7.839,0.5774 -3.2742,22.8005 -7.1161,0.0899 3.6552,-22.4116 -8.0796,0.5309 z"
         style="fill:#ffffff;fill-rule:evenodd"
         id="path210"
         inkscape:connector-curvature="0" />
      <path
         d="m 487.3982,124.2612 17.8458,-1.6331 -0.144,3.7018 -10.8683,1.0613 -0.9623,7.888 10.6316,-0.675 -0.339,3.5141 -10.9188,0.8626 -0.864,7.7463 12.6023,-0.8709 -0.3405,3.8515 -20.2941,2.0197 z"
         style="fill:#ffffff;fill-rule:evenodd"
         id="path212"
         inkscape:connector-curvature="0" />
      <path
         d="m 505.5326,148.1672 12.602,-26.8348 8.9456,-0.3864 9.1862,25.5391 -10.7717,0.5771 -6.1106,-18.1791 -8.801,18.7098 z"
         style="fill:#ffffff;fill-rule:evenodd"
         id="path214"
         inkscape:connector-curvature="0" />
      <path
         d="m 556.9003,128.6379 -8.3695,0.4328 0.339,-10.3867 -6.8318,0.5771 -1.7311,26.5516 16.3514,-1.4941 c 0,0 7.4551,0 7.9872,-8.4649 0.5252,-8.4625 -7.7452,-7.2158 -7.7452,-7.2158 z m -3.6062,11.8346 v 0 c -1.0111,0.1468 -5.9187,0.7214 -5.9187,0.7214 l 0.8209,-7.5016 4.9535,-0.4841 c 0,0 3.8475,-0.7215 3.9413,2.9854 0.0978,3.7021 -2.7884,4.1346 -3.797,4.2789 z"
         style="fill:#ffffff;fill-rule:evenodd"
         id="path216"
         inkscape:connector-curvature="0" />
      <path
         d="m 451.9533,226.5723 -10.9364,-63.7018 -16.4018,3.0866 -49.6777,122.6571 24.0083,-11.1705 21.8956,-66.3531 4.9632,10.2532 7.5832,-10.9499 1.6833,17.1283 z M 422.3709,206.458 v 0 l 8.1862,-24.8123 2.4004,24.393 z"
         style="fill:#e30016;fill-rule:evenodd"
         id="path218"
         inkscape:connector-curvature="0" />
      <path
         d="m 451.2429,191.3901 10.9324,-28.7592 16.6371,-3.0863 11.173,62.5124 -16.6385,2.3788 -3.8038,-45.6397 -13.786,39.9319 z"
         style="fill:#e30016;fill-rule:evenodd"
         id="path220"
         inkscape:connector-curvature="0" />
      <path
         d="m 489.9883,188.7797 6.893,-29.9512 17.3477,-0.4787 5.7062,31.3772 10.9352,-33.0378 16.4015,-1.1922 5.4672,62.9915 -16.6388,1.6631 -1.4264,-39.9323 -13.0714,40.6508 -9.5102,0.9499 -5.23,-39.2244 -8.318,39.6978 h -2.1381 z"
         style="fill:#e30016;fill-rule:evenodd"
         id="path222"
         inkscape:connector-curvature="0" />
      <path
         d="m 582.2177,151.6949 -16.6428,2.8522 -10.2192,25.6722 4.0406,38.7457 h 2.1367 l 4.5167,-18.3045 5.7067,11.8891 6.8905,-11.8891 2.8551,17.3571 19.0133,-1.663 z m -14.9754,44.9291 v 0 l 5.4623,-25.9118 1.6645,-0.237 4.2778,26.1488 z"
         style="fill:#e30016;fill-rule:evenodd"
         id="path224"
         inkscape:connector-curvature="0" />
      <path
         d="m 597.3156,152.3534 c 0,0 26.911,-10.5415 31.6196,9.4118 0,0 2.7615,12.1805 -11.0506,18.3155 0,0 14.5307,6.8565 11.8659,20.4682 -2.6592,13.6065 -17.7001,17.801 -24.0421,17.801 l -5.2189,-18.0105 c 0,0 14.9375,0.2095 14.6339,-7.8772 -0.3104,-8.0839 -12.994,-4.7061 -12.994,-4.7061 v -10.8465 c 0,0 11.2493,0.923 11.0452,-6.9571 -0.203,-7.8794 -14.1183,-4.401 -15.9625,-2.7652 z"
         style="fill:#e30016;fill-rule:evenodd"
         id="path226"
         inkscape:connector-curvature="0" />
      <g
         id="Layer1013">
        <path
           d="m 399.7796,196.8528 -5.2911,-3.8461 -9.269,-6.7365 -9.2679,6.7365 -5.2914,3.8461 2.025,-6.2249 3.5354,-10.893 -9.2636,-6.7309 -5.294,-3.8488 h 6.5421 11.4548 l 3.5396,-10.8899 2.02,-6.2221 2.0219,6.2221 3.5399,10.8899 h 11.4577 6.5403 l -5.2937,3.8488 -9.2664,6.7309 3.5396,10.893 z"
           style="fill:#1b1918;fill-rule:evenodd"
           id="path228"
           inkscape:connector-curvature="0" />
        <path
           d="m 395.09,192.9169 -5.2886,-3.8489 -9.2679,-6.7281 -9.2679,6.7281 -5.2911,3.8489 2.0222,-6.2249 3.5399,-10.8956 -9.2693,-6.7337 -5.2911,-3.8432 h 6.5418 11.4562 l 3.5371,-10.8929 2.0222,-6.2221 2.0183,6.2221 3.5424,10.8929 h 11.4548 6.5418 l -5.2911,3.8432 -9.2704,6.7337 3.5399,10.8956 z"
           style="fill:#ffffff;fill-rule:evenodd"
           id="path230"
           inkscape:connector-curvature="0" />
        <path
           d="m 380.5335,154.9828 4.019,12.3624 h 12.9965 l -10.5156,7.6402 4.0186,12.3628 -10.5185,-7.6405 -10.5171,7.6405 4.0176,-12.3628 -10.516,-7.6402 h 12.9968 z"
           style="fill:#e30016;fill-rule:evenodd"
           id="path232"
           inkscape:connector-curvature="0" />
      </g>
      <g
         id="Layer1014">
        <path
           d="m 667.9541,212.0107 -7.3162,0.6367 5.6903,-27.3433 -8.269,0.7158 -5.6888,27.3461 -7.3165,0.6344 6.6852,-32.1341 22.9014,-1.9897 z"
           style="fill:#5f247f;fill-rule:evenodd;stroke:#5f247f;stroke-width:2.26539993;stroke-linecap:butt;stroke-linejoin:miter;stroke-dasharray:none"
           id="path235"
           inkscape:connector-curvature="0" />
        <path
           d="m 698.4523,209.3567 -7.8672,0.6859 -2.3613,-21.5923 -11.5977,22.8036 -6.0275,0.5253 17.7448,-33.0974 6.0928,-0.5284 z"
           style="fill:#5f247f;fill-rule:evenodd;stroke:#5f247f;stroke-width:2.26539993;stroke-linecap:butt;stroke-linejoin:miter;stroke-dasharray:none"
           id="path237"
           inkscape:connector-curvature="0" />
        <path
           d="m 723.9644,207.6964 c -4.0311,0.3484 -6.711,-0.8626 -8.0461,-3.6363 -1.1146,-2.2997 -1.2722,-5.5581 -0.4776,-9.7823 l -4.1057,0.3622 -2.8798,13.8456 -7.3165,0.6372 6.6836,-32.1367 7.319,-0.6344 -2.7884,13.4108 4.1017,-0.3541 c 1.0154,-4.0856 2.5912,-7.3789 4.7322,-9.883 2.5611,-2.9996 5.7946,-4.6732 9.6814,-5.0108 4.5128,-0.3895 7.3191,1.1378 8.4079,4.5865 0.8056,2.5228 0.6993,6.2385 -0.3269,11.1622 -2.2753,10.9497 -7.2728,16.7582 -14.9848,17.4331 z m 8.1749,-19.0173 v 0 c 0.5958,-2.8718 0.849,-4.9457 0.754,-6.2306 -0.1607,-2.2127 -1.1733,-3.2442 -3.0351,-3.0781 -1.8589,0.1604 -3.3395,1.4045 -4.4308,3.7343 -0.6179,1.3091 -1.2305,3.4022 -1.8249,6.279 l -0.8904,4.2653 c -0.5539,2.6649 -0.7946,4.6245 -0.724,5.8765 0.1282,2.3191 1.1296,3.3968 3.0022,3.2335 1.8901,-0.1661 3.401,-1.4561 4.5252,-3.8676 0.5987,-1.2849 1.1756,-3.2581 1.7309,-5.9255 z"
           style="fill:#5f247f;fill-rule:evenodd;stroke:#5f247f;stroke-width:2.26539993;stroke-linecap:butt;stroke-linejoin:miter;stroke-dasharray:none"
           id="path239"
           inkscape:connector-curvature="0" />
        <path
           d="m 762.017,202.74 c -2.3326,1.2983 -5.0953,2.0875 -8.2993,2.3678 -4.9478,0.43 -8.3775,-0.8053 -10.2937,-3.7069 -1.7612,-2.6702 -2.1121,-6.508 -1.0752,-11.5163 1.0018,-4.7902 3.0348,-8.7996 6.1189,-12.014 3.367,-3.5085 7.4032,-5.4681 12.1014,-5.8791 3.5081,-0.305 6.0233,-0.1117 7.5447,0.5768 l -1.7774,4.8422 c -1.3175,-0.5851 -3.1926,-0.7727 -5.6126,-0.5633 -2.9829,0.2557 -5.4708,1.7227 -7.4795,4.3932 -1.6058,2.1336 -2.7436,4.8039 -3.4103,7.9993 -1.5894,7.6539 0.2123,11.255 5.4161,10.8057 2.3548,-0.2069 4.6355,-0.8546 6.8429,-1.9516 z"
           style="fill:#5f247f;fill-rule:evenodd;stroke:#5f247f;stroke-width:2.26539993;stroke-linecap:butt;stroke-linejoin:miter;stroke-dasharray:none"
           id="path241"
           inkscape:connector-curvature="0" />
      </g>
      <g
         id="Layer1015">
        <path
           d="m 670.7511,214.8114 -7.3163,0.6341 5.6886,-27.3461 -8.2689,0.7211 -5.6875,27.3436 -7.3162,0.6315 6.6847,-32.1313 22.9031,-1.9924 z"
           style="fill:#1b1918;fill-rule:evenodd;stroke:#1b1918;stroke-width:2.26539993;stroke-linecap:butt;stroke-linejoin:miter;stroke-dasharray:none"
           id="path244"
           inkscape:connector-curvature="0" />
        <path
           d="m 701.2479,212.1576 -7.8647,0.6831 -2.3641,-21.5923 -11.5977,22.8064 -6.0248,0.5253 17.7438,-33.0976 6.0911,-0.5335 z"
           style="fill:#1b1918;fill-rule:evenodd;stroke:#1b1918;stroke-width:2.26539993;stroke-linecap:butt;stroke-linejoin:miter;stroke-dasharray:none"
           id="path246"
           inkscape:connector-curvature="0" />
        <path
           d="m 726.7583,210.4891 c -4.0269,0.3512 -6.7094,-0.8575 -8.0431,-3.6337 -1.1134,-2.2969 -1.2738,-5.5579 -0.479,-9.7796 l -4.1032,0.3566 -2.8797,13.8513 -7.319,0.6343 6.6863,-32.1312 7.3163,-0.6344 -2.7888,13.4081 4.1046,-0.354 c 1.0125,-4.0881 2.5883,-7.3789 4.7293,-9.883 2.564,-3.0022 5.7949,-4.6706 9.684,-5.0108 4.5102,-0.392 7.3137,1.1404 8.4079,4.5862 0.8084,2.5234 0.697,6.241 -0.332,11.1648 -2.27,10.9474 -7.27,16.753 -14.9836,17.4254 z m 8.1762,-19.012 v 0 c 0.599,-2.8717 0.8521,-4.9484 0.7569,-6.2277 -0.1608,-2.2184 -1.1758,-3.2442 -3.0376,-3.081 -1.8593,0.1579 -3.3344,1.4046 -4.4283,3.7316 -0.6208,1.3175 -1.2303,3.4049 -1.8292,6.2793 l -0.8861,4.2678 c -0.5539,2.6649 -0.7949,4.6245 -0.724,5.8765 0.1267,2.3188 1.1293,3.3971 3.0036,3.2335 1.8887,-0.1658 3.397,-1.4562 4.521,-3.8676 0.5987,-1.2849 1.1783,-3.261 1.7311,-5.9227 z"
           style="fill:#1b1918;fill-rule:evenodd;stroke:#1b1918;stroke-width:2.26539993;stroke-linecap:butt;stroke-linejoin:miter;stroke-dasharray:none"
           id="path248"
           inkscape:connector-curvature="0" />
        <path
           d="m 764.8123,205.5378 c -2.3298,1.3011 -5.0925,2.0852 -8.2962,2.3681 -4.951,0.4277 -8.3778,-0.8082 -10.2969,-3.7069 -1.758,-2.6705 -2.112,-6.508 -1.0749,-11.5135 1.0015,-4.7959 3.0374,-8.8024 6.1186,-12.014 3.3721,-3.5113 7.4061,-5.4709 12.1043,-5.8794 3.5056,-0.3047 6.0205,-0.1142 7.5418,0.5718 l -1.7773,4.8421 c -1.3173,-0.5825 -3.1927,-0.7676 -5.6123,-0.5578 -2.9807,0.2556 -5.4709,1.72 -7.477,4.3903 -1.6086,2.1364 -2.7433,4.801 -3.4132,7.9965 -1.5896,7.6567 0.2152,11.255 5.4165,10.8059 2.3516,-0.2043 4.6355,-0.8549 6.8428,-1.9491 z"
           style="fill:#1b1918;fill-rule:evenodd;stroke:#1b1918;stroke-width:2.26539993;stroke-linecap:butt;stroke-linejoin:miter;stroke-dasharray:none"
           id="path250"
           inkscape:connector-curvature="0" />
      </g>
      <g
         id="Layer1016">
        <path
           d="m 667.9541,212.0107 -7.3162,0.6367 5.6903,-27.3433 -8.269,0.7158 -5.6888,27.3461 -7.3165,0.6344 6.6852,-32.1341 22.9014,-1.9897 z"
           style="fill:#ffffff;fill-rule:evenodd"
           id="path253"
           inkscape:connector-curvature="0" />
        <path
           d="m 698.4523,209.3567 -7.8672,0.6859 -2.3613,-21.5923 -11.5977,22.8036 -6.0275,0.5253 17.7448,-33.0974 6.0928,-0.5284 z"
           style="fill:#ffffff;fill-rule:evenodd"
           id="path255"
           inkscape:connector-curvature="0" />
        <path
           d="m 723.9644,207.6964 c -4.0311,0.3484 -6.711,-0.8626 -8.0461,-3.6363 -1.1146,-2.2997 -1.2722,-5.5581 -0.4776,-9.7823 l -4.1057,0.3622 -2.8798,13.8456 -7.3165,0.6372 6.6836,-32.1367 7.319,-0.6344 -2.7884,13.4108 4.1017,-0.3541 c 1.0154,-4.0856 2.5912,-7.3789 4.7322,-9.883 2.5611,-2.9996 5.7946,-4.6732 9.6814,-5.0108 4.5128,-0.3895 7.3191,1.1378 8.4079,4.5865 0.8056,2.5228 0.6993,6.2385 -0.3269,11.1622 -2.2753,10.9497 -7.2728,16.7582 -14.9848,17.4331 z m 8.1749,-19.0173 v 0 c 0.5958,-2.8718 0.849,-4.9457 0.754,-6.2306 -0.1607,-2.2127 -1.1733,-3.2442 -3.0351,-3.0781 -1.8589,0.1604 -3.3395,1.4045 -4.4308,3.7343 -0.6179,1.3091 -1.2305,3.4022 -1.8249,6.279 l -0.8904,4.2653 c -0.5539,2.6649 -0.7946,4.6245 -0.724,5.8765 0.1282,2.3191 1.1296,3.3968 3.0022,3.2335 1.8901,-0.1661 3.401,-1.4561 4.5252,-3.8676 0.5987,-1.2849 1.1756,-3.2581 1.7309,-5.9255 z"
           style="fill:#ffffff;fill-rule:evenodd"
           id="path257"
           inkscape:connector-curvature="0" />
        <path
           d="m 762.017,202.74 c -2.3326,1.2983 -5.0953,2.0875 -8.2993,2.3678 -4.9478,0.43 -8.3775,-0.8053 -10.2937,-3.7069 -1.7612,-2.6702 -2.1121,-6.508 -1.0752,-11.5163 1.0018,-4.7902 3.0348,-8.7996 6.1189,-12.014 3.367,-3.5085 7.4032,-5.4681 12.1014,-5.8791 3.5081,-0.305 6.0233,-0.1117 7.5447,0.5768 l -1.7774,4.8422 c -1.3175,-0.5851 -3.1926,-0.7727 -5.6126,-0.5633 -2.9829,0.2557 -5.4708,1.7227 -7.4795,4.3932 -1.6058,2.1336 -2.7436,4.8039 -3.4103,7.9993 -1.5894,7.6539 0.2123,11.255 5.4161,10.8057 2.3548,-0.2069 4.6355,-0.8546 6.8429,-1.9516 z"
           style="fill:#ffffff;fill-rule:evenodd"
           id="path259"
           inkscape:connector-curvature="0" />
      </g>
    </g>
  </g>
</svg>
