<?xml version="1.0" encoding="UTF-8" standalone="no"?>
<!-- Created with Inkscape (http://www.inkscape.org/) -->

<svg
   xmlns:osb="http://www.openswatchbook.org/uri/2009/osb"
   xmlns:dc="http://purl.org/dc/elements/1.1/"
   xmlns:cc="http://creativecommons.org/ns#"
   xmlns:rdf="http://www.w3.org/1999/02/22-rdf-syntax-ns#"
   xmlns:svg="http://www.w3.org/2000/svg"
   xmlns="http://www.w3.org/2000/svg"
   xmlns:xlink="http://www.w3.org/1999/xlink"
   xmlns:sodipodi="http://sodipodi.sourceforge.net/DTD/sodipodi-0.dtd"
   xmlns:inkscape="http://www.inkscape.org/namespaces/inkscape"
   width="85mm"
   height="54mm"
   id="svg3043"
   version="1.1"
   inkscape:version="0.92.1 unknown"
   sodipodi:docname="header_logo_1.svg"
   viewBox="0 0 301.1811 191.33858">
  <defs
     id="defs3">
    <linearGradient
       inkscape:collect="always"
       xlink:href="#linearGradient5223"
       id="linearGradient3002"
       gradientUnits="userSpaceOnUse"
       gradientTransform="matrix(1.1323265,-0.27670962,0.61503743,1.020815,-12.575989,4.5432828)"
       x1="-11.511864"
       y1="34.092136"
       x2="55.854603"
       y2="34.092136" />
    <linearGradient
       id="linearGradient5223"
       osb:paint="solid">
      <stop
         style="stop-color:#360000;stop-opacity:0.98206276;"
         offset="0"
         id="stop5225" />
    </linearGradient>
    <linearGradient
       id="linearGradient3064"
       osb:paint="solid">
      <stop
         style="stop-color:#360000;stop-opacity:0.98206276;"
         offset="0"
         id="stop3066" />
    </linearGradient>
    <linearGradient
       id="linearGradient3069"
       osb:paint="solid">
      <stop
         style="stop-color:#360000;stop-opacity:0.98206276;"
         offset="0"
         id="stop3071" />
    </linearGradient>
    <linearGradient
       id="linearGradient3074"
       osb:paint="solid">
      <stop
         style="stop-color:#360000;stop-opacity:0.98206276;"
         offset="0"
         id="stop3076" />
    </linearGradient>
    <linearGradient
       id="linearGradient3079"
       osb:paint="solid">
      <stop
         style="stop-color:#360000;stop-opacity:0.98206276;"
         offset="0"
         id="stop3081" />
    </linearGradient>
    <linearGradient
       id="linearGradient3084"
       osb:paint="solid">
      <stop
         style="stop-color:#360000;stop-opacity:0.98206276;"
         offset="0"
         id="stop3086" />
    </linearGradient>
    <linearGradient
       id="linearGradient3089"
       osb:paint="solid">
      <stop
         style="stop-color:#360000;stop-opacity:0.98206276;"
         offset="0"
         id="stop3091" />
    </linearGradient>
    <linearGradient
       id="linearGradient3094"
       osb:paint="solid">
      <stop
         style="stop-color:#360000;stop-opacity:0.98206276;"
         offset="0"
         id="stop3096" />
    </linearGradient>
    <linearGradient
       id="linearGradient3099"
       osb:paint="solid">
      <stop
         style="stop-color:#360000;stop-opacity:0.98206276;"
         offset="0"
         id="stop3101" />
    </linearGradient>
    <linearGradient
       id="linearGradient3104"
       osb:paint="solid">
      <stop
         style="stop-color:#360000;stop-opacity:0.98206276;"
         offset="0"
         id="stop3106" />
    </linearGradient>
    <linearGradient
       id="linearGradient3109"
       osb:paint="solid">
      <stop
         style="stop-color:#360000;stop-opacity:0.98206276;"
         offset="0"
         id="stop3111" />
    </linearGradient>
  </defs>
  <sodipodi:namedview
     id="base"
     pagecolor="#ffffff"
     bordercolor="#666666"
     borderopacity="1.0"
     inkscape:pageopacity="0.0"
     inkscape:pageshadow="2"
     inkscape:zoom="4.0901708"
     inkscape:cx="150.74727"
     inkscape:cy="135.48249"
     inkscape:document-units="mm"
     inkscape:current-layer="layer1"
     showgrid="false"
     showguides="true"
     inkscape:guide-bbox="true"
     inkscape:window-width="1327"
     inkscape:window-height="747"
     inkscape:window-x="39"
     inkscape:window-y="21"
     inkscape:window-maximized="1">
    <sodipodi:guide
       orientation="1,0"
       position="88.572488,227.67365"
       id="guide3246"
       inkscape:locked="false" />
    <sodipodi:guide
       orientation="1,0"
       position="212.57398,245.86692"
       id="guide3248"
       inkscape:locked="false" />
    <sodipodi:guide
       orientation="1,0"
       position="7.0710677,382.42691"
       id="guide3250"
       inkscape:locked="false" />
    <sodipodi:guide
       orientation="1,0"
       position="294.11457,250.41667"
       id="guide3252"
       inkscape:locked="false" />
    <sodipodi:guide
       orientation="0,1"
       position="-11.302083,187.8125"
       id="guide3256"
       inkscape:locked="false" />
    <sodipodi:guide
       orientation="0,1"
       position="-68.671874,3.5416666"
       id="guide3258"
       inkscape:locked="false" />
    <sodipodi:guide
       orientation="1,0"
       position="113.43171,86.399608"
       id="guide3260"
       inkscape:locked="false" />
    <sodipodi:guide
       orientation="1,0"
       position="187.86458,76.718748"
       id="guide3262"
       inkscape:locked="false" />
    <sodipodi:guide
       orientation="0,1"
       position="61.614582,99.166665"
       id="guide3266"
       inkscape:locked="false" />
    <sodipodi:guide
       orientation="0,1"
       position="88.572488,53.180322"
       id="guide3268"
       inkscape:locked="false" />
    <sodipodi:guide
       orientation="0,1"
       position="70.857991,49.571131"
       id="guide3276"
       inkscape:locked="false" />
    <sodipodi:guide
       orientation="1,0"
       position="70.833332,155"
       id="guide3278"
       inkscape:locked="false" />
    <sodipodi:guide
       orientation="1,0"
       position="230.3125,151.66667"
       id="guide3280"
       inkscape:locked="false" />
    <sodipodi:guide
       orientation="0,1"
       position="131.61458,21.25"
       id="guide3290"
       inkscape:locked="false" />
    <sodipodi:guide
       orientation="0,1"
       position="64.633978,31.893461"
       id="guide3292"
       inkscape:locked="false" />
  </sodipodi:namedview>
  <metadata
     id="metadata3047">
    <rdf:RDF>
      <cc:Work
         rdf:about="">
        <dc:format>image/svg+xml</dc:format>
        <dc:type
           rdf:resource="http://purl.org/dc/dcmitype/StillImage" />
        <dc:title></dc:title>
      </cc:Work>
    </rdf:RDF>
  </metadata>
  <g
     inkscape:label="Layer 1"
     inkscape:groupmode="layer"
     id="layer1">
    <g
       aria-label="Almaz
 "
       transform="scale(1.105058,0.90492991)"
       style="font-style:normal;font-variant:normal;font-weight:normal;font-stretch:normal;line-height:0%;font-family:'Pinyon Script';-inkscape-font-specification:'Pinyon Script';letter-spacing:0px;word-spacing:0px;fill:#000000;fill-opacity:1;stroke:none"
       id="text3236">
      <path
         d="m 100.33335,131.53911 q -3.028928,0 -5.631246,-0.81056 -2.986266,2.47434 -4.479399,3.43421 -2.772961,1.72777 -5.652575,1.72777 -3.284893,0 -4.244764,-1.89842 -0.277296,-0.57592 -0.277296,-1.13051 0,-0.55459 0.191974,-0.89588 0.191975,-0.34129 0.469271,-0.53326 0.575922,-0.40528 1.343819,-0.40528 1.066524,0 1.066524,0.95987 0,0.42661 -0.341287,0.74657 -0.362618,0.29862 -0.959872,0.29862 -0.618583,0 -0.91721,-0.2133 v 0.14931 q 0,2.34635 3.839485,2.34635 2.666309,0 6.036524,-2.34635 l 3.17824,-2.49566 q -3.028927,-1.13052 -4.842017,-3.19957 -1.749099,-1.96241 -1.877082,-4.33009 -0.127983,-2.32502 1.535794,-3.96747 1.749099,-1.72777 4.735365,-1.72777 4.159442,0 6.996392,3.56219 0.85322,1.08786 1.45047,2.32502 6.84709,-6.56978 8.9588,-8.44686 l 3.4982,-3.02893 q 7.08172,-5.82322 10.4306,-5.82322 0.38395,0 0.38395,0.12798 0,0.14932 -0.36262,0.2773 -0.34129,0.12798 -0.7679,0.55459 -0.4266,0.42661 -1.23716,1.42914 l -2.09039,2.66631 -14.44073,19.19743 q 5.9512,-1.77043 9.27876,-6.33515 1.06652,-1.45047 1.42914,-2.43168 0.4906,-1.30115 0.59725,-1.30115 0.064,0 0.19198,0.19197 0.14931,0.17064 0.10665,0.7679 -0.0213,0.57592 -0.29863,1.38648 -0.27729,0.78923 -0.7039,1.51446 -0.70391,1.21584 -2.32503,2.75163 -3.26356,3.17824 -8.95879,4.35142 l -3.64751,4.82068 -1.36515,-0.0853 q -0.682579,-0.0427 -1.087858,-0.0427 -0.383949,0 -0.661245,0.0427 l -0.597253,0.0853 3.156906,-3.90347 q 0.064,-0.10665 0.12799,-0.19198 0.064,-0.10665 0.10665,-0.2133 -0.68258,0.0427 -1.34382,0.0427 z m 1.91974,-7.74296 q 0.87455,2.2397 0.87455,3.83948 0,1.59979 -0.25596,2.517 l 7.9136,-9.57738 q 7.82828,-9.10811 9.70537,-11.09185 1.87708,-2.00506 2.77296,-2.83695 l -1.42915,0.59725 q -2.87961,1.2585 -8.23356,5.88721 l -4.4794,4.05279 z m -7.785621,6.24983 q 4.159442,-3.7115 6.996391,-6.46314 -1.770425,-4.03145 -5.396605,-5.28995 -1.215837,-0.40528 -2.389013,-0.40528 -1.151846,0 -2.069056,0.42661 -0.89588,0.40528 -1.578455,1.08785 -1.471803,1.4718 -1.471803,3.4982 0,3.56219 3.327554,5.86588 1.109185,0.7679 2.580987,1.27983 z m 0.746567,0.23463 q 2.346352,0.66125 5.247294,0.66125 0.74657,0 1.49313,-0.064 0.49061,-1.2585 0.49061,-2.43168 0,-2.17571 -0.70391,-4.15944 -4.799356,4.52206 -6.527124,5.99386 z"
         style="font-size:43.68480682px;line-height:1.25"
         id="path4538" />
      <path
         d="m 114.60343,134.52538 q 0,0.7039 1.02387,0.7039 1.02386,0 2.1757,-0.53326 1.17318,-0.55459 2.3037,-1.38648 1.15184,-0.83189 2.21836,-1.81309 1.06653,-1.00253 1.94108,-1.89841 l 1.4718,-1.57846 q 0.59725,-0.68257 0.81056,-0.89588 l 0.42661,0.36262 q -0.23464,0.23464 -0.87455,0.93854 -0.61859,0.70391 -1.5358,1.62112 -0.89588,0.91721 -2.02639,1.94107 -1.10919,1.02386 -2.32502,1.87708 -2.83696,1.96241 -4.97,1.96241 -0.89588,0 -1.47181,-0.49061 -0.59725,-0.4906 -0.59725,-1.04519 0,-0.57592 0.064,-0.91721 0.0427,-0.34129 0.21331,-0.7679 0.17064,-0.44794 0.4906,-1.02386 0.31996,-0.59725 0.85322,-1.42914 l 3.26356,-4.82069 16.48845,-23.57017 q 1.5358,0.21331 2.96494,0 -20.34927,28.28421 -21.07451,29.37206 -0.72523,1.06653 -1.06652,1.62112 -0.34129,0.53326 -0.51193,0.87455 -0.25597,0.51193 -0.25597,0.89588 z"
         style="font-size:43.68480682px;line-height:1.25"
         id="path4540" />
      <path
         d="m 127.14575,135.3786 q -0.4906,-0.10666 -1.23717,-0.10666 -1.30115,0 -2.00506,0.21331 l 7.40167,-10.57992 q 1.38648,-1.94107 1.42915,-2.30369 0.0853,-0.7039 -0.44794,-0.7039 -0.78923,0 -3.92481,3.90347 l -1.36515,1.68511 q -0.17065,0.0853 -0.36262,-0.0853 -0.17064,-0.19198 -0.0853,-0.2773 0.61858,-0.66124 1.38648,-1.66377 0.78923,-1.02387 1.64245,-1.96241 2.09038,-2.32502 3.47686,-2.32502 2.34635,0 1.49314,2.41034 -0.17065,0.51194 -0.74657,1.32249 l -4.4794,6.2285 0.10665,0.23464 q 5.7379,-6.63378 8.42554,-8.57485 2.13305,-1.62112 3.94614,-1.62112 1.23716,0 1.9624,0.68258 0.57592,0.57592 0.53326,1.21583 -0.0213,0.63992 -0.0853,0.9812 -0.0427,0.31996 -0.14931,0.66125 -0.25597,0.70391 -0.89588,1.70644 4.56472,-4.65005 6.91107,-5.14065 0.46927,-0.10665 1.02386,-0.10665 0.57592,0 1.04519,0.19198 0.49061,0.19197 0.78923,0.4906 0.55459,0.55459 0.53326,1.34382 0,0.76789 -0.29862,1.57845 -0.2773,0.81056 -0.95987,1.91974 -1.42915,2.28236 -4.82069,5.95121 -1.40781,1.4718 -1.4718,1.72776 -0.064,0.23464 -0.064,0.36262 l -0.14932,0.0213 q 0,0.51193 1.21584,0.51193 1.21584,0 2.21837,-0.53326 1.02386,-0.55459 2.06905,-1.38648 1.0452,-0.85322 2.0264,-1.85575 1.00253,-1.00253 1.81309,-1.89841 l 1.36515,-1.57846 q 0.55459,-0.68257 0.74657,-0.89588 l 0.44794,0.36262 q -0.21331,0.21331 -0.81056,0.93854 -0.57592,0.70391 -1.42914,1.64245 -0.83189,0.93854 -1.87709,1.9624 -1.04519,1.02386 -2.15437,1.87708 -2.58099,1.98374 -4.33009,1.98374 -1.85575,0 -2.62365,-0.9812 -0.23463,-0.29863 -0.23463,-0.70391 0,-0.40528 0.12798,-0.93854 0.14931,-0.53326 0.63991,-1.34382 0.98121,-1.66378 2.85829,-3.77549 1.87708,-2.11172 2.43167,-2.83696 0.57592,-0.72523 0.93854,-1.2585 0.66125,-1.04519 0.66125,-1.57845 0,-0.7679 -1.08786,-0.7679 -2.13304,0 -7.38034,5.33262 -2.2397,2.26103 -4.99133,5.7379 l -1.98373,2.60232 q -0.49061,-0.10666 -1.23717,-0.10666 -1.21584,0 -2.00507,0.21331 3.15691,-3.86082 3.47687,-4.2661 4.79936,-6.33515 5.31129,-7.16704 0.7039,-1.21583 0.7039,-1.6851 0,-0.66125 -1.04519,-0.66125 -1.38648,0 -3.24223,1.49314 -3.90348,3.11424 -9.19343,9.57738 z"
         style="font-size:43.68480682px;line-height:1.25"
         id="path4542" />
      <path
         d="m 165.5406,135.82654 q -2.13305,0 -2.13305,-1.32249 0,-1.08786 1.23717,-2.7303 l 1.34382,-1.70644 -0.21331,-0.0853 q -3.58352,4.4154 -6.76176,5.54592 -0.87455,0.29863 -1.51446,0.29863 -2.62365,0 -2.62365,-2.7943 0,-3.28489 2.62365,-6.27116 3.88215,-4.52206 7.80695,-5.35394 1.17318,-0.23464 2.00507,-0.23464 0.83189,0 1.30116,0.12798 0.4906,0.10666 0.85321,0.31996 0.7679,0.4906 0.7679,1.21584 0,0.7039 -0.25596,1.34382 l 2.09038,-2.58099 q 0.57592,0.17064 1.06653,0.17064 1.25849,0 1.81309,-0.0853 l -7.18837,8.66017 q -2.55966,2.98627 -2.55966,4.20211 0,0.68257 0.81056,0.68257 0.81056,0 1.85575,-0.4906 1.06652,-0.4906 2.11172,-1.2585 1.04519,-0.76789 2.02639,-1.70643 1.00253,-0.93855 1.83442,-1.83442 0.85322,-0.89588 1.49313,-1.66378 l 1.02387,-1.15185 0.44794,0.36262 -1.08786,1.23717 q -6.14317,7.10305 -10.17463,7.10305 z m -5.90854,-7.67897 q -3.0076,3.64751 -3.0076,5.97253 0,1.06652 0.95987,1.06652 3.11425,0 8.98013,-6.88974 l 1.79176,-2.15438 q 1.27983,-1.94107 1.27983,-2.81562 0,-1.49313 -1.49313,-1.49313 -2.0264,0 -5.82322,3.45553 -1.30116,1.19451 -2.68764,2.85829 z"
         style="font-size:43.68480682px;line-height:1.25"
         id="path4544" />
      <path
         d="m 177.84828,135.61323 q 2.00507,0.21331 2.45301,1.94107 4.71403,-2.85828 8.76682,-7.78562 l 2.15438,-2.64498 0.44794,0.36262 -2.32502,2.83695 q -2.68764,3.17824 -4.88468,4.94867 -2.17571,1.7491 -4.05279,2.83696 0.064,0.36261 0.064,1.27982 0,0.91721 -0.70391,2.47434 -0.68257,1.55712 -1.87708,3.07159 -1.17317,1.51446 -2.70897,2.90094 -1.53579,1.38648 -3.2209,2.43168 -3.69017,2.30369 -6.61245,2.30369 -1.00253,0 -1.42914,-0.53327 -0.42661,-0.51193 -0.42661,-1.42914 0,-0.89588 1.06653,-2.26103 1.04519,-1.34382 2.96493,-2.87961 3.58352,-2.87961 10.75056,-6.88974 0.064,-0.44794 0.064,-1.13052 0,-0.66124 -0.34129,-1.08785 -0.31995,-0.42661 -0.7039,-0.42661 h -0.0427 q -0.66125,0.36262 -1.2585,0.63991 -0.59725,0.29863 -1.00253,0.53326 -0.40528,0.25597 -0.53326,0.34129 -0.12799,0.10665 -0.19198,0.17065 -0.12798,0.12798 -0.25596,0.12798 -0.12799,0 -0.36262,-0.14932 -0.23464,-0.12798 -0.23464,-0.2133 0,-0.2773 1.02387,-0.72524 1.91974,-0.83188 2.98626,-2.15437 0.91721,-1.13052 1.85575,-2.81563 l 1.81309,-3.26356 q 0.81056,-1.4718 1.81309,-2.81562 -2.32502,-0.42661 -3.47686,-2.00507 -2.00507,3.69018 -4.13812,5.43928 -0.38394,0.31995 -0.51193,0.31995 -0.14931,0 -0.14931,-0.10665 l 1.7491,-2.13305 q 1.42914,-1.6851 1.94107,-2.64498 l 0.74657,-1.42914 q -0.46927,-0.93854 -0.46927,-1.6851 0,-0.7679 0.14931,-1.19451 0.14931,-0.44794 0.42661,-0.7679 0.57592,-0.74656 1.27983,-0.74656 1.32249,0 1.32249,0.83188 0,0.51194 -0.25597,0.81056 -0.23463,0.29863 -0.51193,0.55459 -0.78923,0.72524 -0.78923,1.30116 0,0.57593 0.19198,1.02387 0.2133,0.4266 0.59725,0.83188 0.87455,0.89588 2.19704,1.21584 1.85575,-2.34635 3.69017,-3.43421 1.85575,-1.10918 3.11425,-1.10918 2.21837,0 2.21837,1.23717 0,1.08785 -1.87708,2.26103 -2.00507,1.27983 -4.52206,1.51446 -2.41035,5.9512 -6.0152,8.63884 -1.00253,0.74657 -1.9624,1.27983 z m 8.14824,-10.34528 q 2.19704,-0.29862 3.88215,-1.38648 1.62111,-1.02386 1.62111,-1.98373 0,-0.31996 -0.34128,-0.53326 -0.31996,-0.23464 -0.87455,-0.23464 -0.53327,0 -1.06653,0.23464 -0.53326,0.2133 -1.08785,0.72523 -1.2585,1.08786 -2.13305,3.17824 z m -7.84961,13.95013 -5.54593,3.32755 q -5.33261,3.32756 -7.38034,5.86588 -1.08785,1.32249 -1.08785,2.517 0,0.42661 0.27729,0.7679 0.25597,0.34128 1.00254,0.34128 0.74656,0 1.91974,-0.55459 1.17317,-0.55459 2.49566,-1.51446 1.30116,-0.93854 2.64498,-2.19704 1.32249,-1.2585 2.47434,-2.68764 2.55965,-3.17824 3.19957,-5.86588 z"
         style="font-size:43.68480682px;line-height:1.25"
         id="path4546" />
    </g>
    <text
       xml:space="preserve"
       style="font-style:normal;font-variant:normal;font-weight:normal;font-stretch:normal;line-height:0%;font-family:'Pinyon Script';-inkscape-font-specification:'Pinyon Script';letter-spacing:0px;word-spacing:0px;fill:#000000;fill-opacity:1;stroke:none"
       x="122.91667"
       y="148.21358"
       id="text3272"><tspan
         sodipodi:role="line"
         id="tspan3274"
         x="122.91667"
         y="148.21358"
         style="font-size:18px;line-height:1.25"> </tspan></text>
    <g
       aria-label="Hotel &amp; Restaurant"
       transform="scale(0.96556936,1.0356584)"
       style="font-style:normal;font-variant:normal;font-weight:normal;font-stretch:normal;line-height:0%;font-family:'Pinyon Script';-inkscape-font-specification:'Pinyon Script';letter-spacing:0px;word-spacing:0px;fill:#000000;fill-opacity:1;stroke:none"
       id="text3282">
      <path
         d="m 74.982353,152.14659 q 0,0.21362 -0.18158,0.37384 -0.18158,0.14954 -0.469971,0.14954 -0.299072,0 -0.45929,-0.0961 v 0.0641 q 0,0.46997 0.45929,0.76905 0.448609,0.29907 1.068116,0.29907 1.420593,0 2.766419,-1.00403 0.993348,-0.737 2.040101,-1.93329 l 1.997376,-2.39258 q -0.309754,0.0855 -0.598145,0.18158 l -0.544739,0.1709 q -3.012086,1.04675 -3.994752,2.56348 -0.05341,0.0961 -0.117493,0.0961 -0.07477,0 -0.05341,-0.0534 0.01068,-0.0641 0.02136,-0.0961 0,-0.0427 0.08545,-0.2243 0.09613,-0.19226 0.384522,-0.46997 0.288391,-0.28839 0.65155,-0.55542 1.174927,-0.8545 2.264405,-1.2497 1.100159,-0.3952 2.168275,-0.70495 0.65155,-0.89722 1.271057,-1.67695 1.580812,-1.90124 2.104188,-2.46734 0,0 0.865174,-0.91858 -1.879884,1.16424 -3.033448,1.16424 -0.544739,0 -0.907899,-0.25634 -0.352478,-0.26703 -0.352478,-0.66224 0,-0.40588 0.06409,-0.66223 0.06409,-0.25635 0.234986,-0.53406 0.331115,-0.54473 1.174927,-1.20697 0.544739,-0.42724 0.587463,-0.54473 0.04272,-0.1175 0.04272,-0.1709 0,-0.32044 -0.341797,-0.52338 -0.331116,-0.20294 -1.100159,-0.20294 -1.698304,0 -2.969362,1.16424 -0.170898,0.14954 -0.27771,0.14954 -0.106811,0 -0.106811,-0.0748 0,-0.10681 0.192261,-0.29907 1.324463,-1.16425 3.204346,-1.16425 0.897218,0 1.37787,0.33112 0.491333,0.32043 0.491333,0.88654 0,0.65155 -0.267029,1.05743 -0.45929,0.72632 -1.377869,1.31378 -0.341797,0.21363 -0.437928,0.33112 -0.09613,0.10681 -0.09613,0.2243 0,0.10681 0.04273,0.20294 0.0534,0.0854 0.170898,0.1709 0.27771,0.18158 0.694275,0.18158 0.427246,0 0.865174,-0.12817 0.437927,-0.12818 0.92926,-0.37384 1.057435,-0.53406 1.911927,-1.29242 2.445985,-2.12555 2.926637,-2.43531 0.480652,-0.32043 0.694275,-0.42724 l 0.320435,-0.14954 q 0.08545,-0.0427 0.18158,-0.0427 0.106811,0 0.106811,0.0534 0,0.0427 -0.05341,0.0748 -0.04272,0.0214 -0.128174,0.0748 -0.08545,0.0534 -0.149536,0.0855 -0.0534,0.032 -0.138855,0.0854 l -0.534058,0.38452 q -1.014709,0.83313 -1.976013,2.0401 l -1.676942,2.16828 -1.506043,2.08282 -1.174927,1.48468 4.133607,-1.02539 0.544739,-0.65155 q 2.339173,-2.74506 5.223086,-4.88129 2.819825,-2.07214 4.154969,-2.07214 0.480652,0 0.715638,0.2243 0.245666,0.21362 0.245666,0.55542 0,0.33112 -0.299072,0.83313 -0.288391,0.50202 -0.854493,1.08948 -0.55542,0.57678 -1.367187,1.20697 -0.811768,0.63019 -1.837159,1.2497 -2.30713,1.38855 -4.913332,2.23236 -2.755738,3.3432 -3.706361,5.40466 -0.309754,0.66223 -0.309754,1.11084 0,0.44861 0.202942,0.6836 0.202942,0.2243 0.737,0.2243 0.544739,0 1.185608,-0.3418 0.651551,-0.35247 1.249696,-0.99334 1.324463,-1.4206 1.965332,-3.54615 0.09613,-0.32043 0.256348,-0.32043 0.08545,0 0.117493,0.35248 0.04272,0.34179 -0.138855,0.87585 -0.170899,0.53406 -0.502015,1.11084 -0.331116,0.5661 -0.811768,1.1322 -0.46997,0.55542 -1.025391,1.00403 -1.228332,0.99335 -2.424622,0.99335 -0.961304,0 -1.281739,-0.88654 -0.09613,-0.24566 -0.09613,-0.6195 0,-0.38453 0.128174,-0.97199 0.128174,-0.59814 0.437927,-1.3031 0.683594,-1.50604 2.136231,-3.36456 -0.971985,0.27771 -2.050782,0.53405 l -2.114868,0.52338 -1.580812,1.82648 q -1.516724,1.66626 -2.478028,2.40326 -0.950623,0.737 -1.623535,1.12152 -1.303102,0.737 -2.851869,0.737 -0.843811,0 -1.441956,-0.41657 -0.587464,-0.41656 -0.587464,-1.01471 0,-0.66223 0.651551,-0.83313 0.181579,-0.0534 0.341797,-0.0534 0.534058,0 0.534058,0.48065 z m 15.402227,-6.22711 q 3.41797,-1.31379 6.088259,-3.47138 1.580811,-1.28174 2.189637,-2.211 0.299072,-0.45929 0.299072,-0.74768 0,-0.36316 -0.469971,-0.36316 -0.45929,0 -1.01471,0.26703 -0.55542,0.26703 -1.217652,0.737 -0.65155,0.45929 -1.38855,1.11084 -0.726318,0.64087 -1.484681,1.39923 -0.758362,0.74768 -1.527405,1.58081 z"
         style="font-size:21.87500763px;line-height:1.25"
         id="path4549" />
      <path
         d="m 98.737243,152.24272 q -0.395202,0 -0.576782,-0.32043 -1.271058,1.44195 -2.745057,1.91192 -0.491333,0.14954 -0.961304,0.14954 -0.45929,0 -0.790406,-0.10681 -0.331116,-0.10681 -0.544739,-0.29907 -0.865173,-0.74769 -0.170898,-2.57416 0.267029,-0.71564 0.694275,-1.33515 0.416565,-0.6195 0.939942,-1.14288 0.534058,-0.53406 1.142883,-0.95062 1.37787,-0.92926 2.691652,-0.92926 0.566101,0 0.971985,0.29907 0.416565,0.28839 0.448608,0.84381 0.03204,0.54474 -0.06409,1.02539 -0.09613,0.48065 -0.288392,0.9613 -0.384521,0.98267 -1.089478,1.85853 0.07477,0.30975 0.405884,0.30975 0.341797,0 0.64087,-0.14954 0.309753,-0.16021 0.60883,-0.38452 0.30975,-0.23498 0.59814,-0.51269 0.29907,-0.2884 0.54474,-0.54474 l 0.40588,-0.44861 q 0.1709,-0.20294 0.24567,-0.27771 l 0.23499,0.18158 q -0.13886,0.12817 -0.35248,0.36316 -0.21363,0.23498 -0.48065,0.50201 0,0 -0.56611,0.55542 -1.100155,1.01471 -1.943967,1.01471 z m -4.432679,1.33515 q 0.170898,0.0854 0.480652,0.0854 0.694275,0 1.783753,-0.77972 0.83313,-0.59814 1.48468,-1.37787 v -0.0427 q 0,-0.9079 0.683594,-1.36719 0.18158,-0.12818 0.341797,-0.18158 0.512696,-1.08948 0.480652,-1.78375 -0.06409,-1.10016 -0.811767,-1.10016 -1.260377,0 -3.535463,2.84118 -1.463318,1.83716 -1.377869,2.86255 0,0.58747 0.469971,0.84382 z"
         style="font-size:21.87500763px;line-height:1.25"
         id="path4551" />
      <path
         d="m 100.72394,153.34288 q 0,0.32043 0.51269,0.33112 0.5127,0.0107 1.02539,-0.22431 0.52338,-0.23498 1.03608,-0.59814 0.51269,-0.36316 0.99334,-0.81177 0.48066,-0.45929 0.89722,-0.9079 0.41657,-0.44861 0.74768,-0.84381 l 0.55542,-0.66223 0.23499,0.18158 -0.55542,0.64087 q -2.98005,3.53546 -5.00946,3.53546 -0.58747,0 -0.87586,-0.23499 -0.299072,-0.23498 -0.299072,-0.51269 0,-0.27771 0.03204,-0.45929 0.0214,-0.18158 0.10681,-0.3952 0.0855,-0.22431 0.25635,-0.52338 0.16022,-0.29907 0.43793,-0.72632 l 1.66626,-2.40326 2.75574,-3.87726 h -0.84381 q -0.32044,0 -0.32044,-0.14954 0,-0.16021 0.40588,-0.16021 h 0.97199 l 1.97601,-2.7771 q 0.74768,0.11749 1.48468,0 l -2.06146,2.7771 h 2.75574 q 0.29907,0 0.29907,0.16021 0,0.14954 -0.26703,0.14954 h -3.02276 l -4.422,6.01349 q -1.14289,1.61286 -1.3031,1.9867 -0.1709,0.37384 -0.1709,0.49133 z"
         style="font-size:21.87500763px;line-height:1.25"
         id="path4553" />
      <path
         d="m 110.52924,153.04381 q -0.67291,0.42724 -1.46332,0.70495 -0.77972,0.27771 -1.48468,0.27771 -0.70496,0 -1.0788,-0.13885 -0.36316,-0.14954 -0.59814,-0.40588 -1.00403,-1.08948 0.0107,-3.21503 0.43793,-0.93994 1.32446,-1.70899 0.88654,-0.77972 1.55945,-1.16424 1.3031,-0.74768 2.44599,-0.74768 1.1322,0 1.1856,0.70495 0.0748,1.14289 -2.7771,2.48871 -1.04675,0.49133 -2.63824,1.01471 -0.63019,1.02539 -0.63019,1.67694 0,0.64087 0.33112,0.91858 0.34179,0.26703 0.98266,0.26703 0.65155,0 1.39923,-0.27771 0.75837,-0.27771 1.40992,-0.70496 0.66223,-0.42724 1.19629,-0.92926 0.53405,-0.50201 0.93994,-0.9613 0.41656,-0.45929 0.67291,-0.79041 0.26703,-0.34179 0.36316,-0.42724 l 0.2243,0.18158 q -0.13885,0.11749 -0.42724,0.48065 -0.27771,0.36316 -0.71564,0.83313 -0.42725,0.45929 -0.99335,0.97198 -0.55542,0.5127 -1.23901,0.95063 z m -3.26843,-2.56348 q 3.2257,-1.1322 4.15497,-2.25372 0.30975,-0.37384 0.30975,-0.72632 0,-0.59815 -0.55542,-0.59815 -0.98267,0 -2.45667,1.71967 -1.02539,1.19629 -1.45263,1.85852 z"
         style="font-size:21.87500763px;line-height:1.25"
         id="path4555" />
      <path
         d="m 112.5907,153.3322 q 0,0.35248 0.5127,0.35248 0.51269,0 1.08948,-0.26703 0.58746,-0.27771 1.15356,-0.69428 0.57678,-0.41656 1.11084,-0.9079 0.53406,-0.50201 0.97199,-0.95062 l 0.737,-0.7904 q 0.29907,-0.3418 0.40588,-0.44861 l 0.21362,0.18158 q -0.11749,0.11749 -0.43793,0.46997 -0.30975,0.35248 -0.76904,0.81177 -0.44861,0.45929 -1.01471,0.97198 -0.55542,0.5127 -1.16424,0.93994 -1.4206,0.98267 -2.48871,0.98267 -0.44861,0 -0.737,-0.24567 -0.29908,-0.24566 -0.29908,-0.52337 0,-0.2884 0.032,-0.45929 0.0214,-0.1709 0.10681,-0.38453 0.0854,-0.2243 0.24567,-0.51269 0.16021,-0.29907 0.42724,-0.71564 l 1.63422,-2.41394 8.25653,-11.80268 q 0.76905,0.10681 1.48468,0 -10.18982,14.16322 -10.55298,14.70796 -0.36316,0.53405 -0.53406,0.81176 -0.1709,0.26703 -0.25634,0.43793 -0.12818,0.25635 -0.12818,0.44861 z"
         style="font-size:21.87500763px;line-height:1.25"
         id="path4557" />
      <path
         d="m 131.04774,153.77013 q -0.32044,-0.0641 -0.70496,-0.0641 -0.58746,0 -1.01471,0.0534 l 0.89722,-1.49537 q -1.32446,-1.04675 -1.73035,-2.68097 -0.12817,-0.53405 -0.12817,-1.12152 0,-0.58746 0.14953,-1.10016 0.16022,-0.52337 0.43793,-0.9079 0.58747,-0.81176 1.46332,-0.81176 0.67291,0 1.15357,0.58746 0.53405,0.65155 0.53405,1.70899 0,0.88653 -0.69427,2.58483 -0.21362,0.52338 -0.48065,1.04676 2.55279,-3.94135 5.31921,-6.71845 l 1.44196,-1.39923 q 0.19226,-0.1709 0.30975,-0.1709 0.11749,0 0.11749,0.0855 0,0.0961 -0.58746,0.66223 -0.57678,0.55542 -1.42059,1.57013 -0.84381,1.00403 -1.65558,2.14691 -1.70899,2.43531 -2.91596,4.94538 0.67291,0.27771 1.36719,0.27771 1.39923,0 2.42462,-0.86517 0.96131,-0.86518 0.96131,-1.91193 0,-0.0534 -0.0214,-0.16022 -0.42724,-0.0214 -0.42724,-0.38452 0,-0.11749 0.0855,-0.21362 0.0961,-0.0961 0.27771,-0.0961 0.18158,0 0.32043,0.18158 0.13886,0.18158 0.13886,0.68359 0,0.50201 -0.30976,1.10016 -0.30975,0.59814 -0.85449,1.03607 -1.12152,0.91858 -2.6062,0.91858 -0.737,0 -1.48468,-0.29907 z m -0.66223,-1.8158 q 1.39923,-2.59552 1.39923,-4.13361 0,-1.21765 -0.79041,-1.63421 -0.2243,-0.1175 -0.49133,-0.1175 -0.25635,0 -0.54474,0.20294 -0.27771,0.20295 -0.50201,0.53406 -0.48066,0.74768 -0.48066,1.75171 0,2.08283 1.40992,3.39661 z"
         style="font-size:21.87500763px;line-height:1.25"
         id="path4559" />
      <path
         d="m 157.69722,147.19053 q -0.0107,-0.14953 0.20294,-0.26702 0.21363,-0.12818 0.82245,-0.12818 0.60883,0 1.08948,0.26703 1.474,-0.61951 2.64893,-2.22168 1.16424,-1.59149 1.12152,-2.90527 -0.032,-0.8545 -0.67291,-1.46332 -2.62757,1.77307 -5.42603,5.84259 -4.33655,6.0669 -7.55158,7.28455 -0.99335,0.38452 -1.70898,0.38452 -0.72632,0 -1.15357,-0.10681 -0.42724,-0.11749 -0.71563,-0.32044 -0.54474,-0.3952 -0.54474,-1.03607 0,-0.66223 0.65155,-0.84381 0.18158,-0.0427 0.35247,-0.0427 0.1709,0 0.35248,0.11749 0.1709,0.11749 0.1709,0.35248 0,0.23498 -0.1709,0.3952 -0.18158,0.16022 -0.46997,0.16022 -0.28839,0 -0.45929,-0.1175 v 0.0641 q 0,0.48065 0.44861,0.77972 0.44861,0.29908 1.08948,0.29908 0.63019,0 1.05743,-0.0961 0.42725,-0.0961 0.88654,-0.35248 0.45929,-0.26703 0.97198,-0.72632 0.5127,-0.46997 1.15357,-1.20697 0.64087,-0.737 1.45264,-1.78375 l 1.84784,-2.47803 q 2.28576,-3.20435 5.16968,-5.3833 1.53808,-1.16425 2.20031,-1.49537 -1.29242,-0.86517 -3.81317,-0.86517 -2.34985,0 -4.5929,1.03607 -2.0401,0.95062 -3.31115,2.43531 -1.26038,1.48468 -1.21766,2.81982 0.0214,0.77973 0.59815,1.21765 0.44861,0.3418 1.0788,0.3418 0.63018,0 1.28173,-0.3418 0.66224,-0.34179 1.27106,-0.88653 0.60883,-0.55542 1.14289,-1.22834 0.54473,-0.68359 0.9613,-1.3565 0.86517,-1.39923 0.9613,-2.22168 0.032,-0.36316 0.13886,-0.36316 0.10681,0 0.11749,0.0855 0.0107,0.0748 0.0214,0.48065 0.0107,0.40588 -0.16021,1.12152 -0.1709,0.71564 -0.52338,1.42059 -0.3418,0.70496 -0.86517,1.34583 -0.5127,0.64087 -1.17493,1.1322 -1.44196,1.08948 -3.20435,1.08948 -0.737,0 -1.34582,-0.49133 -0.64087,-0.52338 -0.67292,-1.34583 -0.0214,-0.83313 0.37384,-1.66626 0.39521,-0.83313 1.08948,-1.57013 0.70496,-0.737 1.65558,-1.35651 0.95062,-0.6195 2.02942,-1.06811 2.27509,-0.92926 4.62494,-0.92926 2.36054,0 3.86658,0.98266 1.58081,-0.80108 2.31781,-0.80108 0.20294,0 0.20294,0.0855 0.0107,0.0855 -0.0534,0.12817 -0.0641,0.0427 -0.36316,0.0961 -0.66223,0.11749 -1.71967,0.76904 1.23902,1.00403 1.3031,2.57416 0.0641,1.36719 -1.14288,2.61689 -1.22833,1.28173 -3.23639,1.8692 0.30975,0.32043 0.32043,0.75836 0.0214,0.43793 -0.0427,0.79041 -0.0641,0.35247 -0.28839,0.77972 -0.43793,0.83313 -1.8158,2.211 -0.63019,0.52338 -0.60882,1.04675 0,0.77973 1.12152,0.77973 1.3031,0 2.70233,-1.37787 1.42059,-1.4206 2.11487,-3.47138 0.0961,-0.32043 0.14953,-0.32043 0.19226,0 0.19226,0.46997 0,0.45929 -0.24566,1.0788 -0.23499,0.6195 -0.64087,1.19628 -0.40588,0.57679 -0.93994,1.0788 -0.53406,0.49133 -1.12152,0.85449 -1.23902,0.79041 -2.18964,0.79041 -0.93994,0 -1.40991,-0.36316 -0.46997,-0.37384 -0.49134,-0.95062 -0.0214,-0.58747 0.13886,-1.08948 0.16022,-0.50202 0.42724,-0.92926 0.27771,-0.43793 0.61951,-0.81177 l 0.66223,-0.71564 q 0.75837,-0.6195 0.8545,-1.10016 0.0214,-0.13885 0.0214,-0.28839 0,-0.14953 -0.0641,-0.27771 -0.49133,0.1175 -0.9613,0.1175 -0.46997,0 -0.70496,-0.1175 -0.23498,-0.12817 -0.25635,-0.26703 z m 1.67694,0.0214 q -0.29907,-0.1709 -0.7904,-0.1709 -0.49133,0 -0.49133,0.0855 0,0.20294 0.43792,0.20294 0.43793,0 0.84381,-0.11749 z"
         style="font-size:21.87500763px;line-height:1.25"
         id="path4561" />
      <path
         d="m 169.2756,153.04381 q -0.67291,0.42724 -1.46332,0.70495 -0.77972,0.27771 -1.48468,0.27771 -0.70496,0 -1.0788,-0.13885 -0.36316,-0.14954 -0.59814,-0.40588 -1.00403,-1.08948 0.0107,-3.21503 0.43793,-0.93994 1.32446,-1.70899 0.88654,-0.77972 1.55945,-1.16424 1.3031,-0.74768 2.44599,-0.74768 1.1322,0 1.1856,0.70495 0.0748,1.14289 -2.7771,2.48871 -1.04675,0.49133 -2.63824,1.01471 -0.63019,1.02539 -0.63019,1.67694 0,0.64087 0.33112,0.91858 0.34179,0.26703 0.98266,0.26703 0.65155,0 1.39923,-0.27771 0.75837,-0.27771 1.40992,-0.70496 0.66223,-0.42724 1.19629,-0.92926 0.53405,-0.50201 0.93994,-0.9613 0.41656,-0.45929 0.67291,-0.79041 0.26703,-0.34179 0.36316,-0.42724 l 0.2243,0.18158 q -0.13885,0.11749 -0.42724,0.48065 -0.27771,0.36316 -0.71564,0.83313 -0.42725,0.45929 -0.99335,0.97198 -0.55542,0.5127 -1.23901,0.95063 z m -3.26844,-2.56348 q 3.22571,-1.1322 4.15497,-2.25372 0.30976,-0.37384 0.30976,-0.72632 0,-0.59815 -0.55542,-0.59815 -0.98267,0 -2.45667,1.71967 -1.02539,1.19629 -1.45264,1.85852 z"
         style="font-size:21.87500763px;line-height:1.25"
         id="path4563" />
      <path
         d="m 175.66293,151.99705 q 0.12817,0.0214 0.32043,0.0214 0.20294,0 0.48065,-0.14954 0.27771,-0.14954 0.5661,-0.38452 0.29908,-0.23499 0.58747,-0.5127 0.28839,-0.28839 0.52338,-0.54474 0.24566,-0.26702 0.42724,-0.48065 l 0.24567,-0.32043 0.23498,0.18158 q -0.12817,0.12817 -0.33111,0.35248 l -0.44861,0.51269 q -1.48468,1.60217 -2.34986,1.60217 h -0.18158 q -0.0854,0 -0.17089,-0.0214 -0.89722,1.95465 -3.81318,1.95465 -1.27105,0 -1.84784,-0.60882 -0.24566,-0.26703 -0.24566,-0.6836 0,-0.41656 0.20294,-0.70495 0.19226,-0.29907 0.45929,-0.49134 0.54474,-0.3952 0.98267,-0.3952 0.42724,0 0.42724,0.40589 -0.032,0.27771 -0.46997,0.41656 -0.13885,0.0427 -0.26703,0.0427 -0.13885,0 -0.25635,-0.0855 -0.12817,-0.0961 -0.20294,-0.13886 -0.0641,0.0641 -0.16022,0.14954 -0.10681,0.0854 -0.20294,0.20294 -0.23498,0.28839 -0.23498,0.59814 0,0.29908 0.20294,0.48066 0.20294,0.18158 0.48065,0.27771 0.41657,0.14953 0.87586,0.14953 0.4486,0 0.92926,-0.19226 0.49133,-0.19226 0.9613,-0.64087 1.29242,-1.22833 1.39923,-3.64227 0.0641,-1.62354 0.3952,-2.54212 0.0107,-0.032 0.0107,-0.0961 l -2.52076,3.09754 q -0.21362,0.25635 -0.30975,0.33111 -0.10681,0.0748 -0.10681,0.0748 -0.12818,0.0107 -0.1709,-0.0641 -0.0214,-0.0534 0.0961,-0.20294 2.75574,-3.28979 3.09754,-3.7384 0.17089,-0.83313 0.55542,-0.83313 0.18158,0 0.29907,0.0961 0.12817,0.0961 0.12817,0.24566 -0.0107,0.20295 -0.33111,0.57679 -0.30976,0.36316 -0.38453,0.46997 -0.0641,0.0961 -0.0855,0.1709 -0.0214,0.0641 -0.0214,0.12817 v 0.12817 q -0.0107,0.2884 0.0534,0.6836 l 0.26703,1.77307 q 0.23498,1.45264 -0.0961,2.34985 z"
         style="font-size:21.87500763px;line-height:1.25"
         id="path4565" />
      <path
         d="m 177.67099,153.34288 q 0,0.32043 0.5127,0.33112 0.51269,0.0107 1.02539,-0.22431 0.52337,-0.23498 1.03607,-0.59814 0.51269,-0.36316 0.99335,-0.81177 0.48065,-0.45929 0.89721,-0.9079 0.41657,-0.44861 0.74768,-0.84381 l 0.55542,-0.66223 0.23499,0.18158 -0.55542,0.64087 q -2.98004,3.53546 -5.00946,3.53546 -0.58747,0 -0.87586,-0.23499 -0.29907,-0.23498 -0.29907,-0.51269 0,-0.27771 0.032,-0.45929 0.0214,-0.18158 0.10681,-0.3952 0.0854,-0.22431 0.25635,-0.52338 0.16022,-0.29907 0.43793,-0.72632 l 1.66626,-2.40326 2.75574,-3.87726 h -0.84381 q -0.32044,0 -0.32044,-0.14954 0,-0.16021 0.40589,-0.16021 h 0.97198 l 1.97602,-2.7771 q 0.74768,0.11749 1.48468,0 l -2.06147,2.7771 h 2.75574 q 0.29907,0 0.29907,0.16021 0,0.14954 -0.26703,0.14954 h -3.02276 l -4.422,6.01349 q -1.14288,1.61286 -1.3031,1.9867 -0.1709,0.37384 -0.1709,0.49133 z"
         style="font-size:21.87500763px;line-height:1.25"
         id="path4567" />
      <path
         d="m 187.61514,153.98375 q -1.06811,0 -1.06811,-0.66223 0,-0.54474 0.61951,-1.36719 l 0.67291,-0.85449 -0.10681,-0.0427 q -1.79444,2.211 -3.38593,2.7771 -0.43793,0.14954 -0.75836,0.14954 -1.31378,0 -1.31378,-1.39923 0,-1.6449 1.31378,-3.14026 1.94397,-2.26441 3.9093,-2.68097 0.58747,-0.11749 1.00403,-0.11749 0.41657,0 0.65155,0.0641 0.24567,0.0534 0.42725,0.16022 0.38452,0.24567 0.38452,0.60883 0,0.35247 -0.12818,0.67291 l 1.04676,-1.29242 q 0.28839,0.0855 0.53406,0.0855 0.63018,0 0.90789,-0.0427 l -3.59955,4.33655 q -1.28173,1.49536 -1.28173,2.10419 0,0.3418 0.40588,0.3418 0.40588,0 0.92926,-0.24567 0.53406,-0.24567 1.05743,-0.63019 0.52338,-0.38452 1.01471,-0.85449 0.50202,-0.46997 0.91858,-0.91858 0.42725,-0.44861 0.74768,-0.83313 l 0.5127,-0.57678 0.2243,0.18158 -0.54473,0.6195 q -3.07618,3.55683 -5.09492,3.55683 z m -2.95868,-3.84522 q -1.50604,1.82648 -1.50604,2.99073 0,0.53405 0.48065,0.53405 1.55945,0 4.49677,-3.45001 l 0.89722,-1.0788 q 0.64087,-0.97198 0.64087,-1.40991 0,-0.74768 -0.74768,-0.74768 -1.01471,0 -2.91596,1.73035 -0.65155,0.59814 -1.34583,1.43127 z"
         style="font-size:21.87500763px;line-height:1.25"
         id="path4569" />
      <path
         d="m 192.10123,153.3322 q 0,0.38452 0.51269,0.38452 0.71564,0 1.53809,-0.54474 1.77307,-1.18561 3.69568,-3.54614 0,0 2.42462,-2.91596 0.5127,0.0641 0.92926,0.0641 0.41657,0 0.69428,-0.032 l -1.04676,1.20697 -3.78113,4.60357 q -0.37384,0.45929 -0.37384,0.74769 0,0.38452 0.5127,0.38452 0.51269,0 1.05743,-0.26703 0.55542,-0.27771 1.10016,-0.69428 0.55542,-0.41656 1.0788,-0.9079 0.52338,-0.50201 0.95062,-0.95062 l 1.12152,-1.23901 0.21363,0.18158 -0.41657,0.46997 q -0.30975,0.35248 -0.75836,0.81177 l -0.99335,0.97198 q -2.0401,1.92261 -3.38592,1.92261 -0.43793,0 -0.72632,-0.23499 -0.27771,-0.24566 -0.29908,-0.65155 -0.0214,-0.77972 0.54474,-1.76239 -2.45666,2.64893 -4.16565,2.64893 -0.9613,0 -1.22833,-0.68359 -0.0748,-0.19227 -0.0855,-0.49134 -0.0107,-0.29907 0.14954,-0.71564 0.14953,-0.41656 0.45929,-0.89721 0.30975,-0.49134 0.75836,-1.05744 l 1.92261,-2.32849 q 0.44861,-0.55542 0.95062,-1.10016 0.41656,0.0641 0.67291,0.0641 h 0.36316 q 0.45929,0 0.58747,-0.032 -1.2497,1.36718 -1.75171,1.97601 l -2.12555,2.5528 q -1.12153,1.3031 -1.10016,2.06146 z"
         style="font-size:21.87500763px;line-height:1.25"
         id="path4571" />
      <path
         d="m 204.29911,153.12926 q 0,0.49133 0.41657,0.49133 0.42724,0 0.92926,-0.25635 0.51269,-0.25635 1.03607,-0.65155 0.53406,-0.3952 1.04675,-0.87585 l 0.92926,-0.92926 q 0.42725,-0.43793 0.737,-0.79041 l 0.43793,-0.49133 0.21362,0.18158 q -0.20294,0.18158 -0.54474,0.5661 l -0.76904,0.85449 q -2.6062,2.75574 -4.48608,2.75574 -0.60883,0 -0.98267,-0.29907 -0.36316,-0.29908 -0.36316,-0.80109 0,-1.59149 4.63562,-4.69971 -2.2644,-0.37384 -3.12958,-0.75836 -0.70495,1.45264 -2.16827,2.95868 -0.3418,0.35248 -0.41657,0.38452 -0.0855,0.032 -0.10681,0.0534 -0.0214,0.0107 -0.032,-0.0641 -0.0107,-0.0748 0,-0.10681 0.0107,-0.0427 0.0427,-0.0855 0.50202,-0.5661 0.92926,-1.08948 0.99335,-1.23901 1.46332,-2.20032 -0.38452,-0.24566 -0.43793,-0.52337 -0.0534,-0.27771 0,-0.5127 0.0641,-0.24567 0.19226,-0.43793 0.27771,-0.41656 0.64087,-0.41656 0.67292,0 0.67292,0.49133 0,0.24567 -0.0961,0.41657 l -0.19226,0.33111 q -0.19227,0.24567 -0.19227,0.5661 0,0.19226 0.81177,0.36316 0.82245,0.1709 1.16425,0.23499 0.74768,0.13885 1.18561,0.16022 0.29907,0.0107 0.29907,0.16021 0,0.0961 -0.35248,0.37384 -0.3418,0.27771 -0.75836,0.67292 -0.41657,0.3952 -0.81177,0.83313 -0.3952,0.42724 -0.74768,0.87585 -0.35248,0.44861 -0.61951,0.86518 -0.57678,0.89721 -0.57678,1.39923 z"
         style="font-size:21.87500763px;line-height:1.25"
         id="path4573" />
      <path
         d="m 214.01896,153.98375 q -1.06812,0 -1.06812,-0.66223 0,-0.54474 0.61951,-1.36719 l 0.67291,-0.85449 -0.10681,-0.0427 q -1.79443,2.211 -3.38592,2.7771 -0.43793,0.14954 -0.75837,0.14954 -1.31378,0 -1.31378,-1.39923 0,-1.6449 1.31378,-3.14026 1.94398,-2.26441 3.90931,-2.68097 0.58746,-0.11749 1.00403,-0.11749 0.41656,0 0.65155,0.0641 0.24566,0.0534 0.42724,0.16022 0.38452,0.24567 0.38452,0.60883 0,0.35247 -0.12817,0.67291 l 1.04675,-1.29242 q 0.2884,0.0855 0.53406,0.0855 0.63019,0 0.9079,-0.0427 l -3.59955,4.33655 q -1.28174,1.49536 -1.28174,2.10419 0,0.3418 0.40589,0.3418 0.40588,0 0.92926,-0.24567 0.53405,-0.24567 1.05743,-0.63019 0.52338,-0.38452 1.01471,-0.85449 0.50202,-0.46997 0.91858,-0.91858 0.42725,-0.44861 0.74768,-0.83313 l 0.5127,-0.57678 0.2243,0.18158 -0.54474,0.6195 q -3.07617,3.55683 -5.09491,3.55683 z m -2.95868,-3.84522 q -1.50604,1.82648 -1.50604,2.99073 0,0.53405 0.48065,0.53405 1.55945,0 4.49677,-3.45001 l 0.89721,-1.0788 q 0.64087,-0.97198 0.64087,-1.40991 0,-0.74768 -0.74768,-0.74768 -1.01471,0 -2.91595,1.73035 -0.65155,0.59814 -1.34583,1.43127 z"
         style="font-size:21.87500763px;line-height:1.25"
         id="path4575" />
      <path
         d="m 219.75474,153.75945 q -0.28839,-0.0534 -0.64087,-0.0534 -0.5661,0 -0.99335,0.10681 l 3.70636,-5.29785 q 0.69428,-0.97199 0.71564,-1.15357 0.0427,-0.35248 -0.2243,-0.35248 -0.39521,0 -1.96534,1.95466 l -0.68359,0.84381 q -0.0854,0.0427 -0.18158,-0.0427 -0.0854,-0.0961 -0.0427,-0.13885 0.30976,-0.33112 0.69428,-0.83313 0.3952,-0.5127 0.82245,-0.98267 1.04675,-1.16424 1.74103,-1.16424 1.17492,0 0.74768,1.20697 -0.0855,0.25634 -0.37384,0.66223 l -2.24305,3.1189 0.0534,0.11749 q 2.69165,-2.948 3.82385,-3.89862 1.0788,-0.89722 1.60218,-1.04676 0.53406,-0.16021 0.86517,-0.16021 0.3418,0 0.57678,0.0961 0.24567,0.0961 0.39521,0.24566 0.27771,0.27771 0.26703,0.67292 0,0.38452 -0.14954,0.7904 -0.13886,0.40588 -0.48065,0.9613 -0.71564,1.14289 -2.41394,2.98005 -0.70496,0.737 -0.737,0.86517 -0.032,0.11749 -0.032,0.18158 0,0.24567 0.65155,0.24567 0.66224,0 1.22834,-0.26703 0.57678,-0.27771 1.12152,-0.69428 0.55542,-0.41656 1.04675,-0.9079 0.50202,-0.50201 0.89722,-0.95062 0.3952,-0.45929 0.66223,-0.7904 0.26703,-0.3418 0.36316,-0.44861 l 0.2243,0.18158 q -0.10681,0.11749 -0.38452,0.46997 -0.27771,0.35248 -0.69427,0.81177 -0.40589,0.45929 -0.92926,0.97198 -0.5127,0.5127 -1.08948,0.93994 -1.34583,0.98267 -2.43531,0.98267 -0.9613,0 -1.33514,-0.48065 -0.11749,-0.14954 -0.11749,-0.35248 0,-0.20294 0.0534,-0.45929 0.0641,-0.26703 0.28839,-0.67291 0.50202,-0.86518 1.4206,-1.90125 0.92926,-1.03607 1.21765,-1.39923 0.28839,-0.36316 0.45929,-0.63019 0.32043,-0.51269 0.32043,-0.7904 0,-0.38453 -0.51269,-0.38453 -1.05744,0 -3.49274,2.39258 -1.22833,1.19629 -2.81982,3.15094 z"
         style="font-size:21.87500763px;line-height:1.25"
         id="path4577" />
      <path
         d="m 229.45324,153.34288 q 0,0.32043 0.51269,0.33112 0.5127,0.0107 1.0254,-0.22431 0.52337,-0.23498 1.03607,-0.59814 0.51269,-0.36316 0.99335,-0.81177 0.48065,-0.45929 0.89721,-0.9079 0.41657,-0.44861 0.74768,-0.84381 l 0.55542,-0.66223 0.23499,0.18158 -0.55542,0.64087 q -2.98004,3.53546 -5.00946,3.53546 -0.58747,0 -0.87586,-0.23499 -0.29907,-0.23498 -0.29907,-0.51269 0,-0.27771 0.032,-0.45929 0.0214,-0.18158 0.10681,-0.3952 0.0855,-0.22431 0.25635,-0.52338 0.16022,-0.29907 0.43793,-0.72632 l 1.66626,-2.40326 2.75574,-3.87726 h -0.84381 q -0.32044,0 -0.32044,-0.14954 0,-0.16021 0.40589,-0.16021 h 0.97198 l 1.97602,-2.7771 q 0.74768,0.11749 1.48468,0 l -2.06147,2.7771 h 2.75574 q 0.29907,0 0.29907,0.16021 0,0.14954 -0.26703,0.14954 h -3.02276 l -4.422,6.01349 q -1.14289,1.61286 -1.3031,1.9867 -0.1709,0.37384 -0.1709,0.49133 z"
         style="font-size:21.87500763px;line-height:1.25"
         id="path4579" />
    </g>
    <g
       aria-label="~Poltava~"
       transform="matrix(1.0735145,0,0.26495252,0.93151978,0,0)"
       style="font-style:normal;font-variant:normal;font-weight:normal;font-stretch:normal;line-height:0%;font-family:'Pinyon Script';-inkscape-font-specification:'Pinyon Script';letter-spacing:0px;word-spacing:0px;fill:#000000;fill-opacity:1;stroke:none"
       id="text3286">
      <path
         d="m 63.542705,193.83203 q 0.981689,0 1.561778,-1.28512 l 0.4016,0.12495 q -0.4016,1.08878 -1.347591,1.47253 -0.294507,0.11602 -0.553316,0.11602 -0.258809,0 -0.455147,-0.0268 -0.196338,-0.0268 -0.419449,-0.0982 -0.428373,-0.14279 -0.919218,-0.43729 l -0.705031,-0.42838 q -0.651485,-0.39267 -0.999539,-0.39267 -0.348053,0 -0.571164,0.0982 -0.223111,0.0892 -0.410525,0.24988 -0.392676,0.32128 -0.615787,0.88352 l -0.4016,-0.16956 q 0.410525,-1.02631 1.285121,-1.38329 0.294506,-0.12494 0.553315,-0.12494 0.258809,0 0.446223,0.0446 0.187413,0.0357 0.392675,0.13386 0.214187,0.0893 0.481921,0.24096 l 0.615787,0.36591 q 0.821049,0.49977 1.142329,0.56224 0.330204,0.0535 0.517618,0.0535 z"
         style="font-size:18.27726936px;line-height:1.25"
         id="path4582" />
      <path
         d="m 75.367598,191.592 q -3.882135,5.21187 -6.764731,5.21187 -1.401139,0 -1.78489,-0.74965 -0.107093,-0.21419 -0.107093,-0.4373 0,-0.23203 0.08032,-0.37482 0.08032,-0.14279 0.205262,-0.23204 0.223111,-0.16956 0.553316,-0.16956 0.133867,0 0.294507,0.0982 0.151715,0.0982 0.151715,0.2945 0,0.19634 -0.151715,0.33021 -0.151716,0.13386 -0.383752,0.13386 -0.24096,0 -0.392675,-0.0892 v 0.0446 q 0,0.4016 0.383751,0.65149 0.374827,0.24988 0.901369,0.24988 0.517618,0 0.865672,-0.0714 0.348053,-0.0803 0.713955,-0.28558 0.374827,-0.21418 0.794276,-0.58901 0.428374,-0.37483 0.945992,-0.96384 0.526542,-0.59794 1.178027,-1.44576 l 1.490383,-1.99908 q -0.499769,-0.3302 -0.499769,-0.78535 0,-0.38375 0.348053,-0.66041 0.32128,-0.25881 0.633636,-0.25881 0.32128,0 0.32128,0.0892 0,0.0446 -0.107093,0.0714 -0.419449,0.0714 -0.633636,0.33021 -0.205262,0.24988 -0.205262,0.52654 0,0.27666 0.294506,0.47299 l 0.124943,-0.16956 q 1.463609,-1.9723 2.409601,-2.93614 1.52608,-1.57071 2.980765,-2.57024 l 0.365903,-0.24096 q -1.035236,-0.63364 -3.186028,-0.63364 -2.159717,0 -4.194491,0.8389 -1.856285,0.75858 -3.025388,2.008 -1.151254,1.22265 -1.115556,2.4096 0.01785,0.66933 0.428374,1.01739 0.339129,0.28558 0.829973,0.28558 0.490845,0 1.035236,-0.28558 0.553316,-0.28559 1.06201,-0.73181 0.508693,-0.45514 0.954916,-1.00846 0.455146,-0.56224 0.794275,-1.11556 0.731805,-1.17802 0.812125,-1.83843 0.02677,-0.30343 0.107094,-0.30343 0.08924,0 0.09817,0.0714 0.0089,0.0625 0.01785,0.39268 0.0089,0.3302 -0.133866,0.91922 -0.142791,0.58901 -0.437298,1.17802 -0.285583,0.58009 -0.722881,1.11556 -0.428373,0.53547 -0.981689,0.94599 -1.213725,0.90137 -2.677334,0.90137 -0.544392,0 -0.972765,-0.41053 -0.472996,-0.45514 -0.490845,-1.1334 -0.02677,-0.67826 0.312356,-1.36544 0.339129,-0.68718 0.945991,-1.29405 0.615787,-0.61578 1.445761,-1.12448 0.838898,-0.51761 1.802739,-0.88352 2.034774,-0.78535 4.140943,-0.78535 2.115095,0 3.453762,0.65149 1.079858,-0.59794 1.615325,-0.59794 0.169564,0 0.169564,0.0714 0.0089,0.0714 -0.0357,0.1071 -0.0357,0.0357 -0.258809,0.0714 -0.526543,0.0982 -1.169103,0.51762 1.436836,0.84782 1.436836,2.32036 0,1.08878 -0.838898,2.11509 -0.812125,0.98169 -2.132943,1.59748 -1.356516,0.62471 -2.793352,0.62471 -0.705032,0 -1.30297,-0.12494 z m 0.169565,-0.22311 q 0.56224,0.11601 1.062009,0.11601 0.508694,0 1.04416,-0.13386 0.544392,-0.13387 1.06201,-0.39268 0.526542,-0.26773 1.008462,-0.66041 0.481921,-0.39267 0.847823,-0.91922 0.8032,-1.14233 0.8032,-2.57916 0,-0.94599 -0.687182,-1.51716 -0.98169,0.71396 -2.043699,1.97231 -1.062009,1.25834 -1.767041,2.25788 z"
         style="font-size:18.27726936px;line-height:1.25"
         id="path4584" />
      <path
         d="m 84.131406,195.34919 q -0.330205,0 -0.48192,-0.26773 -1.06201,1.2048 -2.293584,1.59747 -0.410524,0.12494 -0.8032,0.12494 -0.383751,0 -0.660409,-0.0892 -0.276658,-0.0892 -0.455147,-0.24988 -0.72288,-0.62472 -0.142791,-2.1508 0.223111,-0.59793 0.580089,-1.11555 0.348054,-0.51762 0.785351,-0.95492 0.446223,-0.44622 0.954916,-0.79427 1.151254,-0.77643 2.248961,-0.77643 0.472996,0 0.812125,0.24988 0.348053,0.24096 0.374827,0.70504 0.02677,0.45514 -0.05355,0.85674 -0.08032,0.4016 -0.24096,0.8032 -0.32128,0.82105 -0.910294,1.55286 0.06247,0.25881 0.339129,0.25881 0.285583,0 0.535467,-0.12495 0.258809,-0.13386 0.508694,-0.32128 0.258809,-0.19633 0.499769,-0.42837 0.249884,-0.24096 0.455147,-0.45515 l 0.339129,-0.37482 q 0.142791,-0.16957 0.205262,-0.23204 l 0.196338,0.15172 q -0.116018,0.10709 -0.294507,0.30343 -0.178489,0.19633 -0.4016,0.41945 0,0 -0.472996,0.46407 -0.919218,0.84782 -1.624249,0.84782 z m -3.703646,1.11556 q 0.142791,0.0714 0.4016,0.0714 0.580089,0 1.490383,-0.65148 0.696107,-0.49977 1.240498,-1.15126 v -0.0357 q 0,-0.75858 0.571165,-1.14233 0.151715,-0.1071 0.285582,-0.15172 0.428374,-0.91029 0.4016,-1.49038 -0.05355,-0.91922 -0.678258,-0.91922 -1.053085,0 -2.953992,2.3739 -1.222649,1.53501 -1.151254,2.39175 0,0.49085 0.392676,0.70504 z"
         style="font-size:18.27726936px;line-height:1.25"
         id="path4586" />
      <path
         d="m 85.818126,196.25948 q 0,0.29451 0.428374,0.29451 0.428373,0 0.910294,-0.22311 0.490844,-0.23204 0.96384,-0.58009 0.48192,-0.34805 0.928143,-0.75858 0.446222,-0.41945 0.812124,-0.79427 l 0.615787,-0.66041 q 0.249885,-0.28559 0.339129,-0.37483 l 0.178489,0.15172 q -0.09817,0.0982 -0.365902,0.39267 -0.258809,0.29451 -0.64256,0.67826 -0.374827,0.38375 -0.847823,0.81212 -0.464071,0.42838 -0.972765,0.78536 -1.186951,0.82104 -2.079396,0.82104 -0.374827,0 -0.615787,-0.20526 -0.249885,-0.20526 -0.249885,-0.4373 0,-0.24096 0.02677,-0.38375 0.01785,-0.14279 0.08924,-0.32128 0.0714,-0.18741 0.205263,-0.42837 0.133866,-0.24988 0.356977,-0.59794 l 1.365441,-2.01692 6.898598,-9.86152 q 0.64256,0.0892 1.240498,0 -8.513923,11.83382 -8.817354,12.28897 -0.303431,0.44622 -0.446222,0.67825 -0.142792,0.22312 -0.214187,0.36591 -0.107094,0.21418 -0.107094,0.37482 z"
         style="font-size:18.27726936px;line-height:1.25"
         id="path4588" />
      <path
         d="m 89.860901,196.26841 q 0,0.26773 0.428373,0.27666 0.428374,0.009 0.856747,-0.18742 0.437298,-0.19634 0.865672,-0.49977 0.428373,-0.30343 0.829973,-0.67825 0.4016,-0.38376 0.749654,-0.75858 0.348053,-0.37483 0.624711,-0.70503 l 0.464072,-0.55332 0.196337,0.15172 -0.464071,0.53546 q -2.489921,2.95399 -4.185566,2.95399 -0.490845,0 -0.731805,-0.19633 -0.249884,-0.19634 -0.249884,-0.42838 0,-0.23203 0.02677,-0.38375 0.01785,-0.15171 0.08924,-0.3302 0.07139,-0.18742 0.214186,-0.4373 0.133867,-0.24988 0.365903,-0.60686 l 1.392214,-2.008 2.302507,-3.23958 h -0.705031 q -0.267734,0 -0.267734,-0.12494 0,-0.13387 0.339129,-0.13387 h 0.812125 l 1.651023,-2.32035 q 0.624711,0.0982 1.240498,0 l -1.722418,2.32035 h 2.302507 q 0.249885,0 0.249885,0.13387 0,0.12494 -0.223111,0.12494 h -2.525619 l -3.694721,5.02447 q -0.954916,1.34759 -1.088783,1.65994 -0.142791,0.31236 -0.142791,0.41053 z"
         style="font-size:18.27726936px;line-height:1.25"
         id="path4590" />
      <path
         d="m 98.169562,196.80387 q -0.892445,0 -0.892445,-0.55331 0,-0.45515 0.517618,-1.14233 l 0.562241,-0.71396 -0.08925,-0.0357 q -1.499307,1.84736 -2.82905,2.32035 -0.365902,0.12494 -0.633636,0.12494 -1.097707,0 -1.097707,-1.1691 0,-1.37436 1.097707,-2.62379 1.62425,-1.89198 3.266348,-2.24003 0.490845,-0.0982 0.838898,-0.0982 0.348054,0 0.544392,0.0536 0.205262,0.0446 0.356978,0.13386 0.321279,0.20526 0.321279,0.5087 0,0.2945 -0.10709,0.56224 l 0.87459,-1.07986 q 0.24096,0.0714 0.44623,0.0714 0.52654,0 0.75857,-0.0357 l -3.007535,3.62332 q -1.070934,1.24942 -1.070934,1.75812 0,0.28558 0.339129,0.28558 0.339129,0 0.776427,-0.20526 0.446222,-0.20526 0.883523,-0.52654 0.4373,-0.32128 0.84782,-0.71396 0.41945,-0.39268 0.7675,-0.7675 0.35698,-0.37483 0.62471,-0.69611 l 0.42838,-0.48192 0.18741,0.15172 -0.45515,0.51761 q -2.570237,2.97184 -4.256958,2.97184 z m -2.472072,-3.2128 q -1.258347,1.52608 -1.258347,2.49885 0,0.44622 0.4016,0.44622 1.302969,0 3.757193,-2.8826 l 0.749653,-0.90136 q 0.535467,-0.81213 0.535467,-1.17803 0,-0.62471 -0.624711,-0.62471 -0.847823,0 -2.436374,1.44576 -0.544392,0.49977 -1.124481,1.19587 z"
         style="font-size:18.27726936px;line-height:1.25"
         id="path4592" />
      <path
         d="m 104.8629,190.72633 q 0.42837,0.0535 0.79427,0.0535 0.3659,0 0.60686,-0.0268 -0.79427,0.71396 -1.18695,1.16018 l -1.19587,1.32082 q -0.14279,0.16064 -0.37483,0.39267 l -1.00846,1.07094 q -0.95492,1.04416 -0.95492,1.40113 0,0.35698 0.13387,0.41945 0.13387,0.0536 0.49977,0.0536 0.35698,0 0.91922,-0.20526 0.56224,-0.21419 1.14233,-0.55332 1.05308,-0.61579 1.88305,-1.34759 0.8389,-0.74073 1.13341,-1.11556 0.29451,-0.37482 0.44622,-0.72288 0.24989,-0.57116 0.24989,-1.41898 0,-0.33021 0.20526,-0.53547 0.20526,-0.21419 0.49977,-0.21419 0.49977,0 0.49977,0.49085 0,1.01738 -1.77597,2.7398 l -0.24096,0.22311 q -0.55332,0.74966 -0.28558,1.05309 0.0982,0.0982 0.3659,0.0982 0.27666,0 0.66041,-0.22311 0.38375,-0.22311 0.74965,-0.52655 0.37483,-0.31235 0.68719,-0.63363 l 0.49084,-0.51762 0.18741,0.15172 q -1.82951,1.9723 -2.87367,1.9723 -0.4373,0 -0.55331,-0.25881 -0.1071,-0.25881 0.0892,-0.68718 -1.9366,1.62425 -3.60548,2.23111 -0.61578,0.23203 -1.12448,0.23203 -0.50869,0 -0.75857,-0.19633 -0.24989,-0.20527 -0.24989,-0.49085 0,-0.2945 0.0625,-0.52654 0.0625,-0.24096 0.24989,-0.57116 0.33913,-0.60687 1.07985,-1.52609 0.73181,-0.91921 1.30297,-1.50823 z"
         style="font-size:18.27726936px;line-height:1.25"
         id="path4594" />
      <path
         d="m 113.30543,196.80387 q -0.89245,0 -0.89245,-0.55331 0,-0.45515 0.51762,-1.14233 l 0.56224,-0.71396 -0.0892,-0.0357 q -1.49931,1.84736 -2.82905,2.32035 -0.36591,0.12494 -0.63364,0.12494 -1.09771,0 -1.09771,-1.1691 0,-1.37436 1.09771,-2.62379 1.62425,-1.89198 3.26635,-2.24003 0.49084,-0.0982 0.8389,-0.0982 0.34805,0 0.54439,0.0536 0.20526,0.0446 0.35697,0.13386 0.32128,0.20526 0.32128,0.5087 0,0.2945 -0.10709,0.56224 l 0.8746,-1.07986 q 0.24096,0.0714 0.44622,0.0714 0.52654,0 0.75858,-0.0357 l -3.00754,3.62332 q -1.07093,1.24942 -1.07093,1.75812 0,0.28558 0.33912,0.28558 0.33913,0 0.77643,-0.20526 0.44622,-0.20526 0.88352,-0.52654 0.4373,-0.32128 0.84782,-0.71396 0.41945,-0.39268 0.76751,-0.7675 0.35697,-0.37483 0.62471,-0.69611 l 0.42837,-0.48192 0.18741,0.15172 -0.45514,0.51761 q -2.57024,2.97184 -4.25696,2.97184 z m -2.47208,-3.2128 q -1.25834,1.52608 -1.25834,2.49885 0,0.44622 0.4016,0.44622 1.30297,0 3.75719,-2.8826 l 0.74965,-0.90136 q 0.53547,-0.81213 0.53547,-1.17803 0,-0.62471 -0.62471,-0.62471 -0.84782,0 -2.43638,1.44576 -0.54439,0.49977 -1.12448,1.19587 z"
         style="font-size:18.27726936px;line-height:1.25"
         id="path4596" />
      <path
         d="m 124.9786,193.83203 q 0.98169,0 1.56178,-1.28512 l 0.4016,0.12495 q -0.4016,1.08878 -1.34759,1.47253 -0.29451,0.11602 -0.55332,0.11602 -0.25881,0 -0.45514,-0.0268 -0.19634,-0.0268 -0.41945,-0.0982 -0.42838,-0.14279 -0.91922,-0.43729 l -0.70503,-0.42838 q -0.65149,-0.39267 -0.99954,-0.39267 -0.34805,0 -0.57116,0.0982 -0.22312,0.0892 -0.41053,0.24988 -0.39267,0.32128 -0.61579,0.88352 l -0.4016,-0.16956 q 0.41053,-1.02631 1.28512,-1.38329 0.29451,-0.12494 0.55332,-0.12494 0.25881,0 0.44622,0.0446 0.18742,0.0357 0.39268,0.13386 0.21419,0.0893 0.48192,0.24096 l 0.61579,0.36591 q 0.82104,0.49977 1.14232,0.56224 0.33021,0.0535 0.51762,0.0535 z"
         style="font-size:18.27726936px;line-height:1.25"
         id="path4598" />
    </g>
    <path
       style="fill:#550000;stroke-width:0.1566989"
       d="m 120.71116,88.257663 c -4.63697,-1.202795 -8.01645,-5.157123 -6.65876,-7.791377 0.77983,-1.513055 3.44353,-2.537855 5.27628,-2.029933 1.37182,0.380178 2.75774,1.983201 2.75774,3.189704 0,1.101307 -1.4443,2.15587 -3.15002,2.299977 l -0.55126,0.04658 0.63001,0.610331 c 0.3465,0.335687 1.01983,0.791387 1.49627,1.012666 0.82253,0.382021 0.99742,0.402201 3.46503,0.399845 3.11184,-0.0029 4.53069,-0.300443 7.00881,-1.469459 4.04859,-1.909847 6.70766,-4.821773 10.84467,-11.875881 l 0.42218,-0.719889 -2.22735,-0.344761 c -8.42241,-1.303666 -15.07634,-4.361147 -19.4545,-8.93935 -4.02076,-4.204481 -5.1594,-8.562138 -3.2472,-12.427326 0.52728,-1.065821 2.6017,-3.148367 3.86937,-3.884548 1.32071,-0.766973 3.53311,-1.553747 5.61904,-1.998263 2.5333,-0.539841 6.76033,-0.571127 9.47779,-0.07014 4.77567,0.880423 9.14475,2.684681 13.67382,5.64674 1.04415,0.68289 1.95254,1.241619 2.01861,1.241619 0.0661,0 1.10466,-2.227427 2.30797,-4.949837 4.90966,-11.107933 8.96903,-19.496945 12.08907,-24.983039 5.16333,-9.078956 10.59769,-14.8949093 15.35926,-16.437756 1.27914,-0.4144665 2.14127,-0.3958308 2.62802,0.056797 0.22331,0.2076605 0.40603,0.4999167 0.40603,0.6494583 0,0.1495428 -0.32239,0.6457523 -0.71644,1.102691 -1.23602,1.4333105 -1.59937,2.8634376 -4.70709,18.5263137 -3.29689,16.616339 -7.17732,36.687851 -7.10641,36.758027 0.16551,0.163836 2.81633,-2.085323 4.57611,-3.882737 2.76319,-2.822293 4.37808,-5.390103 5.5123,-8.765088 1.10309,-3.282341 1.18822,-4.238095 0.98102,-11.014566 l -0.0357,-1.169255 0.45005,-0.05096 c 1.03295,-0.116933 2.21107,0.894636 3.06543,2.632058 0.72586,1.476111 0.98468,2.637608 1.08625,4.874833 0.10507,2.313798 -0.0611,3.487174 -0.82125,5.796588 -1.17061,3.556773 -2.76263,6.240141 -5.21993,8.798216 -2.39802,2.496394 -4.79362,4.279186 -8.50331,6.328118 -1.02843,0.568019 -1.92942,1.08974 -2.00224,1.159389 -0.0728,0.06965 -0.64519,2.694448 -1.27196,5.832894 -0.62676,3.138445 -1.18352,5.749775 -1.23724,5.802955 -0.0538,0.05317 -1.57219,0.397274 -3.37433,0.764661 -1.80218,0.367385 -3.76831,0.854887 -4.36918,1.08334 -0.63805,0.242584 -1.24219,0.378179 -1.45236,0.325969 -0.77905,-0.193543 -0.76031,-0.428418 0.41442,-5.191716 0.60866,-2.468098 1.10669,-4.566892 1.10669,-4.663993 0,-0.120604 -0.36179,-0.08324 -1.1419,0.117958 -3.28819,0.848031 -7.00674,1.350149 -11.06447,1.494048 l -2.83504,0.100537 -1.02375,1.786854 c -1.40136,2.445907 -3.36065,5.532846 -4.22736,6.660354 -1.06309,1.382999 -3.31602,3.525088 -4.58739,4.361705 -2.39379,1.575201 -4.9318,2.604681 -7.89498,3.202402 -2.107,0.425016 -6.01517,0.423094 -7.66077,-0.0037 z m 24.20507,-21.3883 c 1.3343,-2.750817 4.79256,-10.273156 5.60357,-12.188758 l 0.45411,-1.072648 -0.46548,-0.378355 c -0.94656,-0.769387 -3.97587,-2.694622 -5.42677,-3.448915 -2.63754,-1.371199 -5.44061,-2.349407 -8.42634,-2.940621 -2.17411,-0.430507 -6.60669,-0.390951 -8.49285,0.07579 -2.01248,0.497997 -3.28946,1.169058 -4.50527,2.367533 -2.52328,2.487337 -2.91332,5.813782 -1.07848,9.198124 2.34064,4.317273 6.5876,7.543234 12.5016,9.496111 2.37767,0.785141 5.93032,1.497007 7.73274,1.549458 l 0.80269,0.02335 z m 6.54424,2.524504 c 3.11761,-0.338728 8.68551,-1.449403 9.37024,-1.869165 0.20764,-0.127292 0.20464,-0.258884 -0.0257,-1.12489 -0.46083,-1.732221 -0.89317,-2.67418 -1.99188,-4.339703 -1.10143,-1.669671 -3.06904,-4.067719 -4.31876,-5.263584 l -0.70191,-0.671631 -1.70365,3.711688 c -0.93702,2.041429 -2.32994,5.002535 -3.09538,6.580231 -0.76544,1.577701 -1.39169,2.928187 -1.39169,3.001086 0,0.178692 2.1141,0.165528 3.85878,-0.02404 z m 13.07058,-12.003661 c 4.1273,-15.858079 6.10295,-22.948837 9.51282,-34.142186 1.69026,-5.548472 2.54801,-8.159151 3.70243,-11.268748 0.67419,-1.816034 0.54543,-1.828108 -1.01188,-0.0949 -1.6419,1.827377 -2.46111,2.889069 -4.01666,5.205578 -4.06954,6.060272 -8.02432,14.006303 -15.26347,30.667735 l -2.48686,5.723668 2.26547,2.227252 c 2.73081,2.684734 3.67071,3.886002 4.74852,6.068961 0.45054,0.912508 0.86615,1.614059 0.9236,1.559006 0.0574,-0.05506 0.78916,-2.730922 1.62603,-5.946368 z"
       id="path14"
       inkscape:connector-curvature="0" />
  </g>
</svg>
